SplineFontDB: 3.2
FontName: KoreeneSans-ExtraBold
FullName: Koreene Sans ExtraBold
FamilyName: Koreene Sans ExtraBold
Weight: Heavy
Copyright: (C) Copyright HanYang I&C Co.,Ltd. All rights reserved.
Version: 2.50; ttfautohint (v1.8.4.7-5d5b-dirty)
ItalicAngle: 0
UnderlinePosition: -244
UnderlineWidth: 90
Ascent: 1638
Descent: 410
InvalidEm: 0
sfntRevision: 0x00020147
LayerCount: 2
Layer: 0 1 "Back" 1
Layer: 1 1 "Fore" 0
XUID: [1021 531 -1996577725 5923393]
StyleMap: 0x0040
FSType: 0
OS2Version: 4
OS2_WeightWidthSlopeOnly: 0
OS2_UseTypoMetrics: 1
CreationTime: 1068260456
ModificationTime: 1706984853
PfmFamily: 81
TTFWeight: 800
TTFWidth: 5
LineGap: 512
VLineGap: 0
Panose: 0 0 0 0 0 0 0 0 0 0
OS2TypoAscent: 1940
OS2TypoAOffset: 0
OS2TypoDescent: -470
OS2TypoDOffset: 0
OS2TypoLinegap: 512
OS2WinAscent: 2196
OS2WinAOffset: 0
OS2WinDescent: 726
OS2WinDOffset: 0
HheadAscent: 1940
HheadAOffset: 0
HheadDescent: -470
HheadDOffset: 0
OS2SubXSize: 410
OS2SubYSize: 410
OS2SubXOff: 0
OS2SubYOff: 574
OS2SupXSize: 410
OS2SupYSize: 410
OS2SupXOff: 0
OS2SupYOff: 1926
OS2StrikeYSize: 204
OS2StrikeYPos: 1024
OS2CapHeight: 1470
OS2XHeight: 1076
OS2Vendor: 'HY  '
OS2CodePages: 2000019f.00000000
OS2UnicodeRanges: e10002ff.4000001b.00000000.00000000
Lookup: 1 0 0 "'aalt' Access All Alternates lookup 0" { "'aalt' Access All Alternates lookup 0 subtable"  } ['aalt' ('DFLT' <'dflt' > 'cyrl' <'dflt' > 'grek' <'dflt' > 'hang' <'dflt' > 'jamo' <'dflt' > 'latn' <'dflt' > ) ]
Lookup: 3 0 0 "'aalt' Access All Alternates lookup 1" { "'aalt' Access All Alternates lookup 1 subtable"  } ['aalt' ('DFLT' <'dflt' > 'cyrl' <'dflt' > 'grek' <'dflt' > 'hang' <'dflt' > 'jamo' <'dflt' > 'latn' <'dflt' > ) ]
Lookup: 1 0 0 "'locl' Localized Forms in Latin lookup 2" { "'locl' Localized Forms in Latin lookup 2 subtable"  } ['locl' ('latn' <'MOL ' > ) ]
Lookup: 1 0 0 "'locl' Localized Forms in Latin lookup 3" { "'locl' Localized Forms in Latin lookup 3 subtable"  } ['locl' ('latn' <'ROM ' > ) ]

StartChar: exclam
Encoding: 33 33 4
Width: 620
GlyphClass: 2
Flags: W
LayerCount: 2
Fore
SplineSet
142 -6 m 1,0,-1
 142 294 l 1,1,-1
 478 294 l 1,2,-1
 478 -6 l 1,3,-1
 142 -6 l 1,0,-1
438 420 m 1,4,-1
 184 420 l 1,5,-1
 166 1480 l 1,6,-1
 454 1480 l 1,7,-1
 438 420 l 1,4,-1
EndSplineSet
EndChar

StartChar: quotedbl
Encoding: 34 34 5
Width: 1150
GlyphClass: 2
Flags: W
LayerCount: 2
Fore
SplineSet
594 1018 m 1,0,-1
 780 1628 l 1,1,-1
 1066 1628 l 1,2,-1
 808 1018 l 1,3,-1
 594 1018 l 1,0,-1
134 1018 m 1,4,-1
 318 1628 l 1,5,-1
 604 1628 l 1,6,-1
 346 1018 l 1,7,-1
 134 1018 l 1,4,-1
EndSplineSet
EndChar

StartChar: numbersign
Encoding: 35 35 6
Width: 1482
GlyphClass: 2
Flags: W
LayerCount: 2
Fore
SplineSet
100 356 m 1,0,-1
 100 558 l 1,1,-1
 342 558 l 1,2,-1
 382 874 l 1,3,-1
 162 874 l 1,4,-1
 162 1076 l 1,5,-1
 410 1076 l 1,6,-1
 456 1432 l 1,7,-1
 696 1432 l 1,8,-1
 650 1076 l 1,9,-1
 930 1076 l 1,10,-1
 976 1432 l 1,11,-1
 1218 1432 l 1,12,-1
 1170 1076 l 1,13,-1
 1382 1076 l 1,14,-1
 1382 874 l 1,15,-1
 1144 874 l 1,16,-1
 1104 558 l 1,17,-1
 1322 558 l 1,18,-1
 1322 356 l 1,19,-1
 1078 356 l 1,20,-1
 1032 4 l 1,21,-1
 788 4 l 1,22,-1
 836 356 l 1,23,-1
 556 356 l 1,24,-1
 510 4 l 1,25,-1
 266 4 l 1,26,-1
 314 356 l 1,27,-1
 100 356 l 1,0,-1
582 558 m 1,28,-1
 862 558 l 1,29,-1
 904 874 l 1,30,-1
 622 874 l 1,31,-1
 582 558 l 1,28,-1
EndSplineSet
EndChar

StartChar: dollar
Encoding: 36 36 7
Width: 1164
GlyphClass: 2
Flags: W
LayerCount: 2
Fore
SplineSet
78 320 m 1,0,-1
 276 410 l 1,1,2
 394 224 394 224 598 224 c 0,3,4
 682 224 682 224 742 274 c 128,-1,5
 802 324 802 324 802 410 c 0,6,7
 802 458 802 458 783 492 c 128,-1,8
 764 526 764 526 720 553 c 128,-1,9
 676 580 676 580 632 600 c 128,-1,10
 588 620 588 620 507 654 c 128,-1,11
 426 688 426 688 364 720 c 0,12,13
 128 840 128 840 128 1078 c 0,14,15
 128 1198 128 1198 212 1309 c 128,-1,16
 296 1420 296 1420 466 1454 c 1,17,-1
 466 1616 l 1,18,-1
 712 1616 l 1,19,-1
 712 1452 l 1,20,21
 820 1440 820 1440 919 1356 c 128,-1,22
 1018 1272 1018 1272 1056 1184 c 1,23,-1
 852 1086 l 1,24,25
 748 1244 748 1244 588 1244 c 0,26,27
 502 1244 502 1244 449 1196 c 128,-1,28
 396 1148 396 1148 396 1076 c 0,29,30
 396 1040 396 1040 410 1012 c 128,-1,31
 424 984 424 984 442 965 c 128,-1,32
 460 946 460 946 501 923 c 128,-1,33
 542 900 542 900 575 886 c 128,-1,34
 608 872 608 872 676 845 c 128,-1,35
 744 818 744 818 790 798 c 0,36,37
 1074 674 1074 674 1074 434 c 0,38,39
 1074 268 1074 268 975 156 c 128,-1,40
 876 44 876 44 712 10 c 1,41,-1
 712 -140 l 1,42,-1
 466 -140 l 1,43,-1
 466 16 l 1,44,45
 352 30 352 30 240 118 c 128,-1,46
 128 206 128 206 78 320 c 1,0,-1
EndSplineSet
EndChar

StartChar: percent
Encoding: 37 37 8
Width: 2020
GlyphClass: 2
Flags: W
LayerCount: 2
Fore
SplineSet
1332 346 m 0,0,1
 1332 260 1332 260 1380 212 c 128,-1,2
 1428 164 1428 164 1494 164 c 0,3,4
 1562 164 1562 164 1608 212 c 128,-1,5
 1654 260 1654 260 1654 346 c 0,6,7
 1654 428 1654 428 1609 477 c 128,-1,8
 1564 526 1564 526 1494 526 c 0,9,10
 1426 526 1426 526 1379 478 c 128,-1,11
 1332 430 1332 430 1332 346 c 0,0,1
366 1124 m 0,12,13
 366 1038 366 1038 414 991 c 128,-1,14
 462 944 462 944 528 944 c 0,15,16
 598 944 598 944 643 993 c 128,-1,17
 688 1042 688 1042 688 1124 c 0,18,19
 688 1208 688 1208 643 1257 c 128,-1,20
 598 1306 598 1306 528 1306 c 256,21,22
 458 1306 458 1306 412 1257 c 128,-1,23
 366 1208 366 1208 366 1124 c 0,12,13
362 -12 m 1,24,-1
 1392 1482 l 1,25,-1
 1664 1482 l 1,26,-1
 630 -12 l 1,27,-1
 362 -12 l 1,24,-1
1086 346 m 0,28,29
 1086 508 1086 508 1199 616 c 128,-1,30
 1312 724 1312 724 1494 724 c 256,31,32
 1676 724 1676 724 1789 616 c 128,-1,33
 1902 508 1902 508 1902 346 c 0,34,35
 1902 178 1902 178 1786 73 c 128,-1,36
 1670 -32 1670 -32 1494 -32 c 0,37,38
 1312 -32 1312 -32 1199 75 c 128,-1,39
 1086 182 1086 182 1086 346 c 0,28,29
120 1124 m 0,40,41
 120 1286 120 1286 233 1394 c 128,-1,42
 346 1502 346 1502 528 1502 c 256,43,44
 710 1502 710 1502 822 1395 c 128,-1,45
 934 1288 934 1288 934 1124 c 0,46,47
 934 958 934 958 820 852 c 128,-1,48
 706 746 706 746 528 746 c 0,49,50
 346 746 346 746 233 853 c 128,-1,51
 120 960 120 960 120 1124 c 0,40,41
EndSplineSet
EndChar

StartChar: ampersand
Encoding: 38 38 9
Width: 1374
GlyphClass: 2
Flags: W
LayerCount: 2
Fore
SplineSet
352 398 m 0,0,1
 352 302 352 302 415 246 c 128,-1,2
 478 190 478 190 578 190 c 0,3,4
 704 190 704 190 812 298 c 1,5,-1
 516 682 l 1,6,7
 352 554 352 554 352 398 c 0,0,1
84 394 m 0,8,9
 84 666 84 666 388 864 c 1,10,-1
 372 886 l 2,11,12
 354 910 354 910 351 913 c 128,-1,13
 348 916 348 916 333 937 c 128,-1,14
 318 958 318 958 314 967 c 128,-1,15
 310 976 310 976 298 996 c 128,-1,16
 286 1016 286 1016 283 1028 c 128,-1,17
 280 1040 280 1040 273 1059 c 128,-1,18
 266 1078 266 1078 264 1095 c 128,-1,19
 262 1112 262 1112 262 1130 c 0,20,21
 262 1284 262 1284 371 1374 c 128,-1,22
 480 1464 480 1464 662 1464 c 0,23,24
 824 1464 824 1464 934 1383 c 128,-1,25
 1044 1302 1044 1302 1092 1182 c 1,26,-1
 898 1100 l 1,27,28
 812 1244 812 1244 686 1244 c 0,29,30
 614 1244 614 1244 574 1212 c 128,-1,31
 534 1180 534 1180 534 1122 c 0,32,33
 534 1102 534 1102 543 1077 c 128,-1,34
 552 1052 552 1052 575 1015 c 128,-1,35
 598 978 598 978 619 945 c 128,-1,36
 640 912 640 912 682 857 c 128,-1,37
 724 802 724 802 757 761 c 128,-1,38
 790 720 790 720 848 646 c 128,-1,39
 906 572 906 572 944 522 c 1,40,41
 976 606 976 606 1000 742 c 1,42,-1
 1240 702 l 1,43,44
 1206 472 1206 472 1106 310 c 1,45,-1
 1354 0 l 1,46,-1
 1038 0 l 1,47,-1
 954 104 l 1,48,49
 800 -34 800 -34 578 -34 c 0,50,51
 346 -34 346 -34 215 90 c 128,-1,52
 84 214 84 214 84 394 c 0,8,9
EndSplineSet
EndChar

StartChar: quotesingle
Encoding: 39 39 10
Width: 718
GlyphClass: 2
Flags: W
LayerCount: 2
Fore
SplineSet
168 1018 m 1,0,-1
 354 1628 l 1,1,-1
 640 1628 l 1,2,-1
 382 1018 l 1,3,-1
 168 1018 l 1,0,-1
EndSplineSet
EndChar

StartChar: parenleft
Encoding: 40 40 11
Width: 884
GlyphClass: 2
Flags: W
LayerCount: 2
Fore
SplineSet
236 708 m 0,0,1
 236 1248 236 1248 576 1704 c 1,2,-1
 766 1590 l 2,3,4
 764 1584 764 1584 734 1535 c 128,-1,5
 704 1486 704 1486 697 1473 c 128,-1,6
 690 1460 690 1460 662 1411 c 128,-1,7
 634 1362 634 1362 625 1338 c 128,-1,8
 616 1314 616 1314 593 1260 c 128,-1,9
 570 1206 570 1206 561 1170 c 128,-1,10
 552 1134 552 1134 536 1075 c 128,-1,11
 520 1016 520 1016 514 964 c 128,-1,12
 508 912 508 912 502 845 c 128,-1,13
 496 778 496 778 496 708 c 0,14,15
 496 432 496 432 564 233 c 128,-1,16
 632 34 632 34 766 -178 c 1,17,-1
 576 -290 l 1,18,19
 410 -60 410 -60 323 179 c 128,-1,20
 236 418 236 418 236 708 c 0,0,1
EndSplineSet
Substitution2: "'sups' Superscript lookup 5 subtable" uni207D
Substitution2: "'aalt' Access All Alternates lookup 0 subtable" uni207D
EndChar

StartChar: parenright
Encoding: 41 41 12
Width: 884
GlyphClass: 2
Flags: W
LayerCount: 2
Fore
SplineSet
116 -178 m 1,0,1
 262 44 262 44 325 249 c 128,-1,2
 388 454 388 454 388 706 c 0,3,4
 388 860 388 860 367 991 c 128,-1,5
 346 1122 346 1122 303 1232 c 128,-1,6
 260 1342 260 1342 220 1415 c 128,-1,7
 180 1488 180 1488 116 1590 c 1,8,-1
 310 1704 l 1,9,10
 466 1494 466 1494 557 1256 c 128,-1,11
 648 1018 648 1018 648 706 c 0,12,13
 648 408 648 408 560 170 c 128,-1,14
 472 -68 472 -68 310 -290 c 1,15,-1
 116 -178 l 1,0,1
EndSplineSet
Substitution2: "'sups' Superscript lookup 5 subtable" uni207E
Substitution2: "'aalt' Access All Alternates lookup 0 subtable" uni207E
EndChar

StartChar: asterisk
Encoding: 42 42 13
Width: 1114
GlyphClass: 2
Flags: W
LayerCount: 2
Fore
SplineSet
32 792 m 1,0,-1
 122 1006 l 1,1,-1
 450 878 l 1,2,-1
 438 1228 l 1,3,-1
 676 1228 l 1,4,-1
 664 878 l 1,5,-1
 992 1006 l 1,6,-1
 1080 792 l 1,7,-1
 712 688 l 1,8,-1
 996 386 l 1,9,-1
 794 236 l 1,10,-1
 556 572 l 1,11,-1
 318 236 l 1,12,-1
 116 386 l 1,13,-1
 402 688 l 1,14,-1
 32 792 l 1,0,-1
EndSplineSet
EndChar

StartChar: plus
Encoding: 43 43 14
Width: 1114
GlyphClass: 2
Flags: W
LayerCount: 2
Fore
SplineSet
52 608 m 1,0,-1
 52 840 l 1,1,-1
 426 840 l 1,2,-1
 426 1220 l 1,3,-1
 686 1220 l 1,4,-1
 686 840 l 1,5,-1
 1060 840 l 1,6,-1
 1060 608 l 1,7,-1
 686 608 l 1,8,-1
 686 214 l 1,9,-1
 426 214 l 1,10,-1
 426 608 l 1,11,-1
 52 608 l 1,0,-1
EndSplineSet
Substitution2: "'sups' Superscript lookup 5 subtable" uni207A
Substitution2: "'aalt' Access All Alternates lookup 0 subtable" uni207A
EndChar

StartChar: comma
Encoding: 44 44 15
Width: 550
GlyphClass: 2
Flags: W
LayerCount: 2
Fore
SplineSet
-2 -304 m 1,0,-1
 182 304 l 1,1,-1
 472 304 l 1,2,-1
 210 -304 l 1,3,-1
 -2 -304 l 1,0,-1
EndSplineSet
EndChar

StartChar: hyphen
Encoding: 45 45 16
Width: 780
GlyphClass: 2
Flags: W
LayerCount: 2
Fore
SplineSet
68 608 m 1,0,-1
 68 840 l 1,1,-1
 712 840 l 1,2,-1
 712 608 l 1,3,-1
 68 608 l 1,0,-1
EndSplineSet
EndChar

StartChar: period
Encoding: 46 46 17
Width: 550
GlyphClass: 2
Flags: W
LayerCount: 2
Fore
SplineSet
108 0 m 1,0,-1
 108 304 l 1,1,-1
 442 304 l 1,2,-1
 442 0 l 1,3,-1
 108 0 l 1,0,-1
EndSplineSet
EndChar

StartChar: slash
Encoding: 47 47 18
Width: 778
GlyphClass: 2
Flags: W
LayerCount: 2
Fore
SplineSet
-32 -106 m 1,0,-1
 536 1566 l 1,1,-1
 808 1566 l 1,2,-1
 242 -106 l 1,3,-1
 -32 -106 l 1,0,-1
EndSplineSet
EndChar

StartChar: zero
Encoding: 48 48 19
Width: 1100
GlyphClass: 2
Flags: W
LayerCount: 2
Fore
SplineSet
340 734 m 256,0,1
 340 190 340 190 550 190 c 0,2,3
 758 190 758 190 758 734 c 256,4,5
 758 1278 758 1278 548 1278 c 0,6,7
 340 1278 340 1278 340 734 c 256,0,1
60 734 m 0,8,9
 60 912 60 912 91 1051 c 128,-1,10
 122 1190 122 1190 170 1273 c 128,-1,11
 218 1356 218 1356 285 1410 c 128,-1,12
 352 1464 352 1464 416 1483 c 128,-1,13
 480 1502 480 1502 548 1502 c 0,14,15
 786 1502 786 1502 913 1298 c 128,-1,16
 1040 1094 1040 1094 1040 734 c 0,17,18
 1040 378 1040 378 913 172 c 128,-1,19
 786 -34 786 -34 550 -34 c 0,20,21
 486 -34 486 -34 423 -16 c 128,-1,22
 360 2 360 2 293 54 c 128,-1,23
 226 106 226 106 176 188 c 128,-1,24
 126 270 126 270 93 411 c 128,-1,25
 60 552 60 552 60 734 c 0,8,9
EndSplineSet
EndChar

StartChar: one
Encoding: 49 49 20
Width: 1100
GlyphClass: 2
Flags: W
LayerCount: 2
Fore
SplineSet
140 1010 m 1,0,-1
 140 1214 l 1,1,-1
 210 1214 l 2,2,3
 374 1214 374 1214 444 1280 c 128,-1,4
 514 1346 514 1346 514 1446 c 2,5,-1
 514 1470 l 1,6,-1
 752 1470 l 1,7,-1
 752 0 l 1,8,-1
 472 0 l 1,9,-1
 472 1010 l 1,10,-1
 140 1010 l 1,0,-1
EndSplineSet
Substitution2: "'subs' Subscript lookup 6 subtable" uni2081
Substitution2: "'sups' Superscript lookup 5 subtable" onesuperior
Substitution2: "'sinf' Scientific Inferiors lookup 4 subtable" uni2081
AlternateSubs2: "'aalt' Access All Alternates lookup 1 subtable" uni2081 onesuperior
EndChar

StartChar: two
Encoding: 50 50 21
Width: 1100
GlyphClass: 2
Flags: W
LayerCount: 2
Fore
SplineSet
70 1098 m 1,0,1
 112 1286 112 1286 232 1394 c 128,-1,2
 352 1502 352 1502 542 1502 c 0,3,4
 744 1502 744 1502 872 1386 c 128,-1,5
 1000 1270 1000 1270 1000 1074 c 0,6,7
 1000 946 1000 946 942 844 c 128,-1,8
 884 742 884 742 776 636 c 0,9,10
 750 610 750 610 683 546 c 128,-1,11
 616 482 616 482 581 445 c 128,-1,12
 546 408 546 408 498 346 c 128,-1,13
 450 284 450 284 418 222 c 1,14,-1
 994 222 l 1,15,-1
 994 0 l 1,16,-1
 86 0 l 1,17,18
 86 92 86 92 115 183 c 128,-1,19
 144 274 144 274 181 341 c 128,-1,20
 218 408 218 408 288 489 c 128,-1,21
 358 570 358 570 404 617 c 128,-1,22
 450 664 450 664 532 742 c 0,23,24
 552 762 552 762 564 770 c 0,25,26
 718 916 718 916 718 1080 c 0,27,28
 718 1170 718 1170 668 1224 c 128,-1,29
 618 1278 618 1278 538 1278 c 0,30,31
 358 1278 358 1278 300 1028 c 1,32,-1
 70 1098 l 1,0,1
EndSplineSet
Substitution2: "'subs' Subscript lookup 6 subtable" uni2082
Substitution2: "'sups' Superscript lookup 5 subtable" twosuperior
Substitution2: "'sinf' Scientific Inferiors lookup 4 subtable" uni2082
AlternateSubs2: "'aalt' Access All Alternates lookup 1 subtable" uni2082 twosuperior
EndChar

StartChar: three
Encoding: 51 51 22
Width: 1100
GlyphClass: 2
Flags: W
LayerCount: 2
Fore
SplineSet
44 310 m 1,0,-1
 258 388 l 1,1,2
 342 190 342 190 528 190 c 0,3,4
 624 190 624 190 691 252 c 128,-1,5
 758 314 758 314 758 424 c 0,6,7
 758 524 758 524 685 589 c 128,-1,8
 612 654 612 654 494 654 c 0,9,10
 426 654 426 654 356 646 c 1,11,-1
 356 868 l 1,12,13
 404 864 404 864 486 864 c 0,14,15
 578 864 578 864 642 921 c 128,-1,16
 706 978 706 978 706 1080 c 0,17,18
 706 1166 706 1166 652 1222 c 128,-1,19
 598 1278 598 1278 516 1278 c 0,20,21
 364 1278 364 1278 296 1072 c 1,22,-1
 74 1140 l 1,23,24
 112 1302 112 1302 232 1402 c 128,-1,25
 352 1502 352 1502 530 1502 c 0,26,27
 738 1502 738 1502 862 1390 c 128,-1,28
 986 1278 986 1278 986 1104 c 0,29,30
 986 996 986 996 931 908 c 128,-1,31
 876 820 876 820 794 774 c 1,32,33
 890 740 890 740 964 649 c 128,-1,34
 1038 558 1038 558 1038 424 c 0,35,36
 1038 210 1038 210 900 89 c 128,-1,37
 762 -32 762 -32 530 -32 c 0,38,39
 342 -32 342 -32 212 68 c 128,-1,40
 82 168 82 168 44 310 c 1,0,-1
EndSplineSet
Substitution2: "'subs' Subscript lookup 6 subtable" uni2083
Substitution2: "'sups' Superscript lookup 5 subtable" threesuperior
Substitution2: "'sinf' Scientific Inferiors lookup 4 subtable" uni2083
AlternateSubs2: "'aalt' Access All Alternates lookup 1 subtable" uni2083 threesuperior
EndChar

StartChar: four
Encoding: 52 52 23
Width: 1100
GlyphClass: 2
Flags: W
LayerCount: 2
Fore
SplineSet
32 516 m 1,0,-1
 668 1470 l 1,1,-1
 902 1470 l 1,2,-1
 902 520 l 1,3,-1
 1072 520 l 1,4,-1
 1072 298 l 1,5,-1
 902 298 l 1,6,-1
 902 0 l 5,7,-1
 632 0 l 5,8,-1
 632 298 l 1,9,-1
 32 298 l 1,10,-1
 32 516 l 1,0,-1
286 520 m 1,11,-1
 632 520 l 1,12,-1
 632 880 l 2,13,14
 632 974 632 974 638 1062 c 1,15,-1
 630 1062 l 1,16,17
 545 915 545 915 538 904 c 2,18,-1
 286 520 l 1,11,-1
EndSplineSet
Substitution2: "'subs' Subscript lookup 6 subtable" uni2084
Substitution2: "'sups' Superscript lookup 5 subtable" uni2074
Substitution2: "'sinf' Scientific Inferiors lookup 4 subtable" uni2084
AlternateSubs2: "'aalt' Access All Alternates lookup 1 subtable" uni2084 uni2074
EndChar

StartChar: five
Encoding: 53 53 24
Width: 1100
GlyphClass: 2
Flags: W
LayerCount: 2
Fore
SplineSet
60 284 m 1,0,-1
 284 366 l 1,1,2
 314 290 314 290 375 240 c 128,-1,3
 436 190 436 190 508 190 c 0,4,5
 614 190 614 190 679 264 c 128,-1,6
 744 338 744 338 744 462 c 0,7,8
 744 580 744 580 677 659 c 128,-1,9
 610 738 610 738 506 738 c 0,10,11
 378 738 378 738 280 600 c 1,12,-1
 108 666 l 1,13,-1
 188 1470 l 1,14,-1
 946 1470 l 1,15,-1
 946 1246 l 1,16,-1
 436 1246 l 1,17,-1
 396 898 l 1,18,19
 480 958 480 958 600 958 c 0,20,21
 788 958 788 958 906 826 c 128,-1,22
 1024 694 1024 694 1024 470 c 0,23,24
 1024 374 1024 374 995 288 c 128,-1,25
 966 202 966 202 908 128 c 128,-1,26
 850 54 850 54 750 11 c 128,-1,27
 650 -32 650 -32 520 -32 c 0,28,29
 346 -32 346 -32 231 54 c 128,-1,30
 116 140 116 140 60 284 c 1,0,-1
EndSplineSet
EndChar

StartChar: six
Encoding: 54 54 25
Width: 1100
GlyphClass: 2
Flags: W
LayerCount: 2
Fore
SplineSet
350 472 m 0,0,1
 350 338 350 338 408 264 c 128,-1,2
 466 190 466 190 560 190 c 0,3,4
 652 190 652 190 708 263 c 128,-1,5
 764 336 764 336 764 472 c 256,6,7
 764 608 764 608 708 681 c 128,-1,8
 652 754 652 754 558 754 c 256,9,10
 464 754 464 754 407 677 c 128,-1,11
 350 600 350 600 350 472 c 0,0,1
68 672 m 0,12,13
 68 904 68 904 121 1086 c 128,-1,14
 174 1268 174 1268 298 1385 c 128,-1,15
 422 1502 422 1502 604 1502 c 0,16,17
 904 1502 904 1502 1036 1186 c 1,18,-1
 822 1114 l 1,19,20
 740 1278 740 1278 604 1278 c 0,21,22
 442 1278 442 1278 374 1018 c 0,23,24
 350 924 350 924 344 854 c 1,25,26
 430 976 430 976 596 976 c 0,27,28
 794 976 794 976 918 834 c 128,-1,29
 1042 692 1042 692 1042 472 c 0,30,31
 1042 250 1042 250 916 109 c 128,-1,32
 790 -32 790 -32 568 -32 c 0,33,34
 334 -32 334 -32 212 124 c 0,35,36
 68 302 68 302 68 672 c 0,12,13
EndSplineSet
EndChar

StartChar: seven
Encoding: 55 55 26
Width: 1100
GlyphClass: 2
Flags: W
LayerCount: 2
Fore
SplineSet
78 1240 m 1,0,-1
 78 1470 l 1,1,-1
 1020 1470 l 1,2,-1
 1020 1286 l 1,3,4
 690 756 690 756 512 0 c 1,5,-1
 230 0 l 1,6,7
 350 630 350 630 702 1240 c 1,8,-1
 78 1240 l 1,0,-1
EndSplineSet
EndChar

StartChar: eight
Encoding: 56 56 27
Width: 1100
GlyphClass: 2
Flags: W
LayerCount: 2
Fore
SplineSet
378 1080 m 0,0,1
 378 990 378 990 426 934 c 128,-1,2
 474 878 474 878 548 878 c 0,3,4
 626 878 626 878 673 935 c 128,-1,5
 720 992 720 992 720 1080 c 0,6,7
 720 1164 720 1164 674 1221 c 128,-1,8
 628 1278 628 1278 548 1278 c 256,9,10
 468 1278 468 1278 423 1221 c 128,-1,11
 378 1164 378 1164 378 1080 c 0,0,1
52 408 m 0,12,13
 52 552 52 552 128 641 c 128,-1,14
 204 730 204 730 300 772 c 1,15,16
 96 886 96 886 96 1092 c 0,17,18
 96 1270 96 1270 226 1386 c 128,-1,19
 356 1502 356 1502 548 1502 c 0,20,21
 744 1502 744 1502 873 1386 c 128,-1,22
 1002 1270 1002 1270 1002 1092 c 0,23,24
 1002 888 1002 888 798 772 c 1,25,26
 902 726 902 726 975 636 c 128,-1,27
 1048 546 1048 546 1048 408 c 0,28,29
 1048 210 1048 210 909 89 c 128,-1,30
 770 -32 770 -32 548 -32 c 0,31,32
 342 -32 342 -32 197 83 c 128,-1,33
 52 198 52 198 52 408 c 0,12,13
334 422 m 0,34,35
 334 322 334 322 393 256 c 128,-1,36
 452 190 452 190 548 190 c 256,37,38
 644 190 644 190 705 257 c 128,-1,39
 766 324 766 324 766 422 c 0,40,41
 766 516 766 516 706 587 c 128,-1,42
 646 658 646 658 548 658 c 0,43,44
 452 658 452 658 393 588 c 128,-1,45
 334 518 334 518 334 422 c 0,34,35
EndSplineSet
EndChar

StartChar: nine
Encoding: 57 57 28
Width: 1100
GlyphClass: 2
Flags: W
LayerCount: 2
Fore
SplineSet
332 1002 m 0,0,1
 332 874 332 874 388 799 c 128,-1,2
 444 724 444 724 534 724 c 0,3,4
 626 724 626 724 682 802 c 128,-1,5
 738 880 738 880 738 1004 c 0,6,7
 738 1122 738 1122 684 1200 c 128,-1,8
 630 1278 630 1278 534 1278 c 0,9,10
 442 1278 442 1278 387 1200 c 128,-1,11
 332 1122 332 1122 332 1002 c 0,0,1
52 282 m 1,12,-1
 272 352 l 1,13,14
 354 190 354 190 488 190 c 0,15,16
 560 190 560 190 612 229 c 128,-1,17
 664 268 664 268 692 335 c 128,-1,18
 720 402 720 402 734 472 c 128,-1,19
 748 542 748 542 750 620 c 1,20,21
 664 504 664 504 496 504 c 0,22,23
 310 504 310 504 184 639 c 128,-1,24
 58 774 58 774 58 1000 c 0,25,26
 58 1224 58 1224 191 1363 c 128,-1,27
 324 1502 324 1502 534 1502 c 0,28,29
 712 1502 712 1502 830 1390 c 128,-1,30
 948 1278 948 1278 990 1092 c 0,31,32
 1018 974 1018 974 1018 802 c 0,33,34
 1018 398 1018 398 887 183 c 128,-1,35
 756 -32 756 -32 486 -32 c 0,36,37
 330 -32 330 -32 213 63 c 128,-1,38
 96 158 96 158 52 282 c 1,12,-1
EndSplineSet
EndChar

StartChar: colon
Encoding: 58 58 29
Width: 550
GlyphClass: 2
Flags: W
LayerCount: 2
Fore
SplineSet
108 0 m 1,0,-1
 108 306 l 1,1,-1
 442 306 l 1,2,-1
 442 0 l 1,3,-1
 108 0 l 1,0,-1
108 790 m 1,4,-1
 108 1096 l 1,5,-1
 442 1096 l 1,6,-1
 442 790 l 1,7,-1
 108 790 l 1,4,-1
EndSplineSet
EndChar

StartChar: semicolon
Encoding: 59 59 30
Width: 550
GlyphClass: 2
Flags: W
LayerCount: 2
Fore
SplineSet
-2 -304 m 1,0,-1
 182 306 l 1,1,-1
 472 306 l 1,2,-1
 210 -304 l 1,3,-1
 -2 -304 l 1,0,-1
120 790 m 1,4,-1
 120 1096 l 1,5,-1
 456 1096 l 1,6,-1
 456 790 l 1,7,-1
 120 790 l 1,4,-1
EndSplineSet
EndChar

StartChar: less
Encoding: 60 60 31
Width: 1114
GlyphClass: 2
Flags: W
LayerCount: 2
Fore
SplineSet
74 592 m 1,0,-1
 74 832 l 1,1,-1
 878 1438 l 1,2,-1
 1020 1240 l 1,3,-1
 328 714 l 1,4,-1
 1020 184 l 1,5,-1
 878 -12 l 1,6,-1
 74 592 l 1,0,-1
EndSplineSet
EndChar

StartChar: equal
Encoding: 61 61 32
Width: 1114
GlyphClass: 2
Flags: W
LayerCount: 2
Fore
SplineSet
96 402 m 1,0,-1
 96 632 l 1,1,-1
 1018 632 l 1,2,-1
 1018 402 l 1,3,-1
 96 402 l 1,0,-1
96 816 m 1,4,-1
 96 1050 l 1,5,-1
 1018 1050 l 1,6,-1
 1018 816 l 1,7,-1
 96 816 l 1,4,-1
EndSplineSet
Substitution2: "'sups' Superscript lookup 5 subtable" uni207C
Substitution2: "'aalt' Access All Alternates lookup 0 subtable" uni207C
EndChar

StartChar: greater
Encoding: 62 62 33
Width: 1114
GlyphClass: 2
Flags: W
LayerCount: 2
Fore
SplineSet
234 -12 m 1,0,-1
 94 184 l 1,1,-1
 782 714 l 1,2,-1
 94 1240 l 1,3,-1
 234 1438 l 1,4,-1
 1040 832 l 1,5,-1
 1040 592 l 1,6,-1
 234 -12 l 1,0,-1
EndSplineSet
EndChar

StartChar: question
Encoding: 63 63 34
Width: 1154
GlyphClass: 2
Flags: W
LayerCount: 2
Fore
SplineSet
116 1144 m 1,0,1
 158 1298 158 1298 281 1405 c 128,-1,2
 404 1512 404 1512 588 1512 c 0,3,4
 788 1512 788 1512 913 1396 c 128,-1,5
 1038 1280 1038 1280 1038 1090 c 0,6,7
 1038 1002 1038 1002 1004 932 c 128,-1,8
 970 862 970 862 921 815 c 128,-1,9
 872 768 872 768 824 724 c 128,-1,10
 776 680 776 680 742 619 c 128,-1,11
 708 558 708 558 708 484 c 2,12,-1
 708 416 l 1,13,-1
 434 416 l 1,14,-1
 434 504 l 2,15,16
 434 594 434 594 467 668 c 128,-1,17
 500 742 500 742 548 790 c 128,-1,18
 596 838 596 838 643 882 c 128,-1,19
 690 926 690 926 723 982 c 128,-1,20
 756 1038 756 1038 756 1102 c 0,21,22
 756 1184 756 1184 711 1233 c 128,-1,23
 666 1282 666 1282 592 1282 c 0,24,25
 438 1282 438 1282 358 1064 c 1,26,-1
 116 1144 l 1,0,1
404 -6 m 1,27,-1
 404 294 l 1,28,-1
 738 294 l 1,29,-1
 738 -6 l 1,30,-1
 404 -6 l 1,27,-1
EndSplineSet
EndChar

StartChar: at
Encoding: 64 64 35
Width: 1860
GlyphClass: 2
Flags: W
LayerCount: 2
Fore
SplineSet
92 692 m 0,0,1
 92 1064 92 1064 337 1304 c 128,-1,2
 582 1544 582 1544 968 1544 c 0,3,4
 1320 1544 1320 1544 1546 1331 c 128,-1,5
 1772 1118 1772 1118 1772 796 c 0,6,7
 1772 672 1772 672 1743 572 c 128,-1,8
 1714 472 1714 472 1670 409 c 128,-1,9
 1626 346 1626 346 1567 304 c 128,-1,10
 1508 262 1508 262 1449 244 c 128,-1,11
 1390 226 1390 226 1330 226 c 0,12,13
 1250 226 1250 226 1190 270 c 128,-1,14
 1130 314 1130 314 1112 382 c 1,15,-1
 1110 382 l 1,16,17
 1084 324 1084 324 1012 276 c 128,-1,18
 940 228 940 228 852 228 c 0,19,20
 706 228 706 228 607 339 c 128,-1,21
 508 450 508 450 508 630 c 0,22,23
 508 872 508 872 630 1009 c 128,-1,24
 752 1146 752 1146 924 1146 c 0,25,26
 988 1146 988 1146 1038 1118 c 128,-1,27
 1088 1090 1088 1090 1114 1060 c 1,28,-1
 1120 1134 l 1,29,-1
 1318 1134 l 1,30,-1
 1286 538 l 2,31,32
 1286 528 1286 528 1286 520 c 0,33,34
 1286 424 1286 424 1346 424 c 0,35,36
 1420 424 1420 424 1481 521 c 128,-1,37
 1542 618 1542 618 1542 784 c 0,38,39
 1542 1036 1542 1036 1385 1195 c 128,-1,40
 1228 1354 1228 1354 968 1354 c 0,41,42
 684 1354 684 1354 504 1165 c 128,-1,43
 324 976 324 976 324 692 c 0,44,45
 324 386 324 386 498 209 c 128,-1,46
 672 32 672 32 950 32 c 0,47,48
 1154 32 1154 32 1356 90 c 1,49,-1
 1396 -90 l 1,50,51
 1204 -158 1204 -158 950 -158 c 0,52,53
 556 -158 556 -158 324 77 c 128,-1,54
 92 312 92 312 92 692 c 0,0,1
752 634 m 0,55,56
 752 556 752 556 789 497 c 128,-1,57
 826 438 826 438 888 438 c 0,58,59
 958 438 958 438 1016 521 c 128,-1,60
 1074 604 1074 604 1074 796 c 0,61,62
 1074 868 1074 868 1041 910 c 128,-1,63
 1008 952 1008 952 946 952 c 0,64,65
 872 952 872 952 812 863 c 128,-1,66
 752 774 752 774 752 634 c 0,55,56
EndSplineSet
EndChar

StartChar: A
Encoding: 65 65 36
Width: 1328
GlyphClass: 2
Flags: W
LayerCount: 2
Fore
SplineSet
462 564 m 1,0,-1
 866 564 l 1,1,-1
 758 912 l 2,2,3
 722 1032 722 1032 670 1206 c 1,4,-1
 660 1206 l 1,5,6
 644 1154 644 1154 614 1054 c 128,-1,7
 584 954 584 954 572 912 c 2,8,-1
 462 564 l 1,0,-1
-8 0 m 1,9,-1
 518 1470 l 1,10,-1
 810 1470 l 1,11,-1
 1336 0 l 1,12,-1
 1048 0 l 1,13,-1
 936 346 l 1,14,-1
 392 346 l 1,15,-1
 282 0 l 1,16,-1
 -8 0 l 1,9,-1
EndSplineSet
Substitution2: "Single Substitution lookup 12 subtable" ordfeminine
EndChar

StartChar: B
Encoding: 66 66 37
Width: 1322
GlyphClass: 2
Flags: W
LayerCount: 2
Fore
SplineSet
154 0 m 1,0,-1
 154 1470 l 1,1,-1
 716 1470 l 2,2,3
 958 1470 958 1470 1076 1366 c 128,-1,4
 1194 1262 1194 1262 1194 1080 c 0,5,6
 1194 976 1194 976 1147 899 c 128,-1,7
 1100 822 1100 822 1022 780 c 1,8,9
 1110 746 1110 746 1178 656 c 128,-1,10
 1246 566 1246 566 1246 432 c 0,11,12
 1246 244 1246 244 1125 122 c 128,-1,13
 1004 0 1004 0 788 0 c 2,14,-1
 154 0 l 1,0,-1
426 232 m 1,15,-1
 746 232 l 2,16,17
 834 232 834 232 899 284 c 128,-1,18
 964 336 964 336 964 432 c 0,19,20
 964 524 964 524 906 582 c 128,-1,21
 848 640 848 640 740 640 c 2,22,-1
 426 640 l 1,23,-1
 426 232 l 1,15,-1
426 872 m 1,24,-1
 694 872 l 2,25,26
 792 872 792 872 852 917 c 128,-1,27
 912 962 912 962 912 1058 c 0,28,29
 912 1236 912 1236 700 1236 c 2,30,-1
 426 1236 l 1,31,-1
 426 872 l 1,24,-1
EndSplineSet
EndChar

StartChar: C
Encoding: 67 67 38
Width: 1332
GlyphClass: 2
Flags: W
LayerCount: 2
Fore
SplineSet
72 736 m 0,0,1
 72 1088 72 1088 255 1295 c 128,-1,2
 438 1502 438 1502 730 1502 c 0,3,4
 922 1502 922 1502 1059 1398 c 128,-1,5
 1196 1294 1196 1294 1262 1138 c 1,6,-1
 1028 1060 l 1,7,8
 910 1270 910 1270 726 1270 c 0,9,10
 556 1270 556 1270 454 1124 c 128,-1,11
 352 978 352 978 352 736 c 0,12,13
 352 490 352 490 454 345 c 128,-1,14
 556 200 556 200 726 200 c 0,15,16
 838 200 838 200 926 270 c 128,-1,17
 1014 340 1014 340 1052 440 c 1,18,-1
 1298 366 l 1,19,20
 1270 296 1270 296 1227 232 c 128,-1,21
 1184 168 1184 168 1116 105 c 128,-1,22
 1048 42 1048 42 949 5 c 128,-1,23
 850 -32 850 -32 730 -32 c 0,24,25
 444 -32 444 -32 258 172 c 128,-1,26
 72 376 72 376 72 736 c 0,0,1
EndSplineSet
EndChar

StartChar: D
Encoding: 68 68 39
Width: 1368
GlyphClass: 2
Flags: W
LayerCount: 2
Fore
SplineSet
154 0 m 1,0,-1
 154 1470 l 1,1,-1
 600 1470 l 2,2,3
 938 1470 938 1470 1118 1280 c 128,-1,4
 1298 1090 1298 1090 1298 736 c 0,5,6
 1298 620 1298 620 1278 517 c 128,-1,7
 1258 414 1258 414 1208 317 c 128,-1,8
 1158 220 1158 220 1080 152 c 128,-1,9
 1002 84 1002 84 880 42 c 128,-1,10
 758 0 758 0 600 0 c 2,11,-1
 154 0 l 1,0,-1
426 230 m 1,12,-1
 572 230 l 2,13,14
 790 230 790 230 903 351 c 128,-1,15
 1016 472 1016 472 1016 736 c 0,16,17
 1016 1008 1016 1008 900 1124 c 128,-1,18
 784 1240 784 1240 576 1240 c 2,19,-1
 426 1240 l 1,20,-1
 426 230 l 1,12,-1
EndSplineSet
EndChar

StartChar: E
Encoding: 69 69 40
Width: 1206
GlyphClass: 2
Flags: W
LayerCount: 2
Fore
SplineSet
154 0 m 1,0,-1
 154 1470 l 1,1,-1
 1132 1470 l 1,2,-1
 1132 1236 l 1,3,-1
 426 1236 l 1,4,-1
 426 874 l 1,5,-1
 1062 874 l 1,6,-1
 1062 644 l 1,7,-1
 426 644 l 1,8,-1
 426 232 l 1,9,-1
 1150 232 l 1,10,-1
 1150 0 l 1,11,-1
 154 0 l 1,0,-1
EndSplineSet
EndChar

StartChar: F
Encoding: 70 70 41
Width: 1128
GlyphClass: 2
Flags: W
LayerCount: 2
Fore
SplineSet
154 0 m 1,0,-1
 154 1470 l 1,1,-1
 1102 1470 l 1,2,-1
 1102 1236 l 1,3,-1
 426 1236 l 1,4,-1
 426 850 l 1,5,-1
 1034 850 l 1,6,-1
 1034 620 l 1,7,-1
 426 620 l 1,8,-1
 426 0 l 1,9,-1
 154 0 l 1,0,-1
EndSplineSet
EndChar

StartChar: G
Encoding: 71 71 42
Width: 1416
GlyphClass: 2
Flags: W
LayerCount: 2
Fore
SplineSet
72 736 m 0,0,1
 72 1072 72 1072 254 1287 c 128,-1,2
 436 1502 436 1502 742 1502 c 0,3,4
 836 1502 836 1502 920 1475 c 128,-1,5
 1004 1448 1004 1448 1062 1409 c 128,-1,6
 1120 1370 1120 1370 1168 1318 c 128,-1,7
 1216 1266 1216 1266 1242 1224 c 128,-1,8
 1268 1182 1268 1182 1286 1140 c 1,9,-1
 1052 1064 l 1,10,11
 1022 1108 1022 1108 1000 1136 c 128,-1,12
 978 1164 978 1164 940 1199 c 128,-1,13
 902 1234 902 1234 853 1252 c 128,-1,14
 804 1270 804 1270 744 1270 c 0,15,16
 558 1270 558 1270 455 1124 c 128,-1,17
 352 978 352 978 352 736 c 0,18,19
 352 492 352 492 458 346 c 128,-1,20
 564 200 564 200 732 200 c 0,21,22
 874 200 874 200 956 278 c 128,-1,23
 1038 356 1038 356 1054 482 c 0,24,25
 1060 584 1060 584 1060 598 c 1,26,-1
 716 598 l 1,27,-1
 716 830 l 1,28,-1
 1324 830 l 1,29,-1
 1324 0 l 1,30,-1
 1138 0 l 1,31,-1
 1112 132 l 1,32,33
 988 -32 988 -32 724 -32 c 0,34,35
 444 -32 444 -32 258 176 c 128,-1,36
 72 384 72 384 72 736 c 0,0,1
EndSplineSet
EndChar

StartChar: H
Encoding: 72 72 43
Width: 1400
GlyphClass: 2
Flags: W
LayerCount: 2
Fore
SplineSet
154 0 m 1,0,-1
 154 1470 l 1,1,-1
 424 1470 l 1,2,-1
 424 872 l 1,3,-1
 976 872 l 1,4,-1
 976 1470 l 1,5,-1
 1248 1470 l 1,6,-1
 1248 0 l 1,7,-1
 976 0 l 1,8,-1
 976 640 l 1,9,-1
 424 640 l 1,10,-1
 424 0 l 1,11,-1
 154 0 l 1,0,-1
EndSplineSet
EndChar

StartChar: I
Encoding: 73 73 44
Width: 576
GlyphClass: 2
Flags: W
LayerCount: 2
Fore
SplineSet
154 0 m 1,0,-1
 154 1470 l 1,1,-1
 426 1470 l 1,2,-1
 426 0 l 1,3,-1
 154 0 l 1,0,-1
EndSplineSet
EndChar

StartChar: J
Encoding: 74 74 45
Width: 1038
GlyphClass: 2
Flags: W
LayerCount: 2
Fore
SplineSet
14 284 m 1,0,-1
 238 374 l 1,1,2
 256 304 256 304 306 252 c 128,-1,3
 356 200 356 200 430 200 c 0,4,5
 518 200 518 200 565 267 c 128,-1,6
 612 334 612 334 612 458 c 2,7,-1
 612 1470 l 1,8,-1
 886 1470 l 1,9,-1
 886 424 l 2,10,11
 886 206 886 206 769 87 c 128,-1,12
 652 -32 652 -32 438 -32 c 0,13,14
 264 -32 264 -32 158 62 c 128,-1,15
 52 156 52 156 14 284 c 1,0,-1
EndSplineSet
EndChar

StartChar: K
Encoding: 75 75 46
Width: 1310
GlyphClass: 2
Flags: W
LayerCount: 2
Fore
SplineSet
154 0 m 1,0,-1
 154 1470 l 1,1,-1
 426 1470 l 1,2,-1
 426 840 l 1,3,-1
 430 840 l 1,4,-1
 972 1470 l 1,5,-1
 1312 1470 l 1,6,-1
 742 826 l 1,7,-1
 1322 0 l 1,8,-1
 996 0 l 1,9,-1
 570 634 l 1,10,-1
 426 470 l 1,11,-1
 426 0 l 1,12,-1
 154 0 l 1,0,-1
EndSplineSet
EndChar

StartChar: L
Encoding: 76 76 47
Width: 1102
GlyphClass: 2
Flags: W
LayerCount: 2
Fore
SplineSet
154 0 m 1,0,-1
 154 1470 l 1,1,-1
 426 1470 l 1,2,-1
 426 232 l 1,3,-1
 1080 232 l 1,4,-1
 1080 0 l 1,5,-1
 154 0 l 1,0,-1
EndSplineSet
EndChar

StartChar: M
Encoding: 77 77 48
Width: 1694
GlyphClass: 2
Flags: W
LayerCount: 2
Fore
SplineSet
154 0 m 1,0,-1
 154 1470 l 1,1,-1
 484 1470 l 1,2,-1
 720 818 l 2,3,4
 746 746 746 746 788 616 c 128,-1,5
 830 486 830 486 844 440 c 1,6,-1
 850 440 l 1,7,8
 864 476 864 476 907 606 c 128,-1,9
 950 736 950 736 978 818 c 2,10,-1
 1210 1470 l 1,11,-1
 1542 1470 l 1,12,-1
 1542 0 l 1,13,-1
 1274 0 l 1,14,-1
 1274 616 l 2,15,16
 1274 788 1274 788 1304 1074 c 1,17,-1
 1294 1074 l 1,18,-1
 1180 724 l 1,19,-1
 946 76 l 1,20,-1
 750 76 l 1,21,-1
 520 724 l 1,22,-1
 402 1076 l 1,23,-1
 392 1076 l 1,24,25
 424 808 424 808 424 616 c 2,26,-1
 424 0 l 1,27,-1
 154 0 l 1,0,-1
EndSplineSet
EndChar

StartChar: N
Encoding: 78 78 49
Width: 1410
GlyphClass: 2
Flags: W
LayerCount: 2
Fore
SplineSet
154 0 m 1,0,-1
 154 1470 l 1,1,-1
 432 1470 l 1,2,-1
 848 704 l 1,3,-1
 1006 408 l 1,4,-1
 1016 408 l 1,5,6
 986 620 986 620 986 834 c 2,7,-1
 986 1470 l 1,8,-1
 1258 1470 l 1,9,-1
 1258 0 l 1,10,-1
 978 0 l 1,11,-1
 566 746 l 1,12,-1
 404 1056 l 1,13,-1
 396 1056 l 1,14,15
 426 852 426 852 426 628 c 2,16,-1
 426 0 l 1,17,-1
 154 0 l 1,0,-1
EndSplineSet
EndChar

StartChar: O
Encoding: 79 79 50
Width: 1416
GlyphClass: 2
Flags: W
LayerCount: 2
Fore
SplineSet
72 734 m 256,0,1
 72 1080 72 1080 247 1291 c 128,-1,2
 422 1502 422 1502 708 1502 c 0,3,4
 996 1502 996 1502 1171 1291 c 128,-1,5
 1346 1080 1346 1080 1346 734 c 256,6,7
 1346 388 1346 388 1171 178 c 128,-1,8
 996 -32 996 -32 708 -32 c 256,9,10
 420 -32 420 -32 246 178 c 128,-1,11
 72 388 72 388 72 734 c 256,0,1
352 734 m 256,12,13
 352 488 352 488 446 344 c 128,-1,14
 540 200 540 200 708 200 c 0,15,16
 874 200 874 200 968 343 c 128,-1,17
 1062 486 1062 486 1062 734 c 0,18,19
 1062 980 1062 980 969 1125 c 128,-1,20
 876 1270 876 1270 708 1270 c 0,21,22
 542 1270 542 1270 447 1125 c 128,-1,23
 352 980 352 980 352 734 c 256,12,13
EndSplineSet
Substitution2: "Single Substitution lookup 12 subtable" ordmasculine
EndChar

StartChar: P
Encoding: 80 80 51
Width: 1290
GlyphClass: 2
Flags: W
LayerCount: 2
Fore
SplineSet
154 0 m 1,0,-1
 154 1470 l 1,1,-1
 734 1470 l 2,2,3
 970 1470 970 1470 1100 1344 c 128,-1,4
 1230 1218 1230 1218 1230 1014 c 0,5,6
 1230 802 1230 802 1096 680 c 128,-1,7
 962 558 962 558 740 558 c 2,8,-1
 426 558 l 1,9,-1
 426 0 l 1,10,-1
 154 0 l 1,0,-1
426 790 m 1,11,-1
 702 790 l 2,12,13
 820 790 820 790 886 848 c 128,-1,14
 952 906 952 906 952 1014 c 256,15,16
 952 1122 952 1122 888 1179 c 128,-1,17
 824 1236 824 1236 702 1236 c 2,18,-1
 426 1236 l 1,19,-1
 426 790 l 1,11,-1
EndSplineSet
EndChar

StartChar: Q
Encoding: 81 81 52
Width: 1416
GlyphClass: 2
Flags: W
LayerCount: 2
Fore
SplineSet
72 734 m 256,0,1
 72 1080 72 1080 247 1291 c 128,-1,2
 422 1502 422 1502 708 1502 c 0,3,4
 996 1502 996 1502 1171 1291 c 128,-1,5
 1346 1080 1346 1080 1346 734 c 0,6,7
 1346 404 1346 404 1186 198 c 1,8,-1
 1344 32 l 1,9,-1
 1194 -102 l 1,10,-1
 1038 60 l 1,11,12
 898 -32 898 -32 708 -32 c 0,13,14
 420 -32 420 -32 246 178 c 128,-1,15
 72 388 72 388 72 734 c 256,0,1
646 468 m 1,16,-1
 798 604 l 1,17,-1
 998 396 l 1,18,19
 1062 528 1062 528 1062 734 c 0,20,21
 1062 982 1062 982 968 1126 c 128,-1,22
 874 1270 874 1270 708 1270 c 256,23,24
 542 1270 542 1270 447 1125 c 128,-1,25
 352 980 352 980 352 734 c 256,26,27
 352 488 352 488 446 344 c 128,-1,28
 540 200 540 200 708 200 c 0,29,30
 796 200 796 200 864 240 c 1,31,-1
 646 468 l 1,16,-1
EndSplineSet
EndChar

StartChar: R
Encoding: 82 82 53
Width: 1336
GlyphClass: 2
Flags: W
LayerCount: 2
Fore
SplineSet
426 804 m 1,0,-1
 706 804 l 2,1,2
 824 804 824 804 888 860 c 128,-1,3
 952 916 952 916 952 1026 c 0,4,5
 952 1122 952 1122 887 1179 c 128,-1,6
 822 1236 822 1236 704 1236 c 2,7,-1
 426 1236 l 1,8,-1
 426 804 l 1,0,-1
154 0 m 1,9,-1
 154 1470 l 1,10,-1
 756 1470 l 2,11,12
 986 1470 986 1470 1109 1350 c 128,-1,13
 1232 1230 1232 1230 1232 1048 c 0,14,15
 1232 896 1232 896 1168 804 c 128,-1,16
 1104 712 1104 712 1018 676 c 1,17,18
 1084 628 1084 628 1114 576 c 128,-1,19
 1144 524 1144 524 1162 414 c 0,20,21
 1200 214 1200 214 1326 0 c 1,22,-1
 1022 0 l 1,23,24
 928 158 928 158 876 394 c 0,25,26
 856 486 856 486 821 529 c 128,-1,27
 786 572 786 572 708 572 c 2,28,-1
 426 572 l 1,29,-1
 426 0 l 1,30,-1
 154 0 l 1,9,-1
EndSplineSet
EndChar

StartChar: S
Encoding: 83 83 54
Width: 1214
GlyphClass: 2
Flags: W
LayerCount: 2
Fore
SplineSet
40 326 m 1,0,-1
 280 406 l 1,1,2
 328 316 328 316 426 258 c 128,-1,3
 524 200 524 200 634 200 c 0,4,5
 746 200 746 200 814 254 c 128,-1,6
 882 308 882 308 882 392 c 0,7,8
 882 486 882 486 806 541 c 128,-1,9
 730 596 730 596 588 642 c 0,10,11
 374 714 374 714 302 754 c 0,12,13
 94 870 94 870 94 1092 c 0,14,15
 94 1276 94 1276 240 1389 c 128,-1,16
 386 1502 386 1502 618 1502 c 0,17,18
 812 1502 812 1502 949 1411 c 128,-1,19
 1086 1320 1086 1320 1150 1178 c 1,20,-1
 922 1102 l 1,21,22
 802 1270 802 1270 616 1270 c 0,23,24
 504 1270 504 1270 440 1220 c 128,-1,25
 376 1170 376 1170 376 1092 c 0,26,27
 376 1066 376 1066 382 1044 c 128,-1,28
 388 1022 388 1022 403 1004 c 128,-1,29
 418 986 418 986 433 970 c 128,-1,30
 448 954 448 954 475 940 c 128,-1,31
 502 926 502 926 521 916 c 128,-1,32
 540 906 540 906 578 892 c 128,-1,33
 616 878 616 878 637 872 c 128,-1,34
 658 866 658 866 702 852 c 128,-1,35
 746 838 746 838 766 830 c 0,36,37
 850 804 850 804 913 773 c 128,-1,38
 976 742 976 742 1038 692 c 128,-1,39
 1100 642 1100 642 1132 569 c 128,-1,40
 1164 496 1164 496 1164 406 c 0,41,42
 1164 198 1164 198 1012 83 c 128,-1,43
 860 -32 860 -32 626 -32 c 0,44,45
 424 -32 424 -32 268 64 c 128,-1,46
 112 160 112 160 40 326 c 1,0,-1
EndSplineSet
EndChar

StartChar: T
Encoding: 84 84 55
Width: 1142
GlyphClass: 2
Flags: W
LayerCount: 2
Fore
SplineSet
20 1236 m 1,0,-1
 20 1470 l 1,1,-1
 1124 1470 l 1,2,-1
 1124 1236 l 1,3,-1
 708 1236 l 1,4,-1
 708 0 l 1,5,-1
 436 0 l 1,6,-1
 436 1236 l 1,7,-1
 20 1236 l 1,0,-1
EndSplineSet
EndChar

StartChar: U
Encoding: 85 85 56
Width: 1390
GlyphClass: 2
Flags: W
LayerCount: 2
Fore
SplineSet
146 556 m 2,0,-1
 146 1470 l 1,1,-1
 420 1470 l 1,2,-1
 420 554 l 2,3,4
 420 200 420 200 696 200 c 0,5,6
 974 200 974 200 974 554 c 2,7,-1
 974 1470 l 1,8,-1
 1248 1470 l 1,9,-1
 1248 556 l 2,10,11
 1248 270 1248 270 1110 119 c 128,-1,12
 972 -32 972 -32 696 -32 c 0,13,14
 430 -32 430 -32 288 114 c 128,-1,15
 146 260 146 260 146 556 c 2,0,-1
EndSplineSet
EndChar

StartChar: V
Encoding: 86 86 57
Width: 1242
GlyphClass: 2
Flags: W
LayerCount: 2
Fore
SplineSet
4 1470 m 1,0,-1
 298 1470 l 1,1,-1
 522 672 l 1,2,3
 616 294 616 294 618 286 c 1,4,-1
 626 286 l 1,5,6
 720 664 720 664 722 672 c 2,7,-1
 944 1470 l 1,8,-1
 1240 1470 l 1,9,-1
 770 0 l 1,10,-1
 472 0 l 1,11,-1
 4 1470 l 1,0,-1
EndSplineSet
EndChar

StartChar: W
Encoding: 87 87 58
Width: 1764
GlyphClass: 2
Flags: W
LayerCount: 2
Fore
SplineSet
24 1470 m 1,0,-1
 308 1470 l 1,1,-1
 442 716 l 2,2,3
 450 676 450 676 464 584 c 128,-1,4
 478 492 478 492 490 418 c 128,-1,5
 502 344 502 344 510 292 c 1,6,-1
 518 292 l 1,7,8
 582 646 582 646 596 716 c 2,9,-1
 746 1470 l 1,10,-1
 1018 1470 l 1,11,-1
 1172 716 l 2,12,13
 1186 650 1186 650 1214 486 c 128,-1,14
 1242 322 1242 322 1248 292 c 1,15,-1
 1256 292 l 1,16,17
 1266 350 1266 350 1291 503 c 128,-1,18
 1316 656 1316 656 1326 716 c 2,19,-1
 1456 1470 l 1,20,-1
 1742 1470 l 1,21,-1
 1414 0 l 1,22,-1
 1104 0 l 1,23,-1
 958 744 l 2,24,25
 894 1096 894 1096 888 1142 c 1,26,-1
 878 1142 l 1,27,28
 868 1062 868 1062 840 912 c 128,-1,29
 812 762 812 762 808 744 c 2,30,-1
 662 0 l 1,31,-1
 352 0 l 1,32,-1
 24 1470 l 1,0,-1
EndSplineSet
EndChar

StartChar: X
Encoding: 88 88 59
Width: 1258
GlyphClass: 2
Flags: W
LayerCount: 2
Fore
SplineSet
8 0 m 5,0,-1
 472 754 l 5,1,-1
 32 1470 l 5,2,-1
 348 1470 l 5,3,-1
 516 1162 l 6,4,5
 536 1122 536 1122 573 1054 c 132,-1,6
 610 986 610 986 626 956 c 5,7,-1
 634 956 l 5,8,9
 670 1026 670 1026 746 1162 c 6,10,-1
 914 1470 l 5,11,-1
 1230 1470 l 5,12,-1
 788 754 l 5,13,-1
 1256 0 l 5,14,-1
 942 0 l 5,15,-1
 752 336 l 6,16,17
 652 514 652 514 634 546 c 5,18,-1
 626 546 l 5,19,20
 514 342 514 342 510 336 c 6,21,-1
 322 0 l 5,22,-1
 8 0 l 5,0,-1
EndSplineSet
EndChar

StartChar: Y
Encoding: 89 89 60
Width: 1276
GlyphClass: 2
Flags: W
LayerCount: 2
Fore
SplineSet
-4 1470 m 1,0,-1
 308 1470 l 1,1,-1
 524 1042 l 2,2,3
 598 892 598 892 636 812 c 1,4,-1
 642 812 l 1,5,6
 720 966 720 966 756 1042 c 2,7,-1
 974 1470 l 1,8,-1
 1284 1470 l 1,9,-1
 776 596 l 1,10,-1
 776 0 l 1,11,-1
 504 0 l 1,12,-1
 504 596 l 1,13,-1
 -4 1470 l 1,0,-1
EndSplineSet
EndChar

StartChar: Z
Encoding: 90 90 61
Width: 1202
GlyphClass: 2
Flags: W
LayerCount: 2
Fore
SplineSet
54 198 m 1,0,-1
 796 1236 l 1,1,-1
 116 1236 l 1,2,-1
 116 1470 l 1,3,-1
 1134 1470 l 1,4,-1
 1134 1268 l 1,5,-1
 390 232 l 1,6,-1
 1154 232 l 1,7,-1
 1154 0 l 1,8,-1
 54 0 l 1,9,-1
 54 198 l 1,0,-1
EndSplineSet
EndChar

StartChar: bracketleft
Encoding: 91 91 62
Width: 884
GlyphClass: 2
Flags: W
LayerCount: 2
Fore
SplineSet
232 -234 m 1,0,-1
 232 1648 l 1,1,-1
 724 1648 l 1,2,-1
 724 1434 l 1,3,-1
 494 1434 l 1,4,-1
 494 -18 l 1,5,-1
 724 -18 l 1,6,-1
 724 -234 l 1,7,-1
 232 -234 l 1,0,-1
EndSplineSet
EndChar

StartChar: backslash
Encoding: 92 92 63
Width: 748
GlyphClass: 2
Flags: W
LayerCount: 2
Fore
SplineSet
-32 1566 m 1,0,-1
 242 1566 l 1,1,-1
 784 -104 l 1,2,-1
 512 -104 l 1,3,-1
 -32 1566 l 1,0,-1
EndSplineSet
EndChar

StartChar: bracketright
Encoding: 93 93 64
Width: 884
GlyphClass: 2
Flags: W
LayerCount: 2
Fore
SplineSet
160 -18 m 1,0,-1
 390 -18 l 1,1,-1
 390 1434 l 1,2,-1
 160 1434 l 1,3,-1
 160 1648 l 1,4,-1
 654 1648 l 1,5,-1
 654 -234 l 1,6,-1
 160 -234 l 1,7,-1
 160 -18 l 1,0,-1
EndSplineSet
EndChar

StartChar: asciicircum
Encoding: 94 94 65
Width: 1080
GlyphClass: 2
Flags: W
LayerCount: 2
Fore
SplineSet
18 910 m 1,0,-1
 418 1620 l 1,1,-1
 662 1620 l 1,2,-1
 1062 910 l 1,3,-1
 790 910 l 1,4,-1
 606 1278 l 1,5,-1
 542 1412 l 1,6,-1
 538 1412 l 1,7,-1
 472 1274 l 1,8,-1
 286 910 l 1,9,-1
 18 910 l 1,0,-1
EndSplineSet
EndChar

StartChar: underscore
Encoding: 95 95 66
Width: 996
GlyphClass: 2
Flags: W
LayerCount: 2
Fore
SplineSet
10 -12 m 1,0,-1
 992 -12 l 1,1,-1
 992 -226 l 1,2,-1
 10 -226 l 1,3,-1
 10 -12 l 1,0,-1
EndSplineSet
EndChar

StartChar: grave
Encoding: 96 96 67
Width: 718
GlyphClass: 2
Flags: W
LayerCount: 2
Fore
SplineSet
338 1018 m 1,0,-1
 76 1628 l 1,1,-1
 364 1628 l 1,2,-1
 550 1018 l 1,3,-1
 338 1018 l 1,0,-1
EndSplineSet
EndChar

StartChar: a
Encoding: 97 97 68
Width: 1092
GlyphClass: 2
Flags: W
LayerCount: 2
Fore
SplineSet
326 310 m 0,0,1
 326 258 326 258 367 221 c 128,-1,2
 408 184 408 184 476 184 c 0,3,4
 580 184 580 184 653 254 c 128,-1,5
 726 324 726 324 726 436 c 2,6,-1
 726 520 l 1,7,8
 654 502 654 502 540 486 c 0,9,10
 326 452 326 452 326 310 c 0,0,1
58 288 m 0,11,12
 58 436 58 436 171 531 c 128,-1,13
 284 626 284 626 506 660 c 0,14,15
 682 688 682 688 726 702 c 1,16,-1
 726 758 l 2,17,18
 726 830 726 830 675 867 c 128,-1,19
 624 904 624 904 540 904 c 0,20,21
 372 904 372 904 244 766 c 1,22,-1
 88 900 l 1,23,24
 262 1108 262 1108 538 1108 c 0,25,26
 782 1108 782 1108 885 992 c 128,-1,27
 988 876 988 876 988 662 c 2,28,-1
 988 0 l 1,29,-1
 734 0 l 1,30,-1
 734 122 l 1,31,32
 700 58 700 58 620 13 c 128,-1,33
 540 -32 540 -32 438 -32 c 0,34,35
 262 -32 262 -32 160 57 c 128,-1,36
 58 146 58 146 58 288 c 0,11,12
EndSplineSet
Substitution2: "Single Substitution lookup 12 subtable" ordfeminine
EndChar

StartChar: b
Encoding: 98 98 69
Width: 1168
GlyphClass: 2
Flags: W
LayerCount: 2
Fore
SplineSet
132 0 m 1,0,-1
 132 1518 l 1,1,-1
 388 1518 l 1,2,-1
 388 978 l 1,3,4
 494 1108 494 1108 650 1108 c 0,5,6
 848 1108 848 1108 978 957 c 128,-1,7
 1108 806 1108 806 1108 538 c 0,8,9
 1108 388 1108 388 1066 273 c 128,-1,10
 1024 158 1024 158 956 94 c 128,-1,11
 888 30 888 30 811 -1 c 128,-1,12
 734 -32 734 -32 654 -32 c 0,13,14
 564 -32 564 -32 490 14 c 128,-1,15
 416 60 416 60 384 122 c 1,16,-1
 384 0 l 1,17,-1
 132 0 l 1,0,-1
388 538 m 0,18,19
 388 376 388 376 449 283 c 128,-1,20
 510 190 510 190 614 190 c 0,21,22
 712 190 712 190 776 279 c 128,-1,23
 840 368 840 368 840 538 c 0,24,25
 840 700 840 700 780 793 c 128,-1,26
 720 886 720 886 614 886 c 0,27,28
 506 886 506 886 447 790 c 128,-1,29
 388 694 388 694 388 538 c 0,18,19
EndSplineSet
EndChar

StartChar: c
Encoding: 99 99 70
Width: 1038
GlyphClass: 2
Flags: W
LayerCount: 2
Fore
SplineSet
62 536 m 0,0,1
 62 800 62 800 203 954 c 128,-1,2
 344 1108 344 1108 564 1108 c 0,3,4
 730 1108 730 1108 842 1007 c 128,-1,5
 954 906 954 906 980 778 c 1,6,-1
 760 718 l 1,7,8
 740 786 740 786 690 836 c 128,-1,9
 640 886 640 886 568 886 c 0,10,11
 452 886 452 886 391 786 c 128,-1,12
 330 686 330 686 330 536 c 0,13,14
 330 370 330 370 398 280 c 128,-1,15
 466 190 466 190 568 190 c 0,16,17
 648 190 648 190 707 246 c 128,-1,18
 766 302 766 302 786 372 c 1,19,-1
 1006 310 l 1,20,21
 974 176 974 176 851 72 c 128,-1,22
 728 -32 728 -32 564 -32 c 0,23,24
 342 -32 342 -32 202 123 c 128,-1,25
 62 278 62 278 62 536 c 0,0,1
EndSplineSet
EndChar

StartChar: d
Encoding: 100 100 71
Width: 1168
GlyphClass: 2
Flags: W
LayerCount: 2
Fore
SplineSet
62 538 m 0,0,1
 62 806 62 806 191 957 c 128,-1,2
 320 1108 320 1108 522 1108 c 0,3,4
 608 1108 608 1108 675 1069 c 128,-1,5
 742 1030 742 1030 778 976 c 1,6,-1
 778 1518 l 1,7,-1
 1038 1518 l 1,8,-1
 1038 0 l 1,9,-1
 786 0 l 1,10,-1
 786 122 l 1,11,12
 750 58 750 58 678 13 c 128,-1,13
 606 -32 606 -32 520 -32 c 256,14,15
 434 -32 434 -32 356 0 c 128,-1,16
 278 32 278 32 210 96 c 128,-1,17
 142 160 142 160 102 274 c 128,-1,18
 62 388 62 388 62 538 c 0,0,1
330 538 m 0,19,20
 330 370 330 370 391 280 c 128,-1,21
 452 190 452 190 558 190 c 0,22,23
 660 190 660 190 721 283 c 128,-1,24
 782 376 782 376 782 538 c 0,25,26
 782 694 782 694 723 790 c 128,-1,27
 664 886 664 886 558 886 c 0,28,29
 448 886 448 886 389 791 c 128,-1,30
 330 696 330 696 330 538 c 0,19,20
EndSplineSet
EndChar

StartChar: e
Encoding: 101 101 72
Width: 1118
GlyphClass: 2
Flags: W
LayerCount: 2
Fore
SplineSet
62 542 m 256,0,1
 62 804 62 804 205 956 c 128,-1,2
 348 1108 348 1108 566 1108 c 0,3,4
 778 1108 778 1108 919 953 c 128,-1,5
 1060 798 1060 798 1060 548 c 0,6,7
 1060 480 1060 480 1058 448 c 1,8,-1
 326 448 l 1,9,10
 326 336 326 336 395 256 c 128,-1,11
 464 176 464 176 582 176 c 0,12,13
 666 176 666 176 731 219 c 128,-1,14
 796 262 796 262 830 326 c 1,15,-1
 1046 250 l 1,16,17
 996 130 996 130 874 49 c 128,-1,18
 752 -32 752 -32 576 -32 c 0,19,20
 348 -32 348 -32 205 124 c 128,-1,21
 62 280 62 280 62 542 c 256,0,1
328 628 m 1,22,-1
 796 628 l 1,23,24
 796 742 796 742 735 822 c 128,-1,25
 674 902 674 902 566 902 c 0,26,27
 456 902 456 902 393 821 c 128,-1,28
 330 740 330 740 328 628 c 1,22,-1
EndSplineSet
EndChar

StartChar: f
Encoding: 102 102 73
Width: 702
GlyphClass: 2
Flags: W
LayerCount: 2
Fore
SplineSet
44 854 m 1,0,-1
 44 1076 l 1,1,-1
 202 1076 l 1,2,-1
 202 1180 l 2,3,4
 202 1346 202 1346 286 1432 c 128,-1,5
 370 1518 370 1518 524 1518 c 2,6,-1
 704 1518 l 1,7,-1
 704 1294 l 1,8,-1
 562 1294 l 2,9,10
 512 1294 512 1294 489 1263 c 128,-1,11
 466 1232 466 1232 466 1162 c 2,12,-1
 466 1076 l 1,13,-1
 680 1076 l 1,14,-1
 680 854 l 1,15,-1
 466 854 l 1,16,-1
 466 0 l 1,17,-1
 202 0 l 1,18,-1
 202 854 l 1,19,-1
 44 854 l 1,0,-1
EndSplineSet
EndChar

StartChar: g
Encoding: 103 103 74
Width: 1136
GlyphClass: 2
Flags: W
LayerCount: 2
Fore
SplineSet
334 558 m 256,0,1
 334 404 334 404 393 319 c 128,-1,2
 452 234 452 234 550 234 c 0,3,4
 646 234 646 234 703 318 c 128,-1,5
 760 402 760 402 760 560 c 256,6,7
 760 718 760 718 702 802 c 128,-1,8
 644 886 644 886 552 886 c 0,9,10
 452 886 452 886 393 799 c 128,-1,11
 334 712 334 712 334 558 c 256,0,1
68 556 m 0,12,13
 68 808 68 808 195 958 c 128,-1,14
 322 1108 322 1108 516 1108 c 0,15,16
 608 1108 608 1108 671 1064 c 128,-1,17
 734 1020 734 1020 762 968 c 1,18,-1
 762 1076 l 1,19,-1
 1022 1076 l 1,20,-1
 1022 156 l 2,21,22
 1022 -150 1022 -150 901 -294 c 128,-1,23
 780 -438 780 -438 532 -438 c 0,24,25
 254 -438 254 -438 104 -226 c 1,26,-1
 276 -106 l 1,27,28
 378 -230 378 -230 536 -230 c 0,29,30
 626 -230 626 -230 689 -161 c 128,-1,31
 752 -92 752 -92 760 18 c 0,32,33
 764 76 764 76 764 132 c 1,34,35
 728 78 728 78 661 44 c 128,-1,36
 594 10 594 10 524 10 c 0,37,38
 320 10 320 10 194 159 c 128,-1,39
 68 308 68 308 68 556 c 0,12,13
EndSplineSet
EndChar

StartChar: h
Encoding: 104 104 75
Width: 1124
GlyphClass: 2
Flags: W
LayerCount: 2
Fore
SplineSet
132 0 m 1,0,-1
 132 1518 l 1,1,-1
 388 1518 l 1,2,-1
 388 986 l 1,3,-1
 394 986 l 1,4,5
 438 1040 438 1040 508 1074 c 128,-1,6
 578 1108 578 1108 658 1108 c 0,7,8
 810 1108 810 1108 914 1009 c 128,-1,9
 1018 910 1018 910 1018 690 c 2,10,-1
 1018 0 l 1,11,-1
 760 0 l 1,12,-1
 760 662 l 2,13,14
 760 886 760 886 608 886 c 0,15,16
 514 886 514 886 451 805 c 128,-1,17
 388 724 388 724 388 610 c 2,18,-1
 388 0 l 1,19,-1
 132 0 l 1,0,-1
EndSplineSet
Substitution2: "'sups' Superscript lookup 5 subtable" uni02B0
Substitution2: "'aalt' Access All Alternates lookup 0 subtable" uni02B0
EndChar

StartChar: i
Encoding: 105 105 76
Width: 534
GlyphClass: 2
Flags: W
LayerCount: 2
Fore
SplineSet
132 1212 m 1,0,-1
 132 1490 l 1,1,-1
 402 1490 l 1,2,-1
 402 1212 l 1,3,-1
 132 1212 l 1,0,-1
138 0 m 1,4,-1
 138 1076 l 1,5,-1
 396 1076 l 1,6,-1
 396 0 l 1,7,-1
 138 0 l 1,4,-1
EndSplineSet
EndChar

StartChar: j
Encoding: 106 106 77
Width: 548
GlyphClass: 2
Flags: W
LayerCount: 2
Fore
SplineSet
142 1212 m 1,0,-1
 142 1490 l 1,1,-1
 418 1490 l 1,2,-1
 418 1212 l 1,3,-1
 142 1212 l 1,0,-1
-24 -190 m 1,4,-1
 10 -190 l 2,5,6
 80 -190 80 -190 114 -143 c 128,-1,7
 148 -96 148 -96 148 8 c 2,8,-1
 148 1076 l 1,9,-1
 410 1076 l 1,10,-1
 410 -2 l 2,11,12
 410 -206 410 -206 318 -310 c 128,-1,13
 226 -414 226 -414 52 -414 c 2,14,-1
 -24 -414 l 1,15,-1
 -24 -190 l 1,4,-1
EndSplineSet
Substitution2: "'sups' Superscript lookup 5 subtable" uni02B2
Substitution2: "'aalt' Access All Alternates lookup 0 subtable" uni02B2
EndChar

StartChar: k
Encoding: 107 107 78
Width: 1066
GlyphClass: 2
Flags: W
LayerCount: 2
Fore
SplineSet
132 0 m 1,0,-1
 132 1518 l 1,1,-1
 390 1518 l 1,2,-1
 390 682 l 1,3,-1
 746 1076 l 1,4,-1
 1072 1076 l 1,5,-1
 670 636 l 1,6,-1
 1092 0 l 1,7,-1
 788 0 l 1,8,-1
 502 452 l 1,9,-1
 390 330 l 1,10,-1
 390 0 l 1,11,-1
 132 0 l 1,0,-1
EndSplineSet
EndChar

StartChar: l
Encoding: 108 108 79
Width: 536
GlyphClass: 2
Flags: W
LayerCount: 2
Fore
SplineSet
138 0 m 1,0,-1
 138 1518 l 1,1,-1
 400 1518 l 1,2,-1
 400 0 l 1,3,-1
 138 0 l 1,0,-1
EndSplineSet
Substitution2: "'sups' Superscript lookup 5 subtable" uni02E1
Substitution2: "'aalt' Access All Alternates lookup 0 subtable" uni02E1
EndChar

StartChar: m
Encoding: 109 109 80
Width: 1654
GlyphClass: 2
Flags: W
LayerCount: 2
Fore
SplineSet
120 0 m 1,0,-1
 120 1076 l 1,1,-1
 372 1076 l 1,2,-1
 372 962 l 1,3,4
 402 1012 402 1012 472 1060 c 128,-1,5
 542 1108 542 1108 640 1108 c 0,6,7
 812 1108 812 1108 896 934 c 1,8,9
 916 968 916 968 946 1002 c 128,-1,10
 976 1036 976 1036 1050 1072 c 128,-1,11
 1124 1108 1124 1108 1214 1108 c 0,12,13
 1550 1108 1550 1108 1550 690 c 2,14,-1
 1550 0 l 1,15,-1
 1288 0 l 1,16,-1
 1288 684 l 2,17,18
 1288 786 1288 786 1258 836 c 128,-1,19
 1228 886 1228 886 1158 886 c 0,20,21
 1070 886 1070 886 1016 812 c 128,-1,22
 962 738 962 738 962 634 c 2,23,-1
 962 0 l 1,24,-1
 704 0 l 1,25,-1
 704 692 l 2,26,27
 704 886 704 886 576 886 c 0,28,29
 480 886 480 886 431 817 c 128,-1,30
 382 748 382 748 382 636 c 2,31,-1
 382 0 l 1,32,-1
 120 0 l 1,0,-1
EndSplineSet
EndChar

StartChar: n
Encoding: 110 110 81
Width: 1118
GlyphClass: 2
Flags: W
LayerCount: 2
Fore
SplineSet
120 0 m 1,0,-1
 120 1076 l 1,1,-1
 372 1076 l 1,2,-1
 372 956 l 1,3,4
 400 1012 400 1012 472 1060 c 128,-1,5
 544 1108 544 1108 660 1108 c 0,6,7
 1012 1108 1012 1108 1012 690 c 2,8,-1
 1012 0 l 1,9,-1
 752 0 l 1,10,-1
 752 660 l 2,11,12
 752 784 752 784 714 835 c 128,-1,13
 676 886 676 886 600 886 c 0,14,15
 506 886 506 886 444 809 c 128,-1,16
 382 732 382 732 382 618 c 2,17,-1
 382 0 l 1,18,-1
 120 0 l 1,0,-1
EndSplineSet
Substitution2: "'sups' Superscript lookup 5 subtable" uni207F
Substitution2: "'aalt' Access All Alternates lookup 0 subtable" uni207F
EndChar

StartChar: o
Encoding: 111 111 82
Width: 1122
GlyphClass: 2
Flags: W
LayerCount: 2
Fore
SplineSet
330 536 m 0,0,1
 330 354 330 354 401 272 c 128,-1,2
 472 190 472 190 562 190 c 256,3,4
 652 190 652 190 724 273 c 128,-1,5
 796 356 796 356 796 536 c 0,6,7
 796 720 796 720 725 803 c 128,-1,8
 654 886 654 886 562 886 c 0,9,10
 472 886 472 886 401 804 c 128,-1,11
 330 722 330 722 330 536 c 0,0,1
62 536 m 0,12,13
 62 776 62 776 188 942 c 128,-1,14
 314 1108 314 1108 562 1108 c 0,15,16
 730 1108 730 1108 847 1024 c 128,-1,17
 964 940 964 940 1013 815 c 128,-1,18
 1062 690 1062 690 1062 536 c 0,19,20
 1062 464 1062 464 1050 392 c 128,-1,21
 1038 320 1038 320 1002 241 c 128,-1,22
 966 162 966 162 912 103 c 128,-1,23
 858 44 858 44 768 6 c 128,-1,24
 678 -32 678 -32 562 -32 c 0,25,26
 450 -32 450 -32 360 4 c 128,-1,27
 270 40 270 40 215 98 c 128,-1,28
 160 156 160 156 125 233 c 128,-1,29
 90 310 90 310 76 384 c 128,-1,30
 62 458 62 458 62 536 c 0,12,13
EndSplineSet
Substitution2: "Single Substitution lookup 12 subtable" ordmasculine
EndChar

StartChar: p
Encoding: 112 112 83
Width: 1168
GlyphClass: 2
Flags: W
LayerCount: 2
Fore
SplineSet
388 538 m 0,0,1
 388 378 388 378 447 284 c 128,-1,2
 506 190 506 190 614 190 c 0,3,4
 716 190 716 190 778 280 c 128,-1,5
 840 370 840 370 840 538 c 0,6,7
 840 700 840 700 780 793 c 128,-1,8
 720 886 720 886 614 886 c 0,9,10
 506 886 506 886 447 790 c 128,-1,11
 388 694 388 694 388 538 c 0,0,1
132 -430 m 1,12,-1
 132 1076 l 1,13,-1
 382 1076 l 1,14,-1
 382 954 l 1,15,16
 482 1108 482 1108 650 1108 c 0,17,18
 848 1108 848 1108 978 955 c 128,-1,19
 1108 802 1108 802 1108 538 c 0,20,21
 1108 388 1108 388 1066 274 c 128,-1,22
 1024 160 1024 160 955 96 c 128,-1,23
 886 32 886 32 808 0 c 128,-1,24
 730 -32 730 -32 650 -32 c 0,25,26
 552 -32 552 -32 487 10 c 128,-1,27
 422 52 422 52 390 108 c 1,28,-1
 390 -430 l 1,29,-1
 132 -430 l 1,12,-1
EndSplineSet
EndChar

StartChar: q
Encoding: 113 113 84
Width: 1166
GlyphClass: 2
Flags: W
LayerCount: 2
Fore
SplineSet
330 538 m 0,0,1
 330 372 330 372 391 281 c 128,-1,2
 452 190 452 190 556 190 c 256,3,4
 660 190 660 190 721 283 c 128,-1,5
 782 376 782 376 782 538 c 0,6,7
 782 694 782 694 723 790 c 128,-1,8
 664 886 664 886 556 886 c 256,9,10
 448 886 448 886 389 791 c 128,-1,11
 330 696 330 696 330 538 c 0,0,1
62 538 m 0,12,13
 62 802 62 802 192 955 c 128,-1,14
 322 1108 322 1108 518 1108 c 0,15,16
 686 1108 686 1108 788 954 c 1,17,-1
 788 1076 l 1,18,-1
 1038 1076 l 1,19,-1
 1038 -430 l 1,20,-1
 778 -430 l 1,21,-1
 778 110 l 1,22,23
 742 52 742 52 676 10 c 128,-1,24
 610 -32 610 -32 518 -32 c 0,25,26
 436 -32 436 -32 360 0 c 128,-1,27
 284 32 284 32 215 95 c 128,-1,28
 146 158 146 158 104 273 c 128,-1,29
 62 388 62 388 62 538 c 0,12,13
EndSplineSet
EndChar

StartChar: r
Encoding: 114 114 85
Width: 752
GlyphClass: 2
Flags: W
LayerCount: 2
Fore
SplineSet
120 0 m 1,0,-1
 120 1076 l 1,1,-1
 370 1076 l 1,2,-1
 370 974 l 1,3,4
 404 1028 404 1028 469 1068 c 128,-1,5
 534 1108 534 1108 620 1108 c 0,6,7
 704 1108 704 1108 756 1088 c 1,8,-1
 756 850 l 1,9,10
 692 870 692 870 620 870 c 0,11,12
 504 870 504 870 443 778 c 128,-1,13
 382 686 382 686 382 534 c 2,14,-1
 382 0 l 1,15,-1
 120 0 l 1,0,-1
EndSplineSet
Substitution2: "'sups' Superscript lookup 5 subtable" uni02B3
Substitution2: "'aalt' Access All Alternates lookup 0 subtable" uni02B3
EndChar

StartChar: s
Encoding: 115 115 86
Width: 996
GlyphClass: 2
Flags: W
LayerCount: 2
Fore
SplineSet
42 228 m 1,0,-1
 226 338 l 1,1,2
 336 178 336 178 510 178 c 0,3,4
 588 178 588 178 633 210 c 128,-1,5
 678 242 678 242 678 292 c 0,6,7
 678 308 678 308 673 322 c 128,-1,8
 668 336 668 336 657 349 c 128,-1,9
 646 362 646 362 637 371 c 128,-1,10
 628 380 628 380 607 391 c 128,-1,11
 586 402 586 402 573 408 c 128,-1,12
 560 414 560 414 533 424 c 128,-1,13
 506 434 506 434 491 439 c 128,-1,14
 476 444 476 444 443 454 c 128,-1,15
 410 464 410 464 396 470 c 0,16,17
 258 514 258 514 174 586 c 128,-1,18
 90 658 90 658 90 792 c 0,19,20
 90 936 90 936 214 1022 c 128,-1,21
 338 1108 338 1108 512 1108 c 0,22,23
 646 1108 646 1108 765 1039 c 128,-1,24
 884 970 884 970 942 858 c 1,25,-1
 770 754 l 1,26,27
 658 898 658 898 514 898 c 0,28,29
 438 898 438 898 397 868 c 128,-1,30
 356 838 356 838 356 788 c 0,31,32
 356 772 356 772 361 758 c 128,-1,33
 366 744 366 744 377 731 c 128,-1,34
 388 718 388 718 398 708 c 128,-1,35
 408 698 408 698 427 687 c 128,-1,36
 446 676 446 676 459 669 c 128,-1,37
 472 662 472 662 498 653 c 128,-1,38
 524 644 524 644 539 640 c 128,-1,39
 554 636 554 636 583 626 c 128,-1,40
 612 616 612 616 624 612 c 0,41,42
 944 506 944 506 944 290 c 0,43,44
 944 156 944 156 833 62 c 128,-1,45
 722 -32 722 -32 516 -32 c 0,46,47
 358 -32 358 -32 233 39 c 128,-1,48
 108 110 108 110 42 228 c 1,0,-1
EndSplineSet
Substitution2: "'hist' Historical Forms lookup 11 subtable" longs
Substitution2: "'sups' Superscript lookup 5 subtable" uni02E2
AlternateSubs2: "'aalt' Access All Alternates lookup 1 subtable" uni02E2 longs
EndChar

StartChar: t
Encoding: 116 116 87
Width: 742
GlyphClass: 2
Flags: W
LayerCount: 2
Fore
SplineSet
32 854 m 1,0,-1
 32 1076 l 1,1,-1
 192 1076 l 1,2,-1
 192 1388 l 1,3,-1
 452 1388 l 1,4,-1
 452 1076 l 1,5,-1
 684 1076 l 1,6,-1
 684 854 l 1,7,-1
 452 854 l 1,8,-1
 452 354 l 2,9,10
 452 222 452 222 566 222 c 2,11,-1
 686 222 l 1,12,-1
 686 0 l 1,13,-1
 534 0 l 2,14,15
 376 0 376 0 284 80 c 128,-1,16
 192 160 192 160 192 338 c 2,17,-1
 192 854 l 1,18,-1
 32 854 l 1,0,-1
EndSplineSet
EndChar

StartChar: u
Encoding: 117 117 88
Width: 1114
GlyphClass: 2
Flags: W
LayerCount: 2
Fore
SplineSet
106 394 m 2,0,-1
 106 1076 l 1,1,-1
 368 1076 l 1,2,-1
 368 424 l 2,3,4
 368 190 368 190 528 190 c 0,5,6
 624 190 624 190 679 275 c 128,-1,7
 734 360 734 360 734 476 c 2,8,-1
 734 1076 l 1,9,-1
 994 1076 l 1,10,-1
 994 0 l 1,11,-1
 744 0 l 1,12,-1
 744 112 l 1,13,-1
 740 112 l 1,14,15
 710 54 710 54 640 11 c 128,-1,16
 570 -32 570 -32 472 -32 c 0,17,18
 410 -32 410 -32 352 -14 c 128,-1,19
 294 4 294 4 236 47 c 128,-1,20
 178 90 178 90 142 179 c 128,-1,21
 106 268 106 268 106 394 c 2,0,-1
EndSplineSet
EndChar

StartChar: v
Encoding: 118 118 89
Width: 1058
GlyphClass: 2
Flags: W
LayerCount: 2
Fore
SplineSet
16 1076 m 1,0,-1
 300 1076 l 1,1,-1
 442 562 l 2,2,3
 468 462 468 462 526 220 c 1,4,-1
 532 220 l 1,5,6
 578 408 578 408 620 562 c 2,7,-1
 758 1076 l 1,8,-1
 1042 1076 l 1,9,-1
 676 0 l 1,10,-1
 382 0 l 1,11,-1
 16 1076 l 1,0,-1
EndSplineSet
EndChar

StartChar: w
Encoding: 119 119 90
Width: 1494
GlyphClass: 2
Flags: W
LayerCount: 2
Fore
SplineSet
16 1076 m 1,0,-1
 296 1076 l 1,1,-1
 392 574 l 2,2,3
 392 570 392 570 412 451 c 128,-1,4
 432 332 432 332 448 256 c 1,5,-1
 454 256 l 1,6,7
 464 304 464 304 486 418 c 128,-1,8
 508 532 508 532 514 574 c 2,9,-1
 616 1076 l 1,10,-1
 882 1076 l 1,11,-1
 982 572 l 2,12,13
 990 530 990 530 1011 420 c 128,-1,14
 1032 310 1032 310 1040 256 c 1,15,-1
 1048 256 l 1,16,17
 1056 300 1056 300 1104 574 c 2,18,-1
 1200 1076 l 1,19,-1
 1480 1076 l 1,20,-1
 1190 0 l 1,21,-1
 906 0 l 1,22,-1
 808 486 l 2,23,24
 800 536 800 536 780 640 c 128,-1,25
 760 744 760 744 752 792 c 1,26,-1
 746 792 l 1,27,28
 736 734 736 734 715 622 c 128,-1,29
 694 510 694 510 690 486 c 2,30,-1
 592 0 l 1,31,-1
 306 0 l 1,32,-1
 16 1076 l 1,0,-1
EndSplineSet
Substitution2: "'sups' Superscript lookup 5 subtable" uni02B7
Substitution2: "'aalt' Access All Alternates lookup 0 subtable" uni02B7
EndChar

StartChar: x
Encoding: 120 120 91
Width: 1094
GlyphClass: 2
Flags: W
LayerCount: 2
Fore
SplineSet
10 0 m 1,0,-1
 394 550 l 1,1,-1
 30 1076 l 1,2,-1
 346 1076 l 1,3,-1
 472 856 l 2,4,5
 482 836 482 836 507 791 c 128,-1,6
 532 746 532 746 542 726 c 1,7,-1
 548 726 l 1,8,9
 554 736 554 736 580 784 c 128,-1,10
 606 832 606 832 620 856 c 2,11,-1
 744 1076 l 1,12,-1
 1060 1076 l 1,13,-1
 698 550 l 1,14,-1
 1080 0 l 1,15,-1
 770 0 l 1,16,-1
 628 240 l 2,17,18
 568 344 568 344 548 380 c 1,19,-1
 542 380 l 1,20,21
 510 320 510 320 462 240 c 2,22,-1
 320 0 l 1,23,-1
 10 0 l 1,0,-1
EndSplineSet
Substitution2: "'sups' Superscript lookup 5 subtable" uni02E3
Substitution2: "'aalt' Access All Alternates lookup 0 subtable" uni02E3
EndChar

StartChar: y
Encoding: 121 121 92
Width: 1060
GlyphClass: 2
Flags: W
LayerCount: 2
Fore
SplineSet
12 1076 m 1,0,-1
 296 1076 l 1,1,-1
 470 546 l 2,2,3
 478 516 478 516 536 304 c 1,4,-1
 542 304 l 1,5,6
 578 450 578 450 606 546 c 2,7,-1
 764 1076 l 1,8,-1
 1046 1076 l 1,9,-1
 604 -130 l 2,10,11
 542 -296 542 -296 444 -363 c 128,-1,12
 346 -430 346 -430 198 -430 c 2,13,-1
 122 -430 l 1,14,-1
 122 -212 l 1,15,-1
 156 -212 l 2,16,17
 242 -212 242 -212 294 -179 c 128,-1,18
 346 -146 346 -146 376 -62 c 2,19,-1
 410 38 l 1,20,-1
 12 1076 l 1,0,-1
EndSplineSet
Substitution2: "'sups' Superscript lookup 5 subtable" uni02B8
Substitution2: "'aalt' Access All Alternates lookup 0 subtable" uni02B8
EndChar

StartChar: z
Encoding: 122 122 93
Width: 984
GlyphClass: 2
Flags: W
LayerCount: 2
Fore
SplineSet
44 0 m 1,0,-1
 44 172 l 1,1,-1
 578 854 l 1,2,-1
 86 854 l 1,3,-1
 86 1076 l 1,4,-1
 920 1076 l 1,5,-1
 920 912 l 1,6,-1
 382 222 l 1,7,-1
 942 222 l 1,8,-1
 942 0 l 1,9,-1
 44 0 l 1,0,-1
EndSplineSet
EndChar

StartChar: braceleft
Encoding: 123 123 94
Width: 884
GlyphClass: 2
Flags: W
LayerCount: 2
Fore
SplineSet
110 606 m 1,0,-1
 110 808 l 1,1,-1
 176 808 l 2,2,3
 266 808 266 808 266 1004 c 2,4,-1
 266 1358 l 2,5,6
 266 1498 266 1498 347 1573 c 128,-1,7
 428 1648 428 1648 560 1648 c 2,8,-1
 730 1648 l 1,9,-1
 730 1434 l 1,10,-1
 608 1434 l 2,11,12
 572 1434 572 1434 551 1405 c 128,-1,13
 530 1376 530 1376 530 1330 c 2,14,-1
 530 976 l 2,15,16
 530 804 530 804 388 706 c 1,17,18
 530 618 530 618 530 444 c 2,19,-1
 530 88 l 2,20,21
 530 -18 530 -18 612 -18 c 2,22,-1
 730 -18 l 1,23,-1
 730 -234 l 1,24,-1
 558 -234 l 2,25,26
 430 -234 430 -234 348 -163 c 128,-1,27
 266 -92 266 -92 266 52 c 2,28,-1
 266 412 l 2,29,30
 266 492 266 492 244 549 c 128,-1,31
 222 606 222 606 176 606 c 2,32,-1
 110 606 l 1,0,-1
EndSplineSet
EndChar

StartChar: bar
Encoding: 124 124 95
Width: 602
GlyphClass: 2
Flags: W
LayerCount: 2
Fore
SplineSet
172 -304 m 1,0,-1
 172 1716 l 1,1,-1
 432 1716 l 1,2,-1
 432 -304 l 1,3,-1
 172 -304 l 1,0,-1
EndSplineSet
EndChar

StartChar: braceright
Encoding: 125 125 96
Width: 884
GlyphClass: 2
Flags: W
LayerCount: 2
Fore
SplineSet
156 -18 m 1,0,-1
 276 -18 l 2,1,2
 356 -18 356 -18 356 86 c 2,3,-1
 356 444 l 2,4,5
 356 610 356 610 494 708 c 1,6,7
 356 802 356 802 356 976 c 2,8,-1
 356 1330 l 2,9,10
 356 1376 356 1376 335 1405 c 128,-1,11
 314 1434 314 1434 278 1434 c 2,12,-1
 156 1434 l 1,13,-1
 156 1648 l 1,14,-1
 326 1648 l 2,15,16
 458 1648 458 1648 539 1573 c 128,-1,17
 620 1498 620 1498 620 1358 c 2,18,-1
 620 1004 l 2,19,20
 620 808 620 808 710 808 c 2,21,-1
 774 808 l 1,22,-1
 774 606 l 1,23,-1
 710 606 l 2,24,25
 678 606 678 606 656 574 c 128,-1,26
 634 542 634 542 627 501 c 128,-1,27
 620 460 620 460 620 412 c 2,28,-1
 620 52 l 2,29,30
 620 -92 620 -92 536 -163 c 128,-1,31
 452 -234 452 -234 326 -234 c 2,32,-1
 156 -234 l 1,33,-1
 156 -18 l 1,0,-1
EndSplineSet
EndChar

StartChar: asciitilde
Encoding: 126 126 97
Width: 1598
GlyphClass: 2
Flags: W
LayerCount: 2
Fore
SplineSet
122 594 m 1,0,1
 256 958 256 958 560 958 c 0,2,3
 642 958 642 958 716 918 c 128,-1,4
 790 878 790 878 835 831 c 128,-1,5
 880 784 880 784 933 744 c 128,-1,6
 986 704 986 704 1032 704 c 256,7,8
 1078 704 1078 704 1114 722 c 128,-1,9
 1150 740 1150 740 1176 779 c 128,-1,10
 1202 818 1202 818 1215 845 c 128,-1,11
 1228 872 1228 872 1246 918 c 1,12,-1
 1476 820 l 1,13,14
 1348 456 1348 456 1040 456 c 0,15,16
 960 456 960 456 885 496 c 128,-1,17
 810 536 810 536 765 585 c 128,-1,18
 720 634 720 634 664 674 c 128,-1,19
 608 714 608 714 562 714 c 0,20,21
 432 714 432 714 352 498 c 1,22,-1
 122 594 l 1,0,1
EndSplineSet
EndChar

StartChar: exclamdown
Encoding: 161 161 99
Width: 620
GlyphClass: 2
Flags: W
LayerCount: 2
Fore
SplineSet
166 -400 m 1,0,-1
 184 660 l 1,1,-1
 438 660 l 1,2,-1
 454 -400 l 1,3,-1
 166 -400 l 1,0,-1
142 786 m 1,4,-1
 142 1084 l 1,5,-1
 478 1084 l 1,6,-1
 478 786 l 1,7,-1
 142 786 l 1,4,-1
EndSplineSet
EndChar

StartChar: cent
Encoding: 162 162 100
Width: 1038
GlyphClass: 2
Flags: W
LayerCount: 2
Fore
SplineSet
62 538 m 0,0,1
 62 746 62 746 159 898 c 128,-1,2
 256 1050 256 1050 432 1092 c 1,3,-1
 432 1248 l 1,4,-1
 670 1248 l 1,5,-1
 670 1096 l 1,6,7
 792 1066 792 1066 873 975 c 128,-1,8
 954 884 954 884 980 778 c 1,9,-1
 760 718 l 1,10,11
 736 788 736 788 689 837 c 128,-1,12
 642 886 642 886 572 886 c 0,13,14
 454 886 454 886 392 787 c 128,-1,15
 330 688 330 688 330 538 c 0,16,17
 330 380 330 380 394 285 c 128,-1,18
 458 190 458 190 568 190 c 0,19,20
 648 190 648 190 704 243 c 128,-1,21
 760 296 760 296 784 372 c 1,22,-1
 1004 310 l 1,23,24
 978 202 978 202 892 109 c 128,-1,25
 806 16 806 16 670 -20 c 1,26,-1
 670 -184 l 1,27,-1
 432 -184 l 1,28,-1
 432 -16 l 1,29,30
 270 20 270 20 166 168 c 128,-1,31
 62 316 62 316 62 538 c 0,0,1
EndSplineSet
EndChar

StartChar: sterling
Encoding: 163 163 101
Width: 1216
GlyphClass: 2
Flags: W
LayerCount: 2
Fore
SplineSet
76 606 m 1,0,-1
 76 838 l 1,1,-1
 286 838 l 1,2,-1
 286 1116 l 2,3,4
 286 1304 286 1304 412 1403 c 128,-1,5
 538 1502 538 1502 752 1502 c 0,6,7
 892 1502 892 1502 997 1428 c 128,-1,8
 1102 1354 1102 1354 1152 1262 c 1,9,-1
 946 1160 l 1,10,11
 872 1264 872 1264 754 1264 c 0,12,13
 668 1264 668 1264 612 1221 c 128,-1,14
 556 1178 556 1178 556 1090 c 2,15,-1
 556 838 l 1,16,-1
 944 838 l 1,17,-1
 944 606 l 1,18,-1
 556 606 l 1,19,-1
 556 444 l 2,20,21
 556 316 556 316 514 260 c 1,22,23
 576 268 576 268 602 268 c 0,24,25
 662 268 662 268 754 234 c 128,-1,26
 846 200 846 200 914 200 c 0,27,28
 1024 200 1024 200 1132 256 c 1,29,-1
 1202 32 l 1,30,31
 1048 -32 1048 -32 914 -32 c 0,32,33
 848 -32 848 -32 713 2 c 128,-1,34
 578 36 578 36 514 36 c 0,35,36
 444 36 444 36 348 22 c 128,-1,37
 252 8 252 8 190 -8 c 2,38,-1
 130 -22 l 1,39,-1
 68 170 l 1,40,41
 286 216 286 216 286 430 c 2,42,-1
 286 606 l 1,43,-1
 76 606 l 1,0,-1
EndSplineSet
EndChar

StartChar: currency
Encoding: 164 164 102
Width: 1328
GlyphClass: 2
Flags: W
LayerCount: 2
Fore
SplineSet
40 302 m 1,0,-1
 258 502 l 1,1,2
 196 588 196 588 196 726 c 0,3,4
 196 866 196 866 258 952 c 1,5,-1
 40 1150 l 1,6,-1
 220 1322 l 1,7,-1
 426 1122 l 1,8,9
 550 1190 550 1190 664 1190 c 0,10,11
 782 1190 782 1190 906 1122 c 1,12,-1
 1108 1322 l 1,13,-1
 1290 1150 l 1,14,-1
 1074 952 l 1,15,16
 1136 860 1136 860 1136 726 c 0,17,18
 1136 662 1136 662 1116 599 c 128,-1,19
 1096 536 1096 536 1072 502 c 1,20,-1
 1290 302 l 1,21,-1
 1108 130 l 1,22,-1
 904 328 l 1,23,24
 780 260 780 260 664 260 c 0,25,26
 538 260 538 260 426 328 c 1,27,-1
 220 132 l 1,28,-1
 40 302 l 1,0,-1
432 726 m 0,29,30
 432 632 432 632 496 563 c 128,-1,31
 560 494 560 494 664 494 c 0,32,33
 766 494 766 494 831 562 c 128,-1,34
 896 630 896 630 896 726 c 0,35,36
 896 824 896 824 831 891 c 128,-1,37
 766 958 766 958 664 958 c 0,38,39
 560 958 560 958 496 888 c 128,-1,40
 432 818 432 818 432 726 c 0,29,30
EndSplineSet
EndChar

StartChar: yen
Encoding: 165 165 103
Width: 1276
GlyphClass: 2
Flags: W
LayerCount: 2
Fore
SplineSet
-4 1470 m 1,0,-1
 308 1470 l 1,1,-1
 506 1134 l 2,2,3
 608 956 608 956 636 904 c 1,4,-1
 642 904 l 1,5,-1
 774 1134 l 1,6,-1
 974 1470 l 1,7,-1
 1284 1470 l 1,8,-1
 880 850 l 1,9,-1
 1156 850 l 1,10,-1
 1156 660 l 1,11,-1
 776 660 l 1,12,-1
 776 474 l 1,13,-1
 1156 474 l 1,14,-1
 1156 284 l 1,15,-1
 776 284 l 1,16,-1
 776 0 l 1,17,-1
 504 0 l 1,18,-1
 504 284 l 1,19,-1
 124 284 l 1,20,-1
 124 474 l 1,21,-1
 504 474 l 1,22,-1
 504 660 l 1,23,-1
 124 660 l 1,24,-1
 124 850 l 1,25,-1
 400 850 l 1,26,-1
 -4 1470 l 1,0,-1
EndSplineSet
EndChar

StartChar: brokenbar
Encoding: 166 166 104
Width: 602
GlyphClass: 2
Flags: W
LayerCount: 2
Fore
SplineSet
172 904 m 1,0,-1
 172 1716 l 1,1,-1
 432 1716 l 1,2,-1
 432 904 l 1,3,-1
 172 904 l 1,0,-1
172 -304 m 1,4,-1
 172 506 l 1,5,-1
 432 506 l 1,6,-1
 432 -304 l 1,7,-1
 172 -304 l 1,4,-1
EndSplineSet
EndChar

StartChar: section
Encoding: 167 167 105
Width: 1094
GlyphClass: 2
Flags: W
LayerCount: 2
Fore
SplineSet
64 112 m 1,0,-1
 240 244 l 1,1,2
 342 122 342 122 506 122 c 0,3,4
 672 122 672 122 672 206 c 0,5,6
 672 260 672 260 584 300 c 2,7,-1
 376 396 l 2,8,9
 104 518 104 518 104 722 c 0,10,11
 104 808 104 808 152 877 c 128,-1,12
 200 946 200 946 258 988 c 1,13,14
 154 1076 154 1076 154 1194 c 0,15,16
 154 1332 154 1332 265 1417 c 128,-1,17
 376 1502 376 1502 600 1502 c 0,18,19
 874 1502 874 1502 1032 1298 c 1,20,-1
 862 1162 l 1,21,22
 752 1276 752 1276 594 1276 c 0,23,24
 428 1276 428 1276 428 1192 c 0,25,26
 428 1176 428 1176 433 1163 c 128,-1,27
 438 1150 438 1150 452 1137 c 128,-1,28
 466 1124 466 1124 480 1115 c 128,-1,29
 494 1106 494 1106 519 1094 c 128,-1,30
 544 1082 544 1082 563 1073 c 128,-1,31
 582 1064 582 1064 616 1051 c 128,-1,32
 650 1038 650 1038 674 1026 c 0,33,34
 836 954 836 954 892 910 c 0,35,36
 1026 808 1026 808 1026 654 c 0,37,38
 1026 498 1026 498 882 388 c 1,39,40
 946 308 946 308 946 208 c 0,41,42
 946 62 946 62 836 -22 c 128,-1,43
 726 -106 726 -106 506 -106 c 0,44,45
 364 -106 364 -106 241 -42 c 128,-1,46
 118 22 118 22 64 112 c 1,0,-1
380 728 m 0,47,48
 380 674 380 674 413 641 c 128,-1,49
 446 608 446 608 516 576 c 2,50,-1
 674 504 l 1,51,52
 750 580 750 580 750 654 c 0,53,54
 750 734 750 734 610 800 c 2,55,-1
 462 872 l 1,56,57
 380 808 380 808 380 728 c 0,47,48
EndSplineSet
EndChar

StartChar: dieresis
Encoding: 168 168 106
Width: 1054
GlyphClass: 2
Flags: W
LayerCount: 2
Fore
SplineSet
188 1190 m 1,0,-1
 188 1470 l 1,1,-1
 462 1470 l 1,2,-1
 462 1190 l 1,3,-1
 188 1190 l 1,0,-1
594 1190 m 1,4,-1
 594 1470 l 1,5,-1
 868 1470 l 1,6,-1
 868 1190 l 1,7,-1
 594 1190 l 1,4,-1
EndSplineSet
EndChar

StartChar: copyright
Encoding: 169 169 107
Width: 1692
GlyphClass: 2
Flags: W
LayerCount: 2
Fore
SplineSet
460 746 m 0,0,1
 460 972 460 972 574 1090 c 128,-1,2
 688 1208 688 1208 870 1208 c 0,3,4
 1012 1208 1012 1208 1096 1129 c 128,-1,5
 1180 1050 1180 1050 1206 938 c 1,6,-1
 1026 886 l 1,7,8
 976 1022 976 1022 872 1022 c 0,9,10
 680 1022 680 1022 680 746 c 256,11,12
 680 470 680 470 872 470 c 0,13,14
 938 470 938 470 982 513 c 128,-1,15
 1026 556 1026 556 1044 616 c 1,16,-1
 1228 564 l 1,17,18
 1198 444 1198 444 1106 364 c 128,-1,19
 1014 284 1014 284 870 284 c 0,20,21
 688 284 688 284 574 403 c 128,-1,22
 460 522 460 522 460 746 c 0,0,1
66 744 m 0,23,24
 66 1108 66 1108 289 1325 c 128,-1,25
 512 1542 512 1542 848 1542 c 0,26,27
 1188 1542 1188 1542 1408 1322 c 128,-1,28
 1628 1102 1628 1102 1628 744 c 0,29,30
 1628 388 1628 388 1409 167 c 128,-1,31
 1190 -54 1190 -54 848 -54 c 0,32,33
 628 -54 628 -54 452 40 c 128,-1,34
 276 134 276 134 171 317 c 128,-1,35
 66 500 66 500 66 744 c 0,23,24
260 744 m 256,36,37
 260 452 260 452 422 283 c 128,-1,38
 584 114 584 114 848 114 c 0,39,40
 1100 114 1100 114 1269 277 c 128,-1,41
 1438 440 1438 440 1438 744 c 0,42,43
 1438 1038 1438 1038 1273 1206 c 128,-1,44
 1108 1374 1108 1374 848 1374 c 0,45,46
 582 1374 582 1374 421 1205 c 128,-1,47
 260 1036 260 1036 260 744 c 256,36,37
EndSplineSet
EndChar

StartChar: ordfeminine
Encoding: 170 170 108
Width: 768
GlyphClass: 2
Flags: W
LayerCount: 2
Fore
SplineSet
50 544 m 1,0,-1
 50 706 l 1,1,-1
 722 706 l 1,2,-1
 722 544 l 1,3,-1
 50 544 l 1,0,-1
228 1066 m 0,4,5
 228 1026 228 1026 257 1001 c 128,-1,6
 286 976 286 976 336 976 c 0,7,8
 410 976 410 976 462 1025 c 128,-1,9
 514 1074 514 1074 514 1156 c 2,10,-1
 514 1220 l 1,11,12
 492 1214 492 1214 451 1207 c 128,-1,13
 410 1200 410 1200 389 1195 c 128,-1,14
 368 1190 368 1190 336 1182 c 128,-1,15
 304 1174 304 1174 290 1165 c 128,-1,16
 276 1156 276 1156 259 1142 c 128,-1,17
 242 1128 242 1128 235 1109 c 128,-1,18
 228 1090 228 1090 228 1066 c 0,4,5
44 1050 m 0,19,20
 44 1124 44 1124 80 1176 c 128,-1,21
 116 1228 116 1228 178 1256 c 128,-1,22
 240 1284 240 1284 297 1298 c 128,-1,23
 354 1312 354 1312 423 1323 c 128,-1,24
 492 1334 492 1334 514 1342 c 1,25,-1
 514 1384 l 2,26,27
 514 1438 514 1438 478 1464 c 128,-1,28
 442 1490 442 1490 384 1490 c 0,29,30
 262 1490 262 1490 172 1394 c 1,31,-1
 64 1484 l 1,32,33
 116 1548 116 1548 202 1588 c 128,-1,34
 288 1628 288 1628 382 1628 c 0,35,36
 554 1628 554 1628 626 1546 c 128,-1,37
 698 1464 698 1464 698 1314 c 2,38,-1
 698 850 l 1,39,-1
 522 850 l 1,40,-1
 522 942 l 1,41,42
 452 826 452 826 310 826 c 0,43,44
 186 826 186 826 115 888 c 128,-1,45
 44 950 44 950 44 1050 c 0,19,20
EndSplineSet
EndChar

StartChar: guillemotleft
Encoding: 171 171 109
Width: 1074
GlyphClass: 2
Flags: W
LayerCount: 2
Fore
SplineSet
74 538 m 1,0,-1
 408 1044 l 1,1,-1
 598 918 l 1,2,-1
 352 538 l 1,3,-1
 594 166 l 1,4,-1
 408 36 l 1,5,-1
 74 538 l 1,0,-1
486 538 m 1,6,-1
 820 1018 l 1,7,-1
 1002 878 l 1,8,-1
 764 538 l 1,9,-1
 1002 198 l 1,10,-1
 820 60 l 1,11,-1
 486 538 l 1,6,-1
EndSplineSet
EndChar

StartChar: logicalnot
Encoding: 172 172 110
Width: 1118
GlyphClass: 2
Flags: W
LayerCount: 2
Fore
SplineSet
92 578 m 1,0,-1
 92 810 l 1,1,-1
 1030 810 l 1,2,-1
 1030 234 l 1,3,-1
 782 234 l 1,4,-1
 782 578 l 1,5,-1
 92 578 l 1,0,-1
EndSplineSet
EndChar

StartChar: uni00AD
Encoding: 173 173 111
Width: 1132
GlyphClass: 2
Flags: W
LayerCount: 2
Fore
SplineSet
112 618 m 1,0,-1
 112 850 l 1,1,-1
 1020 850 l 1,2,-1
 1020 618 l 1,3,-1
 112 618 l 1,0,-1
EndSplineSet
EndChar

StartChar: registered
Encoding: 174 174 112
Width: 1692
GlyphClass: 2
Flags: W
LayerCount: 2
Fore
SplineSet
66 746 m 0,0,1
 66 1112 66 1112 289 1327 c 128,-1,2
 512 1542 512 1542 848 1542 c 0,3,4
 1190 1542 1190 1542 1409 1322 c 128,-1,5
 1628 1102 1628 1102 1628 746 c 0,6,7
 1628 388 1628 388 1409 167 c 128,-1,8
 1190 -54 1190 -54 848 -54 c 0,9,10
 512 -54 512 -54 289 164 c 128,-1,11
 66 382 66 382 66 746 c 0,0,1
1438 746 m 0,12,13
 1438 1046 1438 1046 1272 1205 c 128,-1,14
 1106 1364 1106 1364 848 1364 c 0,15,16
 578 1364 578 1364 419 1201 c 128,-1,17
 260 1038 260 1038 260 746 c 0,18,19
 260 452 260 452 419 288 c 128,-1,20
 578 124 578 124 848 124 c 0,21,22
 1108 124 1108 124 1274 286 c 0,23,24
 1288 300 1288 300 1298 312 c 0,25,26
 1438 472 1438 472 1438 746 c 0,12,13
528 286 m 1,27,-1
 528 1188 l 1,28,-1
 908 1188 l 2,29,30
 1048 1188 1048 1188 1124 1110 c 128,-1,31
 1200 1032 1200 1032 1200 920 c 0,32,33
 1200 768 1200 768 1090 704 c 1,34,35
 1122 672 1122 672 1136 641 c 128,-1,36
 1150 610 1150 610 1164 550 c 0,37,38
 1170 518 1170 518 1179 490 c 128,-1,39
 1188 462 1188 462 1202 430 c 128,-1,40
 1216 398 1216 398 1224 384 c 0,41,42
 1228 374 1228 374 1236 358 c 1,43,44
 1166 338 1166 338 1034 286 c 1,45,46
 974 368 974 368 940 532 c 0,47,48
 934 572 934 572 930 586 c 128,-1,49
 926 600 926 600 912 616 c 128,-1,50
 898 632 898 632 876 632 c 2,51,-1
 746 632 l 1,52,-1
 746 286 l 1,53,-1
 528 286 l 1,27,-1
746 798 m 1,54,-1
 878 798 l 2,55,56
 928 798 928 798 952 825 c 128,-1,57
 976 852 976 852 976 898 c 0,58,59
 976 938 976 938 949 967 c 128,-1,60
 922 996 922 996 878 996 c 2,61,-1
 746 996 l 1,62,-1
 746 798 l 1,54,-1
1252 332 m 0,63,64
 1270 298 1270 298 1274 288 c 1,65,66
 1286 300 1286 300 1298 312 c 0,67,68
 1322 338 1322 338 1322 352 c 0,69,70
 1322 368 1322 368 1294 368 c 0,71,72
 1274 368 1274 368 1236 358 c 1,73,74
 1242 346 1242 346 1252 332 c 0,63,64
EndSplineSet
EndChar

StartChar: macron
Encoding: 175 175 113
Width: 980
GlyphClass: 2
Flags: W
LayerCount: 2
Fore
SplineSet
8 1354 m 1,0,-1
 8 1584 l 1,1,-1
 974 1584 l 1,2,-1
 974 1354 l 1,3,-1
 8 1354 l 1,0,-1
EndSplineSet
EndChar

StartChar: degree
Encoding: 176 176 114
Width: 868
GlyphClass: 2
Flags: W
LayerCount: 2
Fore
SplineSet
162 1210 m 0,0,1
 162 1324 162 1324 240 1402 c 128,-1,2
 318 1480 318 1480 434 1480 c 0,3,4
 548 1480 548 1480 627 1404 c 128,-1,5
 706 1328 706 1328 706 1210 c 0,6,7
 706 1098 706 1098 626 1020 c 128,-1,8
 546 942 546 942 434 942 c 256,9,10
 322 942 322 942 242 1020 c 128,-1,11
 162 1098 162 1098 162 1210 c 0,0,1
328 1210 m 0,12,13
 328 1164 328 1164 358 1133 c 128,-1,14
 388 1102 388 1102 434 1102 c 256,15,16
 480 1102 480 1102 510 1133 c 128,-1,17
 540 1164 540 1164 540 1210 c 256,18,19
 540 1256 540 1256 510 1288 c 128,-1,20
 480 1320 480 1320 434 1320 c 256,21,22
 388 1320 388 1320 358 1287 c 128,-1,23
 328 1254 328 1254 328 1210 c 0,12,13
EndSplineSet
EndChar

StartChar: plusminus
Encoding: 177 177 115
Width: 1132
GlyphClass: 2
Flags: W
LayerCount: 2
Fore
SplineSet
74 794 m 1,0,-1
 74 1018 l 1,1,-1
 434 1018 l 1,2,-1
 434 1334 l 1,3,-1
 696 1334 l 1,4,-1
 696 1018 l 1,5,-1
 1060 1018 l 1,6,-1
 1060 794 l 1,7,-1
 696 794 l 1,8,-1
 696 482 l 1,9,-1
 434 482 l 1,10,-1
 434 794 l 1,11,-1
 74 794 l 1,0,-1
76 148 m 1,12,-1
 76 372 l 1,13,-1
 1054 372 l 1,14,-1
 1054 148 l 1,15,-1
 76 148 l 1,12,-1
EndSplineSet
EndChar

StartChar: twosuperior
Encoding: 178 178 116
Width: 662
GlyphClass: 2
Flags: W
LayerCount: 2
Fore
SplineSet
46 1376 m 1,0,1
 104 1630 104 1630 330 1630 c 0,2,3
 452 1630 452 1630 529 1560 c 128,-1,4
 606 1490 606 1490 606 1372 c 0,5,6
 606 1252 606 1252 488 1126 c 0,7,8
 472 1108 472 1108 421 1060 c 128,-1,9
 370 1012 370 1012 338 975 c 128,-1,10
 306 938 306 938 284 898 c 1,11,-1
 604 898 l 1,12,-1
 604 744 l 1,13,-1
 56 744 l 1,14,15
 56 872 56 872 116 965 c 128,-1,16
 176 1058 176 1058 334 1208 c 0,17,18
 418 1290 418 1290 418 1374 c 0,19,20
 418 1422 418 1422 393 1449 c 128,-1,21
 368 1476 368 1476 328 1476 c 0,22,23
 234 1476 234 1476 202 1330 c 1,24,-1
 46 1376 l 1,0,1
EndSplineSet
EndChar

StartChar: threesuperior
Encoding: 179 179 117
Width: 662
GlyphClass: 2
Flags: W
LayerCount: 2
Fore
SplineSet
28 942 m 1,0,-1
 176 996 l 1,1,2
 222 878 222 878 322 878 c 0,3,4
 372 878 372 878 406 909 c 128,-1,5
 440 940 440 940 440 996 c 0,6,7
 440 1048 440 1048 402 1082 c 128,-1,8
 364 1116 364 1116 302 1116 c 0,9,10
 260 1116 260 1116 210 1110 c 1,11,-1
 210 1268 l 1,12,13
 280 1264 280 1264 298 1264 c 0,14,15
 346 1264 346 1264 378 1292 c 128,-1,16
 410 1320 410 1320 410 1374 c 0,17,18
 410 1416 410 1416 383 1445 c 128,-1,19
 356 1474 356 1474 314 1474 c 0,20,21
 266 1474 266 1474 243 1442 c 128,-1,22
 220 1410 220 1410 200 1352 c 1,23,-1
 46 1398 l 1,24,25
 62 1472 62 1472 99 1522 c 128,-1,26
 136 1572 136 1572 180 1593 c 128,-1,27
 224 1614 224 1614 257 1621 c 128,-1,28
 290 1628 290 1628 324 1628 c 0,29,30
 448 1628 448 1628 523 1560 c 128,-1,31
 598 1492 598 1492 598 1388 c 0,32,33
 598 1268 598 1268 504 1200 c 1,34,35
 556 1174 556 1174 592 1122 c 128,-1,36
 628 1070 628 1070 628 996 c 0,37,38
 628 870 628 870 545 796 c 128,-1,39
 462 722 462 722 324 722 c 0,40,41
 222 722 222 722 139 778 c 128,-1,42
 56 834 56 834 28 942 c 1,0,-1
EndSplineSet
EndChar

StartChar: acute
Encoding: 180 180 118
Width: 794
GlyphClass: 2
Flags: W
LayerCount: 2
Fore
SplineSet
172 1290 m 1,0,-1
 382 1644 l 1,1,-1
 692 1644 l 1,2,-1
 390 1290 l 1,3,-1
 172 1290 l 1,0,-1
EndSplineSet
EndChar

StartChar: uni00B5
Encoding: 181 181 119
Width: 1126
GlyphClass: 2
Flags: W
LayerCount: 2
Fore
SplineSet
132 -430 m 1,0,-1
 132 1076 l 1,1,-1
 390 1076 l 1,2,-1
 390 424 l 2,3,4
 390 190 390 190 552 190 c 0,5,6
 648 190 648 190 702 276 c 128,-1,7
 756 362 756 362 756 476 c 2,8,-1
 756 1076 l 1,9,-1
 1018 1076 l 1,10,-1
 1018 0 l 1,11,-1
 766 0 l 1,12,-1
 766 104 l 1,13,14
 742 54 742 54 672 11 c 128,-1,15
 602 -32 602 -32 504 -32 c 0,16,17
 436 -32 436 -32 390 4 c 1,18,-1
 390 -430 l 1,19,-1
 132 -430 l 1,0,-1
EndSplineSet
EndChar

StartChar: paragraph
Encoding: 182 182 120
Width: 1268
GlyphClass: 2
Flags: W
LayerCount: 2
Fore
SplineSet
94 1100 m 0,0,1
 94 1298 94 1298 200 1421 c 128,-1,2
 306 1544 306 1544 512 1544 c 2,3,-1
 1114 1544 l 1,4,-1
 1114 -144 l 1,5,-1
 900 -144 l 1,6,-1
 900 1308 l 1,7,-1
 770 1308 l 1,8,-1
 770 -144 l 1,9,-1
 556 -144 l 1,10,-1
 556 642 l 1,11,12
 522 632 522 632 482 632 c 0,13,14
 318 632 318 632 206 752 c 128,-1,15
 94 872 94 872 94 1100 c 0,0,1
EndSplineSet
EndChar

StartChar: periodcentered
Encoding: 183 183 121
Width: 704
GlyphClass: 2
Flags: W
LayerCount: 2
Fore
SplineSet
186 556 m 1,0,-1
 186 858 l 1,1,-1
 518 858 l 1,2,-1
 518 556 l 1,3,-1
 186 556 l 1,0,-1
EndSplineSet
EndChar

StartChar: cedilla
Encoding: 184 184 122
Width: 626
GlyphClass: 2
Flags: W
LayerCount: 2
Fore
SplineSet
84 -244 m 1,0,1
 166 -262 166 -262 206 -262 c 0,2,3
 300 -262 300 -262 300 -218 c 0,4,5
 300 -156 300 -156 124 -146 c 1,6,-1
 244 94 l 1,7,-1
 472 94 l 1,8,-1
 412 -30 l 1,9,10
 542 -76 542 -76 542 -220 c 0,11,12
 542 -310 542 -310 472 -379 c 128,-1,13
 402 -448 402 -448 230 -448 c 0,14,15
 136 -448 136 -448 84 -430 c 1,16,-1
 84 -244 l 1,0,1
EndSplineSet
EndChar

StartChar: onesuperior
Encoding: 185 185 123
Width: 662
GlyphClass: 2
Flags: W
LayerCount: 2
Fore
SplineSet
80 1320 m 1,0,-1
 80 1466 l 1,1,-1
 134 1466 l 2,2,3
 294 1466 294 1466 294 1584 c 2,4,-1
 294 1618 l 1,5,-1
 458 1618 l 1,6,-1
 458 746 l 1,7,-1
 270 746 l 1,8,-1
 270 1320 l 1,9,-1
 80 1320 l 1,0,-1
EndSplineSet
EndChar

StartChar: ordmasculine
Encoding: 186 186 124
Width: 788
GlyphClass: 2
Flags: W
LayerCount: 2
Fore
SplineSet
226 1228 m 0,0,1
 226 1100 226 1100 277 1040 c 128,-1,2
 328 980 328 980 394 980 c 0,3,4
 458 980 458 980 509 1040 c 128,-1,5
 560 1100 560 1100 560 1228 c 0,6,7
 560 1360 560 1360 509 1419 c 128,-1,8
 458 1478 458 1478 394 1478 c 0,9,10
 326 1478 326 1478 276 1418 c 128,-1,11
 226 1358 226 1358 226 1228 c 0,0,1
42 1228 m 0,12,13
 42 1398 42 1398 131 1514 c 128,-1,14
 220 1630 220 1630 394 1630 c 0,15,16
 570 1630 570 1630 658 1513 c 128,-1,17
 746 1396 746 1396 746 1228 c 0,18,19
 746 1164 746 1164 730 1100 c 128,-1,20
 714 1036 714 1036 677 972 c 128,-1,21
 640 908 640 908 567 868 c 128,-1,22
 494 828 494 828 394 828 c 0,23,24
 296 828 296 828 223 866 c 128,-1,25
 150 904 150 904 113 966 c 128,-1,26
 76 1028 76 1028 59 1094 c 128,-1,27
 42 1160 42 1160 42 1228 c 0,12,13
50 556 m 1,28,-1
 50 722 l 1,29,-1
 738 722 l 1,30,-1
 738 556 l 1,31,-1
 50 556 l 1,28,-1
EndSplineSet
EndChar

StartChar: guillemotright
Encoding: 187 187 125
Width: 1074
GlyphClass: 2
Flags: W
LayerCount: 2
Fore
SplineSet
74 878 m 1,0,-1
 256 1018 l 1,1,-1
 590 538 l 1,2,-1
 256 60 l 1,3,-1
 74 198 l 1,4,-1
 314 538 l 1,5,-1
 74 878 l 1,0,-1
484 168 m 1,6,-1
 724 538 l 1,7,-1
 480 918 l 1,8,-1
 668 1044 l 1,9,-1
 1002 538 l 1,10,-1
 668 36 l 1,11,-1
 484 168 l 1,6,-1
EndSplineSet
EndChar

StartChar: onequarter
Encoding: 188 188 126
Width: 1956
GlyphClass: 3
Flags: W
LayerCount: 2
Fore
SplineSet
1356 290 m 1,0,-1
 1520 290 l 1,1,-1
 1520 448 l 2,2,3
 1520 466 1520 466 1521 514 c 128,-1,4
 1522 562 1522 562 1522 568 c 1,5,-1
 1356 290 l 1,0,-1
112 1228 m 1,6,-1
 112 1412 l 1,7,-1
 180 1412 l 2,8,9
 356 1412 356 1412 356 1538 c 2,10,-1
 356 1584 l 1,11,-1
 558 1584 l 1,12,-1
 558 574 l 1,13,-1
 328 574 l 1,14,-1
 328 1228 l 1,15,-1
 112 1228 l 1,6,-1
344 -104 m 1,16,-1
 1282 1566 l 1,17,-1
 1524 1566 l 1,18,-1
 590 -104 l 1,19,-1
 344 -104 l 1,16,-1
1130 272 m 1,20,-1
 1556 918 l 1,21,-1
 1744 918 l 1,22,-1
 1744 290 l 1,23,-1
 1854 290 l 1,24,-1
 1854 98 l 1,25,-1
 1744 98 l 1,26,-1
 1744 -106 l 1,27,-1
 1520 -106 l 1,28,-1
 1520 98 l 1,29,-1
 1130 98 l 1,30,-1
 1130 272 l 1,20,-1
EndSplineSet
Ligature2: "'frac' Diagonal Fractions lookup 7 subtable" one fraction four
Ligature2: "'frac' Diagonal Fractions lookup 7 subtable" one slash four
EndChar

StartChar: onehalf
Encoding: 189 189 127
Width: 1956
GlyphClass: 3
Flags: W
LayerCount: 2
Fore
SplineSet
310 -104 m 1,0,-1
 1262 1566 l 1,1,-1
 1504 1566 l 1,2,-1
 558 -104 l 1,3,-1
 310 -104 l 1,0,-1
1158 628 m 1,4,5
 1220 932 1220 932 1490 932 c 0,6,7
 1632 932 1632 932 1723 849 c 128,-1,8
 1814 766 1814 766 1814 628 c 0,9,10
 1814 574 1814 574 1800 527 c 128,-1,11
 1786 480 1786 480 1751 434 c 128,-1,12
 1716 388 1716 388 1693 363 c 128,-1,13
 1670 338 1670 338 1618 286 c 0,14,15
 1492 166 1492 166 1452 98 c 1,16,-1
 1810 98 l 1,17,-1
 1810 -94 l 1,18,-1
 1170 -94 l 1,19,20
 1170 52 1170 52 1233 160 c 128,-1,21
 1296 268 1296 268 1488 450 c 0,22,23
 1584 538 1584 538 1584 632 c 0,24,25
 1584 682 1584 682 1558 710 c 128,-1,26
 1532 738 1532 738 1488 738 c 0,27,28
 1454 738 1454 738 1427 721 c 128,-1,29
 1400 704 1400 704 1386 674 c 128,-1,30
 1372 644 1372 644 1365 623 c 128,-1,31
 1358 602 1358 602 1352 570 c 1,32,-1
 1158 628 l 1,4,5
112 1228 m 1,33,-1
 112 1412 l 1,34,-1
 180 1412 l 2,35,36
 356 1412 356 1412 356 1538 c 2,37,-1
 356 1584 l 1,38,-1
 558 1584 l 1,39,-1
 558 574 l 1,40,-1
 328 574 l 1,41,-1
 328 1228 l 1,42,-1
 112 1228 l 1,33,-1
EndSplineSet
Ligature2: "'frac' Diagonal Fractions lookup 7 subtable" one fraction two
Ligature2: "'frac' Diagonal Fractions lookup 7 subtable" one slash two
EndChar

StartChar: threequarters
Encoding: 190 190 128
Width: 1956
GlyphClass: 3
Flags: W
LayerCount: 2
Fore
SplineSet
94 814 m 1,0,-1
 278 882 l 1,1,2
 292 846 292 846 306 822 c 128,-1,3
 320 798 320 798 356 772 c 128,-1,4
 392 746 392 746 440 746 c 0,5,6
 494 746 494 746 529 778 c 128,-1,7
 564 810 564 810 564 872 c 0,8,9
 564 928 564 928 524 963 c 128,-1,10
 484 998 484 998 418 998 c 0,11,12
 374 998 374 998 304 992 c 1,13,-1
 304 1186 l 1,14,15
 346 1184 346 1184 412 1184 c 0,16,17
 462 1184 462 1184 497 1215 c 128,-1,18
 532 1246 532 1246 532 1300 c 0,19,20
 532 1348 532 1348 504 1377 c 128,-1,21
 476 1406 476 1406 430 1406 c 0,22,23
 394 1406 394 1406 369 1383 c 128,-1,24
 344 1360 344 1360 332 1336 c 128,-1,25
 320 1312 320 1312 304 1266 c 1,26,-1
 116 1324 l 1,27,28
 136 1406 136 1406 175 1464 c 128,-1,29
 214 1522 214 1522 263 1549 c 128,-1,30
 312 1576 312 1576 355 1588 c 128,-1,31
 398 1600 398 1600 442 1600 c 0,32,33
 586 1600 586 1600 674 1519 c 128,-1,34
 762 1438 762 1438 762 1316 c 0,35,36
 762 1186 762 1186 662 1104 c 1,37,38
 796 1028 796 1028 796 872 c 0,39,40
 796 724 796 724 698 638 c 128,-1,41
 600 552 600 552 440 552 c 0,42,43
 326 552 326 552 230 614 c 128,-1,44
 134 676 134 676 94 814 c 1,0,-1
1136 270 m 1,45,-1
 1562 918 l 1,46,-1
 1750 918 l 1,47,-1
 1750 290 l 1,48,-1
 1858 290 l 1,49,-1
 1858 98 l 1,50,-1
 1750 98 l 1,51,-1
 1750 -106 l 1,52,-1
 1524 -106 l 1,53,-1
 1524 98 l 1,54,-1
 1136 98 l 1,55,-1
 1136 270 l 1,45,-1
1362 290 m 1,56,-1
 1524 290 l 1,57,-1
 1524 436 l 2,58,59
 1524 454 1524 454 1525 507 c 128,-1,60
 1526 560 1526 560 1526 566 c 1,61,-1
 1460 452 l 1,62,-1
 1362 290 l 1,56,-1
438 -104 m 1,63,-1
 1400 1566 l 1,64,-1
 1646 1566 l 1,65,-1
 686 -104 l 1,66,-1
 438 -104 l 1,63,-1
EndSplineSet
Ligature2: "'frac' Diagonal Fractions lookup 7 subtable" three fraction four
Ligature2: "'frac' Diagonal Fractions lookup 7 subtable" three slash four
EndChar

StartChar: questiondown
Encoding: 191 191 129
Width: 1154
GlyphClass: 2
Flags: W
LayerCount: 2
Fore
SplineSet
116 -10 m 0,0,1
 116 80 116 80 150 150 c 128,-1,2
 184 220 184 220 233 266 c 128,-1,3
 282 312 282 312 330 357 c 128,-1,4
 378 402 378 402 412 463 c 128,-1,5
 446 524 446 524 446 598 c 2,6,-1
 446 662 l 1,7,-1
 722 662 l 1,8,-1
 722 576 l 2,9,10
 722 496 722 496 698 432 c 128,-1,11
 674 368 674 368 637 326 c 128,-1,12
 600 284 600 284 559 242 c 128,-1,13
 518 200 518 200 482 166 c 128,-1,14
 446 132 446 132 422 82 c 128,-1,15
 398 32 398 32 398 -24 c 0,16,17
 398 -106 398 -106 443 -153 c 128,-1,18
 488 -200 488 -200 562 -200 c 0,19,20
 718 -200 718 -200 796 16 c 1,21,-1
 1038 -64 l 1,22,23
 996 -218 996 -218 872 -325 c 128,-1,24
 748 -432 748 -432 562 -432 c 0,25,26
 366 -432 366 -432 241 -316 c 128,-1,27
 116 -200 116 -200 116 -10 c 0,0,1
416 786 m 1,28,-1
 416 1084 l 1,29,-1
 750 1084 l 1,30,-1
 750 786 l 1,31,-1
 416 786 l 1,28,-1
EndSplineSet
EndChar

StartChar: AE
Encoding: 198 198 136
Width: 1926
GlyphClass: 2
Flags: W
LayerCount: 2
Fore
SplineSet
558 564 m 1,0,-1
 914 564 l 1,1,-1
 914 1210 l 1,2,-1
 896 1210 l 1,3,-1
 558 564 l 1,0,-1
-10 0 m 1,4,-1
 756 1470 l 1,5,-1
 1854 1470 l 1,6,-1
 1854 1238 l 1,7,-1
 1186 1238 l 1,8,-1
 1186 874 l 1,9,-1
 1784 874 l 1,10,-1
 1784 644 l 1,11,-1
 1166 644 l 1,12,-1
 1166 232 l 1,13,-1
 1872 232 l 1,14,-1
 1872 0 l 1,15,-1
 914 0 l 1,16,-1
 914 346 l 1,17,-1
 452 346 l 1,18,-1
 278 0 l 1,19,-1
 -10 0 l 1,4,-1
EndSplineSet
EndChar

StartChar: multiply
Encoding: 215 215 153
Width: 1114
GlyphClass: 2
Flags: W
LayerCount: 2
Fore
SplineSet
66 418 m 1,0,-1
 394 730 l 1,1,-1
 66 1040 l 1,2,-1
 236 1206 l 1,3,-1
 556 892 l 1,4,-1
 876 1206 l 1,5,-1
 1048 1040 l 1,6,-1
 720 730 l 1,7,-1
 1048 418 l 1,8,-1
 876 254 l 1,9,-1
 556 570 l 1,10,-1
 236 254 l 1,11,-1
 66 418 l 1,0,-1
EndSplineSet
EndChar

StartChar: Oslash
Encoding: 216 216 154
Width: 1416
GlyphClass: 2
Flags: W
LayerCount: 2
Fore
SplineSet
72 734 m 0,0,1
 72 1080 72 1080 247 1291 c 128,-1,2
 422 1502 422 1502 708 1502 c 0,3,4
 860 1502 860 1502 982 1440 c 1,5,-1
 1056 1574 l 1,6,-1
 1278 1574 l 1,7,-1
 1144 1324 l 1,8,9
 1346 1112 1346 1112 1346 734 c 0,10,11
 1346 388 1346 388 1171 178 c 128,-1,12
 996 -32 996 -32 708 -32 c 0,13,14
 568 -32 568 -32 452 20 c 1,15,-1
 380 -108 l 1,16,-1
 160 -108 l 1,17,-1
 290 128 l 1,18,19
 72 342 72 342 72 734 c 0,0,1
996 1068 m 1,20,-1
 568 232 l 1,21,22
 620 200 620 200 708 200 c 0,23,24
 874 200 874 200 969 343 c 128,-1,25
 1064 486 1064 486 1064 734 c 0,26,27
 1064 938 1064 938 996 1068 c 1,20,-1
868 1228 m 1,28,29
 796 1270 796 1270 708 1270 c 0,30,31
 542 1270 542 1270 447 1125 c 128,-1,32
 352 980 352 980 352 734 c 0,33,34
 352 530 352 530 430 382 c 1,35,-1
 868 1228 l 1,28,29
EndSplineSet
EndChar

StartChar: Thorn
Encoding: 222 222 160
Width: 1158
GlyphClass: 2
Flags: W
LayerCount: 2
Fore
SplineSet
154 0 m 1,0,-1
 154 1470 l 1,1,-1
 424 1470 l 1,2,-1
 424 1234 l 1,3,-1
 542 1234 l 2,4,5
 696 1234 696 1234 808 1192 c 128,-1,6
 920 1150 920 1150 980 1077 c 128,-1,7
 1040 1004 1040 1004 1068 923 c 128,-1,8
 1096 842 1096 842 1096 746 c 0,9,10
 1096 502 1096 502 951 377 c 128,-1,11
 806 252 806 252 554 252 c 2,12,-1
 424 252 l 1,13,-1
 424 0 l 1,14,-1
 154 0 l 1,0,-1
424 484 m 1,15,-1
 528 484 l 2,16,17
 810 484 810 484 810 752 c 0,18,19
 810 1002 810 1002 524 1002 c 2,20,-1
 424 1002 l 1,21,-1
 424 484 l 1,15,-1
EndSplineSet
EndChar

StartChar: germandbls
Encoding: 223 223 161
Width: 1280
GlyphClass: 2
Flags: W
LayerCount: 2
Fore
SplineSet
154 0 m 1,0,-1
 154 1060 l 2,1,2
 154 1276 154 1276 286 1389 c 128,-1,3
 418 1502 418 1502 614 1502 c 0,4,5
 834 1502 834 1502 967 1395 c 128,-1,6
 1100 1288 1100 1288 1100 1100 c 0,7,8
 1100 902 1100 902 934 800 c 1,9,-1
 934 796 l 1,10,11
 1204 704 1204 704 1204 410 c 0,12,13
 1204 200 1204 200 1077 84 c 128,-1,14
 950 -32 950 -32 730 -32 c 0,15,16
 598 -32 598 -32 492 0 c 1,17,-1
 494 242 l 1,18,19
 602 200 602 200 720 200 c 0,20,21
 804 200 804 200 864 261 c 128,-1,22
 924 322 924 322 924 412 c 0,23,24
 924 528 924 528 859 591 c 128,-1,25
 794 654 794 654 666 654 c 2,26,-1
 532 654 l 1,27,-1
 532 884 l 1,28,-1
 642 884 l 2,29,30
 720 884 720 884 769 937 c 128,-1,31
 818 990 818 990 818 1084 c 0,32,33
 818 1166 818 1166 765 1218 c 128,-1,34
 712 1270 712 1270 622 1270 c 0,35,36
 530 1270 530 1270 478 1207 c 128,-1,37
 426 1144 426 1144 426 1038 c 2,38,-1
 426 0 l 1,39,-1
 154 0 l 1,0,-1
EndSplineSet
EndChar

StartChar: ae
Encoding: 230 230 168
Width: 1766
GlyphClass: 2
Flags: W
LayerCount: 2
Fore
SplineSet
58 292 m 0,0,1
 58 440 58 440 180 536 c 128,-1,2
 302 632 302 632 534 664 c 0,3,4
 658 682 658 682 726 698 c 0,5,6
 726 704 726 704 725 731 c 128,-1,7
 724 758 724 758 724 764 c 0,8,9
 724 828 724 828 672 866 c 128,-1,10
 620 904 620 904 544 904 c 0,11,12
 378 904 378 904 242 766 c 1,13,-1
 86 898 l 1,14,15
 258 1108 258 1108 544 1108 c 0,16,17
 774 1108 774 1108 888 970 c 1,18,19
 1016 1108 1016 1108 1224 1108 c 0,20,21
 1428 1108 1428 1108 1569 951 c 128,-1,22
 1710 794 1710 794 1710 544 c 0,23,24
 1710 528 1710 528 1706 448 c 1,25,-1
 980 448 l 1,26,-1
 980 426 l 2,27,28
 984 332 984 332 1047 254 c 128,-1,29
 1110 176 1110 176 1228 176 c 0,30,31
 1394 176 1394 176 1478 326 c 1,32,-1
 1692 250 l 1,33,34
 1642 132 1642 132 1522 50 c 128,-1,35
 1402 -32 1402 -32 1228 -32 c 0,36,37
 970 -32 970 -32 830 170 c 1,38,39
 668 -32 668 -32 438 -32 c 0,40,41
 262 -32 262 -32 160 57 c 128,-1,42
 58 146 58 146 58 292 c 0,0,1
326 310 m 0,43,44
 326 262 326 262 367 223 c 128,-1,45
 408 184 408 184 472 184 c 0,46,47
 578 184 578 184 651 255 c 128,-1,48
 724 326 724 326 724 430 c 2,49,-1
 724 520 l 1,50,51
 712 518 712 518 656 506 c 128,-1,52
 600 494 600 494 558 488 c 0,53,54
 326 454 326 454 326 310 c 0,43,44
980 628 m 1,55,-1
 1444 628 l 1,56,57
 1444 632 1444 632 1444 636 c 0,58,59
 1444 746 1444 746 1382 824 c 128,-1,60
 1320 902 1320 902 1226 902 c 0,61,62
 1028 902 1028 902 984 676 c 1,63,-1
 980 628 l 1,55,-1
EndSplineSet
EndChar

StartChar: eth
Encoding: 240 240 178
Width: 1116
GlyphClass: 2
Flags: W
LayerCount: 2
Fore
SplineSet
62 458 m 0,0,1
 62 694 62 694 194 835 c 128,-1,2
 326 976 326 976 536 976 c 0,3,4
 608 976 608 976 669 955 c 128,-1,5
 730 934 730 934 756 908 c 1,6,7
 724 1038 724 1038 616 1148 c 1,8,-1
 430 1010 l 1,9,-1
 278 1174 l 1,10,-1
 424 1284 l 1,11,12
 340 1324 340 1324 248 1338 c 1,13,-1
 342 1550 l 1,14,15
 440 1536 440 1536 530 1502 c 0,16,17
 584 1482 584 1482 642 1446 c 1,18,-1
 844 1598 l 1,19,-1
 994 1428 l 1,20,-1
 824 1302 l 1,21,22
 860 1262 860 1262 892 1216 c 0,23,24
 962 1112 962 1112 1010 943 c 128,-1,25
 1058 774 1058 774 1058 562 c 0,26,27
 1058 292 1058 292 923 130 c 128,-1,28
 788 -32 788 -32 542 -32 c 0,29,30
 326 -32 326 -32 194 104 c 128,-1,31
 62 240 62 240 62 458 c 0,0,1
330 472 m 256,32,33
 330 346 330 346 390 268 c 128,-1,34
 450 190 450 190 552 190 c 0,35,36
 648 190 648 190 707 266 c 128,-1,37
 766 342 766 342 766 472 c 0,38,39
 766 596 766 596 707 674 c 128,-1,40
 648 752 648 752 550 752 c 256,41,42
 452 752 452 752 391 675 c 128,-1,43
 330 598 330 598 330 472 c 256,32,33
EndSplineSet
EndChar

StartChar: divide
Encoding: 247 247 185
Width: 1114
GlyphClass: 2
Flags: W
LayerCount: 2
Fore
SplineSet
406 974 m 1,0,-1
 406 1264 l 1,1,-1
 704 1264 l 1,2,-1
 704 974 l 1,3,-1
 406 974 l 1,0,-1
52 608 m 1,4,-1
 52 840 l 1,5,-1
 1060 840 l 1,6,-1
 1060 608 l 1,7,-1
 52 608 l 1,4,-1
406 182 m 1,8,-1
 406 474 l 1,9,-1
 704 474 l 1,10,-1
 704 182 l 1,11,-1
 406 182 l 1,8,-1
EndSplineSet
EndChar

StartChar: oslash
Encoding: 248 248 186
Width: 1122
GlyphClass: 2
Flags: W
LayerCount: 2
Fore
SplineSet
62 536 m 0,0,1
 62 776 62 776 188 942 c 128,-1,2
 314 1108 314 1108 562 1108 c 0,3,4
 678 1108 678 1108 766 1072 c 1,5,-1
 838 1206 l 1,6,-1
 1036 1206 l 1,7,-1
 910 976 l 1,8,9
 1062 820 1062 820 1062 536 c 0,10,11
 1062 464 1062 464 1050 392 c 128,-1,12
 1038 320 1038 320 1002 241 c 128,-1,13
 966 162 966 162 912 103 c 128,-1,14
 858 44 858 44 768 6 c 128,-1,15
 678 -32 678 -32 562 -32 c 0,16,17
 460 -32 460 -32 368 0 c 1,18,-1
 306 -110 l 1,19,-1
 112 -110 l 1,20,-1
 220 92 l 1,21,22
 62 248 62 248 62 536 c 0,0,1
764 718 m 1,23,-1
 480 208 l 1,24,25
 522 190 522 190 562 190 c 0,26,27
 652 190 652 190 723 272 c 128,-1,28
 794 354 794 354 794 536 c 0,29,30
 794 646 794 646 764 718 c 1,23,-1
654 864 m 1,31,32
 614 886 614 886 562 886 c 0,33,34
 472 886 472 886 401 804 c 128,-1,35
 330 722 330 722 330 536 c 0,36,37
 330 426 330 426 368 346 c 1,38,-1
 654 864 l 1,31,32
EndSplineSet
EndChar

StartChar: thorn
Encoding: 254 254 192
Width: 1182
GlyphClass: 2
Flags: W
LayerCount: 2
Fore
SplineSet
404 538 m 256,0,1
 404 378 404 378 465 284 c 128,-1,2
 526 190 526 190 628 190 c 0,3,4
 732 190 732 190 793 281 c 128,-1,5
 854 372 854 372 854 538 c 0,6,7
 854 700 854 700 794 793 c 128,-1,8
 734 886 734 886 626 886 c 0,9,10
 522 886 522 886 463 792 c 128,-1,11
 404 698 404 698 404 538 c 256,0,1
144 -430 m 1,12,-1
 144 1518 l 1,13,-1
 406 1518 l 1,14,-1
 406 968 l 1,15,16
 434 1026 434 1026 506 1067 c 128,-1,17
 578 1108 578 1108 664 1108 c 0,18,19
 866 1108 866 1108 994 956 c 128,-1,20
 1122 804 1122 804 1122 538 c 0,21,22
 1122 388 1122 388 1080 274 c 128,-1,23
 1038 160 1038 160 970 96 c 128,-1,24
 902 32 902 32 824 0 c 128,-1,25
 746 -32 746 -32 664 -32 c 0,26,27
 562 -32 562 -32 499 10 c 128,-1,28
 436 52 436 52 408 104 c 1,29,-1
 408 -430 l 1,30,-1
 144 -430 l 1,12,-1
EndSplineSet
EndChar

StartChar: dcroat
Encoding: 273 273 211
Width: 1168
GlyphClass: 2
Flags: W
LayerCount: 2
Fore
SplineSet
62 526 m 0,0,1
 62 794 62 794 193 939 c 128,-1,2
 324 1084 324 1084 516 1084 c 0,3,4
 604 1084 604 1084 674 1047 c 128,-1,5
 744 1010 744 1010 778 958 c 1,6,-1
 778 1166 l 1,7,-1
 372 1166 l 1,8,-1
 372 1368 l 1,9,-1
 778 1368 l 1,10,-1
 778 1518 l 1,11,-1
 1038 1518 l 1,12,-1
 1038 1368 l 1,13,-1
 1144 1368 l 1,14,-1
 1144 1166 l 1,15,-1
 1038 1166 l 1,16,-1
 1038 0 l 1,17,-1
 786 0 l 1,18,-1
 786 124 l 1,19,20
 746 56 746 56 676 12 c 128,-1,21
 606 -32 606 -32 518 -32 c 0,22,23
 328 -32 328 -32 195 109 c 128,-1,24
 62 250 62 250 62 526 c 0,0,1
330 526 m 0,25,26
 330 362 330 362 394 276 c 128,-1,27
 458 190 458 190 556 190 c 0,28,29
 658 190 658 190 720 281 c 128,-1,30
 782 372 782 372 782 526 c 0,31,32
 782 676 782 676 721 768 c 128,-1,33
 660 860 660 860 556 860 c 0,34,35
 456 860 456 860 393 768 c 128,-1,36
 330 676 330 676 330 526 c 0,25,26
EndSplineSet
EndChar

StartChar: uni0123
Encoding: 291 291 229
Width: 1142
GlyphClass: 2
Flags: W
LayerCount: 2
Fore
SplineSet
406 1246 m 1,0,-1
 588 1628 l 1,1,-1
 766 1628 l 1,2,-1
 686 1246 l 1,3,-1
 406 1246 l 1,0,-1
334 558 m 0,4,5
 334 402 334 402 393 318 c 128,-1,6
 452 234 452 234 548 234 c 256,7,8
 644 234 644 234 702 317 c 128,-1,9
 760 400 760 400 760 560 c 0,10,11
 760 718 760 718 702 802 c 128,-1,12
 644 886 644 886 550 886 c 0,13,14
 452 886 452 886 393 799 c 128,-1,15
 334 712 334 712 334 558 c 0,4,5
68 556 m 0,16,17
 68 808 68 808 195 958 c 128,-1,18
 322 1108 322 1108 514 1108 c 0,19,20
 606 1108 606 1108 670 1064 c 128,-1,21
 734 1020 734 1020 762 968 c 1,22,-1
 762 1076 l 1,23,-1
 1022 1076 l 1,24,-1
 1022 156 l 2,25,26
 1022 -150 1022 -150 901 -294 c 128,-1,27
 780 -438 780 -438 530 -438 c 0,28,29
 398 -438 398 -438 287 -383 c 128,-1,30
 176 -328 176 -328 104 -226 c 1,31,-1
 276 -106 l 1,32,33
 380 -230 380 -230 536 -230 c 0,34,35
 628 -230 628 -230 688 -162 c 128,-1,36
 748 -94 748 -94 758 16 c 0,37,38
 764 104 764 104 764 132 c 1,39,40
 728 78 728 78 661 44 c 128,-1,41
 594 10 594 10 524 10 c 0,42,43
 322 10 322 10 195 159 c 128,-1,44
 68 308 68 308 68 556 c 0,16,17
EndSplineSet
EndChar

StartChar: Hbar
Encoding: 294 294 232
Width: 1400
GlyphClass: 2
Flags: W
LayerCount: 2
Fore
SplineSet
16 1080 m 1,0,-1
 16 1292 l 1,1,-1
 154 1292 l 1,2,-1
 154 1470 l 1,3,-1
 424 1470 l 1,4,-1
 424 1292 l 1,5,-1
 976 1292 l 1,6,-1
 976 1470 l 1,7,-1
 1248 1470 l 1,8,-1
 1248 1292 l 1,9,-1
 1388 1292 l 1,10,-1
 1388 1080 l 1,11,-1
 1248 1080 l 1,12,-1
 1248 0 l 1,13,-1
 976 0 l 1,14,-1
 976 640 l 1,15,-1
 424 640 l 1,16,-1
 424 0 l 1,17,-1
 154 0 l 1,18,-1
 154 1080 l 1,19,-1
 16 1080 l 1,0,-1
976 1080 m 1,20,-1
 424 1080 l 1,21,-1
 424 872 l 1,22,-1
 976 872 l 1,23,-1
 976 1080 l 1,20,-1
EndSplineSet
EndChar

StartChar: hbar
Encoding: 295 295 233
Width: 1124
GlyphClass: 2
Flags: W
LayerCount: 2
Fore
SplineSet
2 1168 m 1,0,-1
 2 1366 l 1,1,-1
 130 1366 l 1,2,-1
 130 1518 l 1,3,-1
 388 1518 l 1,4,-1
 388 1366 l 1,5,-1
 772 1366 l 1,6,-1
 772 1168 l 1,7,-1
 388 1168 l 1,8,-1
 388 932 l 1,9,-1
 390 932 l 1,10,11
 432 982 432 982 503 1019 c 128,-1,12
 574 1056 574 1056 654 1056 c 0,13,14
 718 1056 718 1056 776 1037 c 128,-1,15
 834 1018 834 1018 892 974 c 128,-1,16
 950 930 950 930 984 843 c 128,-1,17
 1018 756 1018 756 1018 636 c 2,18,-1
 1018 0 l 1,19,-1
 758 0 l 1,20,-1
 758 608 l 2,21,22
 758 830 758 830 606 830 c 0,23,24
 512 830 512 830 450 748 c 128,-1,25
 388 666 388 666 388 556 c 2,26,-1
 388 0 l 1,27,-1
 130 0 l 1,28,-1
 130 1168 l 1,29,-1
 2 1168 l 1,0,-1
EndSplineSet
EndChar

StartChar: dotlessi
Encoding: 305 305 243
Width: 522
GlyphClass: 2
Flags: W
LayerCount: 2
Fore
SplineSet
132 0 m 1,0,-1
 132 1076 l 1,1,-1
 392 1076 l 1,2,-1
 392 0 l 1,3,-1
 132 0 l 1,0,-1
EndSplineSet
EndChar

StartChar: kgreenlandic
Encoding: 312 312 250
Width: 1090
GlyphClass: 2
Flags: W
LayerCount: 2
Fore
SplineSet
130 0 m 1,0,-1
 130 1076 l 1,1,-1
 388 1076 l 1,2,-1
 388 704 l 1,3,-1
 394 704 l 1,4,-1
 780 1076 l 1,5,-1
 1108 1076 l 1,6,-1
 616 598 l 1,7,-1
 1112 0 l 1,8,-1
 802 0 l 1,9,-1
 448 410 l 1,10,-1
 388 346 l 1,11,-1
 388 0 l 1,12,-1
 130 0 l 1,0,-1
EndSplineSet
EndChar

StartChar: Lslash
Encoding: 321 321 259
Width: 1102
GlyphClass: 2
Flags: W
LayerCount: 2
Fore
SplineSet
426 666 m 1,0,-1
 426 232 l 1,1,-1
 1080 232 l 1,2,-1
 1080 0 l 1,3,-1
 154 0 l 1,4,-1
 154 500 l 1,5,-1
 -4 400 l 1,6,-1
 -130 600 l 1,7,-1
 154 774 l 1,8,-1
 154 1470 l 1,9,-1
 426 1470 l 1,10,-1
 426 940 l 1,11,-1
 636 1072 l 1,12,-1
 760 872 l 1,13,-1
 426 666 l 1,0,-1
EndSplineSet
EndChar

StartChar: lslash
Encoding: 322 322 260
Width: 536
GlyphClass: 2
Flags: W
LayerCount: 2
Fore
SplineSet
400 698 m 1,0,-1
 400 0 l 1,1,-1
 138 0 l 1,2,-1
 138 544 l 1,3,-1
 -20 450 l 1,4,-1
 -144 650 l 1,5,-1
 138 820 l 1,6,-1
 138 1518 l 1,7,-1
 400 1518 l 1,8,-1
 400 974 l 1,9,-1
 560 1068 l 1,10,-1
 682 866 l 1,11,-1
 400 698 l 1,0,-1
EndSplineSet
EndChar

StartChar: Eng
Encoding: 330 330 268
Width: 1410
GlyphClass: 2
Flags: W
LayerCount: 2
Fore
SplineSet
154 0 m 1,0,-1
 154 1470 l 1,1,-1
 432 1470 l 1,2,-1
 868 670 l 1,3,-1
 1006 408 l 1,4,-1
 1016 408 l 1,5,6
 986 588 986 588 986 828 c 2,7,-1
 986 1470 l 1,8,-1
 1258 1470 l 1,9,-1
 1258 34 l 2,10,11
 1258 -200 1258 -200 1151 -310 c 128,-1,12
 1044 -420 1044 -420 878 -420 c 0,13,14
 788 -420 788 -420 666 -398 c 1,15,-1
 666 -172 l 1,16,17
 736 -188 736 -188 822 -188 c 0,18,19
 904 -188 904 -188 940 -146 c 128,-1,20
 976 -104 976 -104 980 -4 c 1,21,-1
 532 808 l 1,22,-1
 406 1056 l 1,23,-1
 396 1056 l 1,24,25
 426 796 426 796 426 644 c 2,26,-1
 426 0 l 1,27,-1
 154 0 l 1,0,-1
EndSplineSet
EndChar

StartChar: eng
Encoding: 331 331 269
Width: 1118
GlyphClass: 2
Flags: W
LayerCount: 2
Fore
SplineSet
120 0 m 1,0,-1
 120 1076 l 1,1,-1
 370 1076 l 1,2,-1
 370 956 l 1,3,-1
 372 956 l 1,4,5
 412 1020 412 1020 486 1064 c 128,-1,6
 560 1108 560 1108 660 1108 c 0,7,8
 1012 1108 1012 1108 1012 690 c 2,9,-1
 1012 16 l 2,10,11
 1012 -110 1012 -110 976 -203 c 128,-1,12
 940 -296 940 -296 883 -345 c 128,-1,13
 826 -394 826 -394 764 -416 c 128,-1,14
 702 -438 702 -438 636 -438 c 0,15,16
 566 -438 566 -438 446 -416 c 1,17,-1
 446 -190 l 1,18,19
 522 -208 522 -208 590 -208 c 0,20,21
 674 -208 674 -208 713 -162 c 128,-1,22
 752 -116 752 -116 752 -18 c 2,23,-1
 752 658 l 2,24,25
 752 766 752 766 718 826 c 128,-1,26
 684 886 684 886 600 886 c 0,27,28
 506 886 506 886 444 809 c 128,-1,29
 382 732 382 732 382 618 c 2,30,-1
 382 0 l 1,31,-1
 120 0 l 1,0,-1
EndSplineSet
EndChar

StartChar: OE
Encoding: 338 338 276
Width: 1960
GlyphClass: 2
Flags: W
LayerCount: 2
Fore
SplineSet
72 734 m 256,0,1
 72 1080 72 1080 249 1291 c 128,-1,2
 426 1502 426 1502 714 1502 c 0,3,4
 846 1502 846 1502 918 1470 c 1,5,-1
 1886 1470 l 1,6,-1
 1886 1236 l 1,7,-1
 1182 1236 l 1,8,-1
 1182 874 l 1,9,-1
 1816 874 l 1,10,-1
 1816 644 l 1,11,-1
 1182 644 l 1,12,-1
 1182 232 l 1,13,-1
 1906 232 l 1,14,-1
 1906 0 l 1,15,-1
 922 0 l 1,16,17
 826 -32 826 -32 714 -32 c 0,18,19
 422 -32 422 -32 247 178 c 128,-1,20
 72 388 72 388 72 734 c 256,0,1
352 734 m 0,21,22
 352 488 352 488 449 344 c 128,-1,23
 546 200 546 200 714 200 c 0,24,25
 828 200 828 200 908 270 c 1,26,-1
 908 1198 l 1,27,28
 830 1270 830 1270 714 1270 c 0,29,30
 544 1270 544 1270 448 1124 c 128,-1,31
 352 978 352 978 352 734 c 0,21,22
EndSplineSet
EndChar

StartChar: uni0163
Encoding: 355 355 293
Width: 742
GlyphClass: 2
Flags: W
LayerCount: 2
Fore
SplineSet
32 854 m 1,0,-1
 32 1076 l 1,1,-1
 192 1076 l 1,2,-1
 192 1388 l 1,3,-1
 452 1388 l 1,4,-1
 452 1076 l 1,5,-1
 684 1076 l 1,6,-1
 684 854 l 1,7,-1
 452 854 l 1,8,-1
 452 354 l 2,9,10
 452 222 452 222 566 222 c 2,11,-1
 686 222 l 1,12,-1
 686 0 l 1,13,-1
 580 0 l 1,14,-1
 564 -56 l 1,15,16
 638 -74 638 -74 680 -117 c 128,-1,17
 722 -160 722 -160 722 -226 c 0,18,19
 722 -310 722 -310 648 -372 c 128,-1,20
 574 -434 574 -434 410 -434 c 0,21,22
 314 -434 314 -434 234 -414 c 1,23,-1
 234 -254 l 1,24,25
 326 -272 326 -272 402 -272 c 0,26,27
 516 -272 516 -272 516 -208 c 0,28,29
 516 -152 516 -152 326 -142 c 1,30,-1
 312 -142 l 1,31,-1
 354 32 l 1,32,33
 192 104 192 104 192 336 c 2,34,-1
 192 854 l 1,35,-1
 32 854 l 1,0,-1
EndSplineSet
Substitution2: "'locl' Localized Forms in Latin lookup 3 subtable" uni021B
Substitution2: "'locl' Localized Forms in Latin lookup 2 subtable" uni021B
Substitution2: "'aalt' Access All Alternates lookup 0 subtable" uni021B
EndChar

StartChar: tbar
Encoding: 359 359 297
Width: 742
GlyphClass: 2
Flags: W
LayerCount: 2
Fore
SplineSet
32 854 m 1,0,-1
 32 1076 l 1,1,-1
 192 1076 l 1,2,-1
 192 1388 l 1,3,-1
 452 1388 l 1,4,-1
 452 1076 l 1,5,-1
 684 1076 l 1,6,-1
 684 854 l 1,7,-1
 452 854 l 1,8,-1
 452 728 l 1,9,-1
 682 728 l 1,10,-1
 682 514 l 1,11,-1
 452 514 l 1,12,-1
 452 354 l 2,13,14
 452 222 452 222 566 222 c 2,15,-1
 686 222 l 1,16,-1
 686 0 l 1,17,-1
 534 0 l 2,18,19
 192 0 192 0 192 336 c 2,20,-1
 192 514 l 1,21,-1
 6 514 l 1,22,-1
 6 728 l 1,23,-1
 192 728 l 1,24,-1
 192 854 l 1,25,-1
 32 854 l 1,0,-1
EndSplineSet
EndChar

StartChar: longs
Encoding: 383 383 321
Width: 632
GlyphClass: 2
Flags: W
LayerCount: 2
Fore
SplineSet
138 0 m 1,0,-1
 138 1178 l 2,1,2
 138 1344 138 1344 223 1430 c 128,-1,3
 308 1516 308 1516 462 1516 c 2,4,-1
 638 1516 l 1,5,-1
 638 1292 l 1,6,-1
 514 1292 l 2,7,8
 456 1292 456 1292 428 1260 c 128,-1,9
 400 1228 400 1228 400 1154 c 2,10,-1
 400 0 l 1,11,-1
 138 0 l 1,0,-1
EndSplineSet
EndChar

StartChar: uni0180
Encoding: 384 384 322
Width: 1168
GlyphClass: 2
Flags: W
LayerCount: 2
Fore
SplineSet
388 530 m 0,0,1
 388 374 388 374 450 282 c 128,-1,2
 512 190 512 190 616 190 c 0,3,4
 714 190 714 190 777 278 c 128,-1,5
 840 366 840 366 840 530 c 0,6,7
 840 682 840 682 778 776 c 128,-1,8
 716 870 716 870 614 870 c 256,9,10
 512 870 512 870 450 776 c 128,-1,11
 388 682 388 682 388 530 c 0,0,1
4 1168 m 1,12,-1
 4 1370 l 1,13,-1
 132 1370 l 1,14,-1
 132 1518 l 1,15,-1
 388 1518 l 1,16,-1
 388 1370 l 1,17,-1
 764 1370 l 1,18,-1
 764 1168 l 1,19,-1
 388 1168 l 1,20,-1
 388 956 l 1,21,22
 496 1092 496 1092 652 1092 c 0,23,24
 850 1092 850 1092 979 941 c 128,-1,25
 1108 790 1108 790 1108 530 c 0,26,27
 1108 384 1108 384 1065 271 c 128,-1,28
 1022 158 1022 158 954 94 c 128,-1,29
 886 30 886 30 810 -1 c 128,-1,30
 734 -32 734 -32 656 -32 c 0,31,32
 562 -32 562 -32 489 15 c 128,-1,33
 416 62 416 62 384 122 c 1,34,-1
 384 0 l 1,35,-1
 132 0 l 1,36,-1
 132 1168 l 1,37,-1
 4 1168 l 1,12,-1
EndSplineSet
EndChar

StartChar: uni0182
Encoding: 386 386 324
Width: 1316
GlyphClass: 2
Flags: W
LayerCount: 2
Fore
SplineSet
426 232 m 1,0,-1
 746 232 l 2,1,2
 838 232 838 232 901 282 c 128,-1,3
 964 332 964 332 964 432 c 0,4,5
 964 518 964 518 907 580 c 128,-1,6
 850 642 850 642 744 642 c 2,7,-1
 426 642 l 1,8,-1
 426 232 l 1,0,-1
154 0 m 1,9,-1
 154 1470 l 1,10,-1
 1074 1470 l 1,11,-1
 1074 1236 l 1,12,-1
 426 1236 l 1,13,-1
 426 872 l 1,14,-1
 764 872 l 2,15,16
 996 872 996 872 1122 746 c 128,-1,17
 1248 620 1248 620 1248 432 c 0,18,19
 1248 248 1248 248 1122 124 c 128,-1,20
 996 0 996 0 784 0 c 2,21,-1
 154 0 l 1,9,-1
EndSplineSet
EndChar

StartChar: uni0183
Encoding: 387 387 325
Width: 1168
GlyphClass: 2
Flags: W
LayerCount: 2
Fore
SplineSet
388 538 m 0,0,1
 388 376 388 376 450 283 c 128,-1,2
 512 190 512 190 616 190 c 0,3,4
 716 190 716 190 778 279 c 128,-1,5
 840 368 840 368 840 538 c 0,6,7
 840 700 840 700 780 793 c 128,-1,8
 720 886 720 886 616 886 c 0,9,10
 508 886 508 886 448 790 c 128,-1,11
 388 694 388 694 388 538 c 0,0,1
132 0 m 1,12,-1
 132 1498 l 1,13,-1
 922 1498 l 1,14,-1
 922 1274 l 1,15,-1
 388 1274 l 1,16,-1
 388 978 l 1,17,18
 408 1004 408 1004 436 1030 c 128,-1,19
 464 1056 464 1056 524 1082 c 128,-1,20
 584 1108 584 1108 652 1108 c 0,21,22
 850 1108 850 1108 979 956 c 128,-1,23
 1108 804 1108 804 1108 538 c 0,24,25
 1108 390 1108 390 1067 275 c 128,-1,26
 1026 160 1026 160 959 96 c 128,-1,27
 892 32 892 32 815 0 c 128,-1,28
 738 -32 738 -32 656 -32 c 0,29,30
 562 -32 562 -32 488 15 c 128,-1,31
 414 62 414 62 384 122 c 1,32,-1
 384 0 l 1,33,-1
 132 0 l 1,12,-1
EndSplineSet
EndChar

StartChar: uni0184
Encoding: 388 388 326
Width: 1320
GlyphClass: 2
Flags: W
LayerCount: 2
Fore
SplineSet
-28 1318 m 1,0,-1
 278 1470 l 1,1,-1
 426 1470 l 1,2,-1
 426 870 l 1,3,-1
 766 870 l 2,4,5
 1000 870 1000 870 1125 745 c 128,-1,6
 1250 620 1250 620 1250 432 c 0,7,8
 1250 250 1250 250 1127 125 c 128,-1,9
 1004 0 1004 0 788 0 c 2,10,-1
 154 0 l 1,11,-1
 154 1174 l 1,12,-1
 -28 1318 l 1,0,-1
426 232 m 1,13,-1
 748 232 l 2,14,15
 840 232 840 232 904 282 c 128,-1,16
 968 332 968 332 968 432 c 0,17,18
 968 518 968 518 912 579 c 128,-1,19
 856 640 856 640 746 640 c 2,20,-1
 426 640 l 1,21,-1
 426 232 l 1,13,-1
EndSplineSet
EndChar

StartChar: uni0185
Encoding: 389 389 327
Width: 1168
GlyphClass: 2
Flags: W
LayerCount: 2
Fore
SplineSet
-36 1360 m 1,0,-1
 250 1518 l 1,1,-1
 388 1518 l 1,2,-1
 388 978 l 1,3,4
 412 1028 412 1028 486 1068 c 128,-1,5
 560 1108 560 1108 652 1108 c 0,6,7
 852 1108 852 1108 980 956 c 128,-1,8
 1108 804 1108 804 1108 538 c 0,9,10
 1108 392 1108 392 1068 278 c 128,-1,11
 1028 164 1028 164 961 98 c 128,-1,12
 894 32 894 32 816 0 c 128,-1,13
 738 -32 738 -32 656 -32 c 0,14,15
 564 -32 564 -32 492 13 c 128,-1,16
 420 58 420 58 384 122 c 1,17,-1
 384 0 l 1,18,-1
 132 0 l 1,19,-1
 132 1220 l 1,20,-1
 -36 1360 l 1,0,-1
388 538 m 0,21,22
 388 376 388 376 450 283 c 128,-1,23
 512 190 512 190 616 190 c 0,24,25
 718 190 718 190 779 281 c 128,-1,26
 840 372 840 372 840 538 c 0,27,28
 840 696 840 696 782 791 c 128,-1,29
 724 886 724 886 616 886 c 0,30,31
 510 886 510 886 449 792 c 128,-1,32
 388 698 388 698 388 538 c 0,21,22
EndSplineSet
EndChar

StartChar: uni0186
Encoding: 390 390 328
Width: 1332
GlyphClass: 2
Flags: W
LayerCount: 2
Fore
SplineSet
36 366 m 1,0,-1
 282 442 l 1,1,2
 320 342 320 342 407 271 c 128,-1,3
 494 200 494 200 606 200 c 0,4,5
 776 200 776 200 879 346 c 128,-1,6
 982 492 982 492 982 736 c 0,7,8
 982 978 982 978 880 1124 c 128,-1,9
 778 1270 778 1270 606 1270 c 0,10,11
 424 1270 424 1270 306 1062 c 1,12,-1
 74 1138 l 1,13,14
 138 1294 138 1294 275 1398 c 128,-1,15
 412 1502 412 1502 604 1502 c 0,16,17
 896 1502 896 1502 1080 1295 c 128,-1,18
 1264 1088 1264 1088 1264 736 c 0,19,20
 1264 376 1264 376 1078 172 c 128,-1,21
 892 -32 892 -32 604 -32 c 0,22,23
 486 -32 486 -32 386 5 c 128,-1,24
 286 42 286 42 219 105 c 128,-1,25
 152 168 152 168 108 232 c 128,-1,26
 64 296 64 296 36 366 c 1,0,-1
EndSplineSet
EndChar

StartChar: uni018B
Encoding: 395 395 333
Width: 1314
GlyphClass: 2
Flags: W
LayerCount: 2
Fore
SplineSet
354 432 m 0,0,1
 354 332 354 332 417 282 c 128,-1,2
 480 232 480 232 572 232 c 2,3,-1
 892 232 l 1,4,-1
 892 642 l 1,5,-1
 576 642 l 2,6,7
 468 642 468 642 411 580 c 128,-1,8
 354 518 354 518 354 432 c 0,0,1
72 432 m 0,9,10
 72 622 72 622 197 747 c 128,-1,11
 322 872 322 872 554 872 c 2,12,-1
 892 872 l 1,13,-1
 892 1236 l 1,14,-1
 242 1236 l 1,15,-1
 242 1470 l 1,16,-1
 1164 1470 l 1,17,-1
 1164 0 l 1,18,-1
 532 0 l 2,19,20
 318 0 318 0 195 124 c 128,-1,21
 72 248 72 248 72 432 c 0,9,10
EndSplineSet
EndChar

StartChar: uni018C
Encoding: 396 396 334
Width: 1168
GlyphClass: 2
Flags: W
LayerCount: 2
Fore
SplineSet
330 538 m 0,0,1
 330 368 330 368 392 279 c 128,-1,2
 454 190 454 190 556 190 c 0,3,4
 662 190 662 190 721 285 c 128,-1,5
 780 380 780 380 780 538 c 256,6,7
 780 696 780 696 721 791 c 128,-1,8
 662 886 662 886 556 886 c 0,9,10
 452 886 452 886 391 794 c 128,-1,11
 330 702 330 702 330 538 c 0,0,1
62 538 m 0,12,13
 62 804 62 804 190 956 c 128,-1,14
 318 1108 318 1108 518 1108 c 0,15,16
 618 1108 618 1108 684 1064 c 128,-1,17
 750 1020 750 1020 778 976 c 1,18,-1
 778 1294 l 1,19,-1
 242 1294 l 1,20,-1
 242 1518 l 1,21,-1
 1038 1518 l 1,22,-1
 1038 0 l 1,23,-1
 786 0 l 1,24,-1
 786 120 l 1,25,26
 750 60 750 60 681 14 c 128,-1,27
 612 -32 612 -32 516 -32 c 0,28,29
 434 -32 434 -32 357 0 c 128,-1,30
 280 32 280 32 212 96 c 128,-1,31
 144 160 144 160 103 275 c 128,-1,32
 62 390 62 390 62 538 c 0,12,13
EndSplineSet
EndChar

StartChar: uni018D
Encoding: 397 397 335
Width: 1214
GlyphClass: 2
Flags: W
LayerCount: 2
Fore
SplineSet
330 642 m 256,0,1
 330 538 330 538 413 452 c 128,-1,2
 496 366 496 366 626 310 c 1,3,4
 744 366 744 366 816 452 c 128,-1,5
 888 538 888 538 888 640 c 0,6,7
 888 746 888 746 817 817 c 128,-1,8
 746 888 746 888 618 888 c 0,9,10
 482 888 482 888 406 817 c 128,-1,11
 330 746 330 746 330 642 c 256,0,1
62 636 m 0,12,13
 62 862 62 862 211 985 c 128,-1,14
 360 1108 360 1108 620 1108 c 0,15,16
 872 1108 872 1108 1015 979 c 128,-1,17
 1158 850 1158 850 1158 648 c 0,18,19
 1158 522 1158 522 1077 400 c 128,-1,20
 996 278 996 278 846 200 c 1,21,22
 930 148 930 148 974 73 c 128,-1,23
 1018 -2 1018 -2 1018 -80 c 0,24,25
 1018 -248 1018 -248 887 -339 c 128,-1,26
 756 -430 756 -430 558 -430 c 0,27,28
 388 -430 388 -430 265 -358 c 128,-1,29
 142 -286 142 -286 78 -168 c 1,30,-1
 270 -64 l 1,31,32
 312 -124 312 -124 387 -166 c 128,-1,33
 462 -208 462 -208 556 -208 c 0,34,35
 644 -208 644 -208 697 -173 c 128,-1,36
 750 -138 750 -138 750 -86 c 0,37,38
 750 -60 750 -60 731 -35 c 128,-1,39
 712 -10 712 -10 662 21 c 128,-1,40
 612 52 612 52 581 69 c 128,-1,41
 550 86 550 86 472 126 c 0,42,43
 388 168 388 168 324 212 c 128,-1,44
 260 256 260 256 196 318 c 128,-1,45
 132 380 132 380 97 461 c 128,-1,46
 62 542 62 542 62 636 c 0,12,13
EndSplineSet
EndChar

StartChar: uni018E
Encoding: 398 398 336
Width: 1202
GlyphClass: 2
Flags: W
LayerCount: 2
Fore
SplineSet
70 0 m 1,0,-1
 70 232 l 1,1,-1
 782 232 l 1,2,-1
 782 644 l 1,3,-1
 144 644 l 1,4,-1
 144 874 l 1,5,-1
 782 874 l 1,6,-1
 782 1236 l 1,7,-1
 60 1236 l 1,8,-1
 60 1470 l 1,9,-1
 1054 1470 l 1,10,-1
 1054 0 l 1,11,-1
 70 0 l 1,0,-1
EndSplineSet
EndChar

StartChar: uni018F
Encoding: 399 399 337
Width: 1416
GlyphClass: 2
Flags: W
LayerCount: 2
Fore
SplineSet
70 728 m 0,0,1
 70 798 70 798 74 858 c 1,2,-1
 1058 858 l 1,3,4
 1038 1058 1038 1058 939 1164 c 128,-1,5
 840 1270 840 1270 694 1270 c 0,6,7
 478 1270 478 1270 340 1066 c 1,8,-1
 108 1158 l 1,9,10
 192 1328 192 1328 345 1415 c 128,-1,11
 498 1502 498 1502 700 1502 c 0,12,13
 1004 1502 1004 1502 1176 1286 c 128,-1,14
 1348 1070 1348 1070 1348 730 c 0,15,16
 1348 392 1348 392 1167 180 c 128,-1,17
 986 -32 986 -32 700 -32 c 0,18,19
 416 -32 416 -32 243 175 c 128,-1,20
 70 382 70 382 70 728 c 0,0,1
356 624 m 1,21,22
 356 604 356 604 358 594 c 0,23,24
 374 428 374 428 461 314 c 128,-1,25
 548 200 548 200 704 200 c 0,26,27
 850 200 850 200 951 316 c 128,-1,28
 1052 432 1052 432 1060 624 c 1,29,-1
 356 624 l 1,21,22
EndSplineSet
EndChar

StartChar: uni0190
Encoding: 400 400 338
Width: 1226
GlyphClass: 2
Flags: W
LayerCount: 2
Fore
SplineSet
74 418 m 0,0,1
 74 556 74 556 153 647 c 128,-1,2
 232 738 232 738 332 774 c 1,3,4
 248 820 248 820 190 910 c 128,-1,5
 132 1000 132 1000 132 1106 c 0,6,7
 132 1286 132 1286 266 1394 c 128,-1,8
 400 1502 400 1502 616 1502 c 0,9,10
 736 1502 736 1502 834 1465 c 128,-1,11
 932 1428 932 1428 991 1369 c 128,-1,12
 1050 1310 1050 1310 1085 1253 c 128,-1,13
 1120 1196 1120 1196 1136 1142 c 1,14,-1
 908 1072 l 1,15,16
 808 1278 808 1278 632 1278 c 0,17,18
 534 1278 534 1278 472 1221 c 128,-1,19
 410 1164 410 1164 410 1080 c 0,20,21
 410 982 410 982 492 923 c 128,-1,22
 574 864 574 864 672 864 c 0,23,24
 786 864 786 864 836 868 c 1,25,-1
 836 646 l 1,26,27
 756 652 756 652 672 652 c 0,28,29
 538 652 538 652 447 588 c 128,-1,30
 356 524 356 524 356 422 c 0,31,32
 356 308 356 308 437 249 c 128,-1,33
 518 190 518 190 640 190 c 0,34,35
 734 190 734 190 823 250 c 128,-1,36
 912 310 912 310 952 388 c 1,37,-1
 1170 310 l 1,38,39
 1110 148 1110 148 967 58 c 128,-1,40
 824 -32 824 -32 624 -32 c 0,41,42
 374 -32 374 -32 224 89 c 128,-1,43
 74 210 74 210 74 418 c 0,0,1
EndSplineSet
EndChar

StartChar: uni0191
Encoding: 401 401 339
Width: 1142
GlyphClass: 2
Flags: W
LayerCount: 2
Fore
SplineSet
-92 -196 m 1,0,1
 -18 -208 -18 -208 14 -208 c 0,2,3
 86 -208 86 -208 120 -158 c 128,-1,4
 154 -108 154 -108 154 4 c 2,5,-1
 154 1470 l 1,6,-1
 1102 1470 l 1,7,-1
 1102 1236 l 1,8,-1
 424 1236 l 1,9,-1
 424 850 l 1,10,-1
 1034 850 l 1,11,-1
 1034 620 l 1,12,-1
 424 620 l 1,13,-1
 424 4 l 2,14,15
 424 -122 424 -122 391 -214 c 128,-1,16
 358 -306 358 -306 302 -352 c 128,-1,17
 246 -398 246 -398 190 -418 c 128,-1,18
 134 -438 134 -438 70 -438 c 0,19,20
 -6 -438 -6 -438 -92 -422 c 1,21,-1
 -92 -196 l 1,0,1
EndSplineSet
EndChar

StartChar: florin
Encoding: 402 402 340
Width: 702
GlyphClass: 2
Flags: W
LayerCount: 2
Fore
SplineSet
-44 -196 m 1,0,1
 10 -208 10 -208 62 -208 c 0,2,3
 202 -208 202 -208 202 6 c 2,4,-1
 202 854 l 1,5,-1
 44 854 l 1,6,-1
 44 1076 l 1,7,-1
 202 1076 l 1,8,-1
 202 1178 l 2,9,10
 202 1346 202 1346 285 1432 c 128,-1,11
 368 1518 368 1518 522 1518 c 2,12,-1
 704 1518 l 1,13,-1
 704 1292 l 1,14,-1
 562 1292 l 2,15,16
 510 1292 510 1292 487 1261 c 128,-1,17
 464 1230 464 1230 464 1162 c 2,18,-1
 464 1076 l 1,19,-1
 680 1076 l 1,20,-1
 680 854 l 1,21,-1
 464 854 l 1,22,-1
 464 6 l 2,23,24
 464 -122 464 -122 432 -213 c 128,-1,25
 400 -304 400 -304 346 -351 c 128,-1,26
 292 -398 292 -398 235 -418 c 128,-1,27
 178 -438 178 -438 116 -438 c 0,28,29
 72 -438 72 -438 -44 -422 c 1,30,-1
 -44 -196 l 1,0,1
EndSplineSet
EndChar

StartChar: uni0194
Encoding: 404 404 342
Width: 1290
GlyphClass: 2
Flags: W
LayerCount: 2
Fore
SplineSet
4 1470 m 1,0,-1
 294 1470 l 1,1,-1
 616 488 l 1,2,-1
 644 396 l 1,3,-1
 646 396 l 1,4,-1
 678 488 l 1,5,-1
 996 1470 l 1,6,-1
 1288 1470 l 1,7,-1
 850 268 l 1,8,9
 1024 64 1024 64 1024 -100 c 0,10,11
 1024 -248 1024 -248 916 -343 c 128,-1,12
 808 -438 808 -438 642 -438 c 0,13,14
 474 -438 474 -438 367 -347 c 128,-1,15
 260 -256 260 -256 260 -100 c 0,16,17
 260 -32 260 -32 298 51 c 128,-1,18
 336 134 336 134 362 169 c 128,-1,19
 388 204 388 204 440 268 c 1,20,-1
 4 1470 l 1,0,-1
530 -90 m 0,21,22
 530 -146 530 -146 562 -183 c 128,-1,23
 594 -220 594 -220 642 -220 c 0,24,25
 694 -220 694 -220 724 -183 c 128,-1,26
 754 -146 754 -146 754 -88 c 0,27,28
 754 12 754 12 642 134 c 1,29,30
 530 20 530 20 530 -90 c 0,21,22
EndSplineSet
EndChar

StartChar: uni0195
Encoding: 405 405 343
Width: 1754
GlyphClass: 2
Flags: W
LayerCount: 2
Fore
SplineSet
132 0 m 1,0,-1
 132 1518 l 1,1,-1
 388 1518 l 1,2,-1
 388 986 l 1,3,-1
 390 986 l 1,4,5
 492 1108 492 1108 658 1108 c 0,6,7
 724 1108 724 1108 785 1089 c 128,-1,8
 846 1070 846 1070 900 1026 c 128,-1,9
 954 982 954 982 987 895 c 128,-1,10
 1020 808 1020 808 1020 690 c 2,11,-1
 1020 402 l 2,12,13
 1020 304 1020 304 1061 247 c 128,-1,14
 1102 190 1102 190 1208 190 c 0,15,16
 1386 190 1386 190 1386 402 c 2,17,-1
 1386 1076 l 1,18,-1
 1648 1076 l 1,19,-1
 1648 356 l 2,20,21
 1648 254 1648 254 1611 176 c 128,-1,22
 1574 98 1574 98 1510 54 c 128,-1,23
 1446 10 1446 10 1370 -11 c 128,-1,24
 1294 -32 1294 -32 1208 -32 c 0,25,26
 1120 -32 1120 -32 1046 -15 c 128,-1,27
 972 2 972 2 904 43 c 128,-1,28
 836 84 836 84 798 163 c 128,-1,29
 760 242 760 242 760 354 c 2,30,-1
 760 662 l 2,31,32
 760 886 760 886 608 886 c 0,33,34
 514 886 514 886 451 804 c 128,-1,35
 388 722 388 722 388 610 c 2,36,-1
 388 0 l 1,37,-1
 132 0 l 1,0,-1
EndSplineSet
EndChar

StartChar: uni0196
Encoding: 406 406 344
Width: 722
GlyphClass: 2
Flags: W
LayerCount: 2
Fore
SplineSet
156 330 m 2,0,-1
 156 1470 l 1,1,-1
 428 1470 l 1,2,-1
 428 342 l 2,3,4
 428 266 428 266 454 233 c 128,-1,5
 480 200 480 200 544 200 c 0,6,7
 628 200 628 200 696 212 c 1,8,-1
 696 -14 l 1,9,10
 558 -32 558 -32 492 -32 c 0,11,12
 348 -32 348 -32 252 52 c 128,-1,13
 156 136 156 136 156 330 c 2,0,-1
EndSplineSet
EndChar

StartChar: uni0197
Encoding: 407 407 345
Width: 578
GlyphClass: 2
Flags: W
LayerCount: 2
Fore
SplineSet
20 630 m 1,0,-1
 20 844 l 1,1,-1
 154 844 l 1,2,-1
 154 1470 l 1,3,-1
 426 1470 l 1,4,-1
 426 844 l 1,5,-1
 560 844 l 1,6,-1
 560 630 l 1,7,-1
 426 630 l 1,8,-1
 426 0 l 1,9,-1
 154 0 l 1,10,-1
 154 630 l 1,11,-1
 20 630 l 1,0,-1
EndSplineSet
EndChar

StartChar: uni0198
Encoding: 408 408 346
Width: 1310
GlyphClass: 2
Flags: W
LayerCount: 2
Fore
SplineSet
154 0 m 1,0,-1
 154 1470 l 1,1,-1
 426 1470 l 1,2,-1
 426 840 l 1,3,-1
 430 840 l 1,4,-1
 872 1354 l 2,5,6
 1000 1502 1000 1502 1208 1502 c 0,7,8
 1316 1502 1316 1502 1402 1480 c 1,9,-1
 1402 1244 l 1,10,11
 1312 1270 1312 1270 1218 1270 c 0,12,13
 1134 1270 1134 1270 1096 1226 c 2,14,-1
 742 826 l 1,15,-1
 1322 0 l 1,16,-1
 996 0 l 1,17,-1
 570 634 l 1,18,-1
 426 470 l 1,19,-1
 426 0 l 1,20,-1
 154 0 l 1,0,-1
EndSplineSet
EndChar

StartChar: uni0199
Encoding: 409 409 347
Width: 1066
GlyphClass: 2
Flags: W
LayerCount: 2
Fore
SplineSet
132 0 m 1,0,-1
 132 1238 l 2,1,2
 132 1406 132 1406 236 1495 c 128,-1,3
 340 1584 340 1584 502 1584 c 0,4,5
 574 1584 574 1584 698 1574 c 1,6,-1
 698 1344 l 1,7,8
 634 1354 634 1354 552 1354 c 0,9,10
 484 1354 484 1354 437 1308 c 128,-1,11
 390 1262 390 1262 390 1186 c 2,12,-1
 390 682 l 1,13,-1
 746 1076 l 1,14,-1
 1072 1076 l 1,15,-1
 670 636 l 1,16,-1
 1092 0 l 1,17,-1
 788 0 l 1,18,-1
 502 452 l 1,19,-1
 390 330 l 1,20,-1
 390 0 l 1,21,-1
 132 0 l 1,0,-1
EndSplineSet
EndChar

StartChar: uni019A
Encoding: 410 410 348
Width: 536
GlyphClass: 2
Flags: W
LayerCount: 2
Fore
SplineSet
-18 744 m 1,0,-1
 -18 958 l 1,1,-1
 138 958 l 1,2,-1
 138 1518 l 1,3,-1
 400 1518 l 1,4,-1
 400 958 l 1,5,-1
 556 958 l 1,6,-1
 556 744 l 1,7,-1
 400 744 l 1,8,-1
 400 0 l 1,9,-1
 138 0 l 1,10,-1
 138 744 l 1,11,-1
 -18 744 l 1,0,-1
EndSplineSet
EndChar

StartChar: uni019B
Encoding: 411 411 349
Width: 1054
GlyphClass: 2
Flags: W
LayerCount: 2
Fore
SplineSet
10 0 m 1,0,-1
 410 1038 l 1,1,-1
 396 1072 l 1,2,-1
 186 910 l 1,3,-1
 64 1072 l 1,4,-1
 292 1242 l 1,5,6
 252 1286 252 1286 158 1286 c 2,7,-1
 116 1286 l 1,8,-1
 116 1506 l 1,9,-1
 200 1506 l 2,10,11
 384 1506 384 1506 494 1388 c 1,12,-1
 692 1530 l 1,13,-1
 816 1368 l 1,14,-1
 598 1218 l 1,15,-1
 1044 0 l 1,16,-1
 762 0 l 1,17,-1
 604 528 l 2,18,19
 602 536 602 536 577 630 c 128,-1,20
 552 724 552 724 540 770 c 1,21,-1
 536 770 l 1,22,23
 518 700 518 700 470 528 c 1,24,-1
 296 0 l 1,25,-1
 10 0 l 1,0,-1
EndSplineSet
EndChar

StartChar: uni019C
Encoding: 412 412 350
Width: 1920
GlyphClass: 2
Flags: W
LayerCount: 2
Fore
SplineSet
152 516 m 2,0,-1
 152 1470 l 1,1,-1
 422 1470 l 1,2,-1
 422 484 l 2,3,4
 422 200 422 200 584 200 c 0,5,6
 692 200 692 200 759 305 c 128,-1,7
 826 410 826 410 826 554 c 2,8,-1
 826 1470 l 1,9,-1
 1098 1470 l 1,10,-1
 1098 472 l 2,11,12
 1098 320 1098 320 1146 260 c 128,-1,13
 1194 200 1194 200 1262 200 c 0,14,15
 1374 200 1374 200 1437 297 c 128,-1,16
 1500 394 1500 394 1500 552 c 2,17,-1
 1500 1470 l 1,18,-1
 1768 1470 l 1,19,-1
 1768 0 l 1,20,-1
 1510 0 l 1,21,-1
 1510 130 l 1,22,-1
 1508 130 l 1,23,24
 1458 52 1458 52 1373 9 c 128,-1,25
 1288 -34 1288 -34 1202 -34 c 0,26,27
 1074 -34 1074 -34 1002 16 c 128,-1,28
 930 66 930 66 892 162 c 1,29,30
 846 74 846 74 753 21 c 128,-1,31
 660 -32 660 -32 524 -32 c 0,32,33
 414 -32 414 -32 338 10 c 128,-1,34
 262 52 262 52 223 131 c 128,-1,35
 184 210 184 210 168 303 c 128,-1,36
 152 396 152 396 152 516 c 2,0,-1
EndSplineSet
EndChar

StartChar: uni019D
Encoding: 413 413 351
Width: 1410
GlyphClass: 2
Flags: W
LayerCount: 2
Fore
SplineSet
154 1470 m 1,0,-1
 432 1470 l 1,1,-1
 868 670 l 1,2,-1
 1004 410 l 1,3,-1
 1014 410 l 1,4,5
 986 722 986 722 986 834 c 2,6,-1
 986 1470 l 1,7,-1
 1258 1470 l 1,8,-1
 1258 0 l 1,9,-1
 978 0 l 1,10,-1
 542 788 l 1,11,-1
 406 1058 l 1,12,-1
 396 1058 l 1,13,14
 426 808 426 808 426 630 c 2,15,-1
 426 8 l 2,16,17
 426 -94 426 -94 403 -175 c 128,-1,18
 380 -256 380 -256 344 -304 c 128,-1,19
 308 -352 308 -352 259 -383 c 128,-1,20
 210 -414 210 -414 163 -426 c 128,-1,21
 116 -438 116 -438 68 -438 c 0,22,23
 -4 -438 -4 -438 -90 -422 c 1,24,-1
 -90 -196 l 1,25,26
 -44 -206 -44 -206 12 -206 c 0,27,28
 84 -206 84 -206 119 -155 c 128,-1,29
 154 -104 154 -104 154 10 c 2,30,-1
 154 1470 l 1,0,-1
EndSplineSet
EndChar

StartChar: uni019E
Encoding: 414 414 352
Width: 1142
GlyphClass: 2
Flags: W
LayerCount: 2
Fore
SplineSet
120 0 m 1,0,-1
 120 1076 l 1,1,-1
 370 1076 l 1,2,-1
 370 960 l 1,3,-1
 374 960 l 1,4,5
 466 1108 466 1108 660 1108 c 0,6,7
 1012 1108 1012 1108 1012 690 c 2,8,-1
 1012 -430 l 1,9,-1
 752 -430 l 1,10,-1
 752 660 l 2,11,12
 752 886 752 886 600 886 c 0,13,14
 506 886 506 886 444 809 c 128,-1,15
 382 732 382 732 382 618 c 2,16,-1
 382 0 l 1,17,-1
 120 0 l 1,0,-1
EndSplineSet
EndChar

StartChar: uni019F
Encoding: 415 415 353
Width: 1416
GlyphClass: 2
Flags: W
LayerCount: 2
Fore
SplineSet
72 734 m 256,0,1
 72 1080 72 1080 247 1291 c 128,-1,2
 422 1502 422 1502 708 1502 c 0,3,4
 996 1502 996 1502 1171 1291 c 128,-1,5
 1346 1080 1346 1080 1346 734 c 256,6,7
 1346 388 1346 388 1171 178 c 128,-1,8
 996 -32 996 -32 708 -32 c 256,9,10
 420 -32 420 -32 246 178 c 128,-1,11
 72 388 72 388 72 734 c 256,0,1
1058 618 m 1,12,-1
 358 618 l 1,13,14
 382 420 382 420 472 310 c 128,-1,15
 562 200 562 200 708 200 c 256,16,17
 854 200 854 200 946 311 c 128,-1,18
 1038 422 1038 422 1058 618 c 1,12,-1
358 830 m 1,19,-1
 1060 830 l 1,20,21
 1038 1036 1038 1036 948 1153 c 128,-1,22
 858 1270 858 1270 708 1270 c 256,23,24
 558 1270 558 1270 468 1154 c 128,-1,25
 378 1038 378 1038 358 830 c 1,19,-1
EndSplineSet
EndChar

StartChar: uni01A2
Encoding: 418 418 356
Width: 1918
GlyphClass: 2
Flags: W
LayerCount: 2
Fore
SplineSet
72 732 m 0,0,1
 72 1080 72 1080 246 1291 c 128,-1,2
 420 1502 420 1502 704 1502 c 0,3,4
 774 1502 774 1502 980 1462 c 128,-1,5
 1186 1422 1186 1422 1292 1422 c 0,6,7
 1526 1422 1526 1422 1768 1470 c 1,8,-1
 1768 0 l 1,9,-1
 1498 0 l 1,10,-1
 1498 1206 l 1,11,12
 1418 1188 1418 1188 1292 1188 c 0,13,14
 1228 1188 1228 1188 1122 1204 c 1,15,-1
 1122 126 l 1,16,17
 952 -32 952 -32 704 -32 c 0,18,19
 418 -32 418 -32 245 178 c 128,-1,20
 72 388 72 388 72 732 c 0,0,1
352 732 m 0,21,22
 352 486 352 486 445 343 c 128,-1,23
 538 200 538 200 704 200 c 0,24,25
 776 200 776 200 850 236 c 1,26,-1
 850 1244 l 1,27,28
 768 1270 768 1270 704 1270 c 0,29,30
 540 1270 540 1270 446 1125 c 128,-1,31
 352 980 352 980 352 732 c 0,21,22
EndSplineSet
EndChar

StartChar: uni01A3
Encoding: 419 419 357
Width: 1506
GlyphClass: 2
Flags: W
LayerCount: 2
Fore
SplineSet
62 536 m 0,0,1
 62 804 62 804 196 956 c 128,-1,2
 330 1108 330 1108 560 1108 c 0,3,4
 640 1108 640 1108 794 1080 c 128,-1,5
 948 1052 948 1052 1014 1052 c 0,6,7
 1196 1052 1196 1052 1388 1090 c 1,8,-1
 1388 0 l 1,9,-1
 1128 0 l 1,10,-1
 1128 834 l 1,11,12
 1084 828 1084 828 1012 828 c 0,13,14
 952 828 952 828 900 834 c 1,15,-1
 900 98 l 1,16,17
 774 -32 774 -32 560 -32 c 0,18,19
 328 -32 328 -32 195 120 c 128,-1,20
 62 272 62 272 62 536 c 0,0,1
330 536 m 0,21,22
 330 370 330 370 393 280 c 128,-1,23
 456 190 456 190 560 190 c 0,24,25
 590 190 590 190 640 224 c 1,26,-1
 640 874 l 1,27,28
 584 886 584 886 560 886 c 0,29,30
 452 886 452 886 391 795 c 128,-1,31
 330 704 330 704 330 536 c 0,21,22
EndSplineSet
EndChar

StartChar: uni01A5
Encoding: 421 421 359
Width: 1168
GlyphClass: 2
Flags: W
LayerCount: 2
Fore
SplineSet
388 538 m 0,0,1
 388 378 388 378 448 284 c 128,-1,2
 508 190 508 190 614 190 c 0,3,4
 718 190 718 190 779 282 c 128,-1,5
 840 374 840 374 840 538 c 0,6,7
 840 696 840 696 782 791 c 128,-1,8
 724 886 724 886 614 886 c 0,9,10
 506 886 506 886 447 790 c 128,-1,11
 388 694 388 694 388 538 c 0,0,1
132 -430 m 1,12,-1
 132 1184 l 2,13,14
 132 1354 132 1354 236 1443 c 128,-1,15
 340 1532 340 1532 500 1532 c 0,16,17
 564 1532 564 1532 688 1522 c 1,18,-1
 688 1292 l 1,19,20
 628 1298 628 1298 548 1298 c 0,21,22
 480 1298 480 1298 434 1254 c 128,-1,23
 388 1210 388 1210 388 1136 c 2,24,-1
 388 966 l 1,25,26
 486 1108 486 1108 652 1108 c 0,27,28
 848 1108 848 1108 978 955 c 128,-1,29
 1108 802 1108 802 1108 538 c 0,30,31
 1108 388 1108 388 1066 273 c 128,-1,32
 1024 158 1024 158 955 94 c 128,-1,33
 886 30 886 30 809 -1 c 128,-1,34
 732 -32 732 -32 652 -32 c 0,35,36
 548 -32 548 -32 484 10 c 128,-1,37
 420 52 420 52 390 104 c 1,38,-1
 390 -430 l 1,39,-1
 132 -430 l 1,12,-1
EndSplineSet
EndChar

StartChar: uni01A6
Encoding: 422 422 360
Width: 1326
GlyphClass: 2
Flags: W
LayerCount: 2
Fore
SplineSet
416 652 m 1,0,-1
 706 652 l 2,1,2
 936 652 936 652 936 870 c 0,3,4
 936 1060 936 1060 706 1060 c 2,5,-1
 416 1060 l 1,6,-1
 416 652 l 1,0,-1
144 0 m 1,7,-1
 144 1470 l 1,8,-1
 416 1470 l 1,9,-1
 416 1292 l 1,10,-1
 754 1292 l 2,11,12
 980 1292 980 1292 1098 1177 c 128,-1,13
 1216 1062 1216 1062 1216 892 c 0,14,15
 1216 646 1216 646 998 528 c 1,16,17
 1050 490 1050 490 1079 448 c 128,-1,18
 1108 406 1108 406 1118 372 c 128,-1,19
 1128 338 1128 338 1142 266 c 0,20,21
 1192 30 1192 30 1310 -172 c 1,22,-1
 1004 -172 l 1,23,24
 990 -148 990 -148 976 -122 c 128,-1,25
 962 -96 962 -96 951 -69 c 128,-1,26
 940 -42 940 -42 931 -21 c 128,-1,27
 922 0 922 0 913 30 c 128,-1,28
 904 60 904 60 898 77 c 128,-1,29
 892 94 892 94 885 125 c 128,-1,30
 878 156 878 156 875 167 c 128,-1,31
 872 178 872 178 865 210 c 128,-1,32
 858 242 858 242 856 246 c 0,33,34
 834 344 834 344 805 384 c 128,-1,35
 776 424 776 424 702 424 c 2,36,-1
 416 424 l 1,37,-1
 416 0 l 1,38,-1
 144 0 l 1,7,-1
EndSplineSet
EndChar

StartChar: uni01A7
Encoding: 423 423 361
Width: 1210
GlyphClass: 2
Flags: W
LayerCount: 2
Fore
SplineSet
52 406 m 0,0,1
 52 496 52 496 85 569 c 128,-1,2
 118 642 118 642 180 692 c 128,-1,3
 242 742 242 742 305 773 c 128,-1,4
 368 804 368 804 452 830 c 0,5,6
 474 838 474 838 517 852 c 128,-1,7
 560 866 560 866 581 872 c 128,-1,8
 602 878 602 878 639 892 c 128,-1,9
 676 906 676 906 696 916 c 128,-1,10
 716 926 716 926 743 940 c 128,-1,11
 770 954 770 954 785 969 c 128,-1,12
 800 984 800 984 815 1003 c 128,-1,13
 830 1022 830 1022 836 1044 c 128,-1,14
 842 1066 842 1066 842 1092 c 0,15,16
 842 1172 842 1172 778 1221 c 128,-1,17
 714 1270 714 1270 602 1270 c 0,18,19
 424 1270 424 1270 294 1102 c 1,20,-1
 66 1178 l 1,21,22
 134 1320 134 1320 271 1411 c 128,-1,23
 408 1502 408 1502 600 1502 c 0,24,25
 832 1502 832 1502 978 1389 c 128,-1,26
 1124 1276 1124 1276 1124 1092 c 0,27,28
 1124 1010 1124 1010 1093 942 c 128,-1,29
 1062 874 1062 874 1030 836 c 128,-1,30
 998 798 998 798 917 756 c 128,-1,31
 836 714 836 714 802 701 c 128,-1,32
 768 688 768 688 666 656 c 0,33,34
 642 646 642 646 630 642 c 0,35,36
 560 620 560 620 516 600 c 128,-1,37
 472 580 472 580 426 551 c 128,-1,38
 380 522 380 522 358 483 c 128,-1,39
 336 444 336 444 336 394 c 0,40,41
 336 310 336 310 405 254 c 128,-1,42
 474 198 474 198 586 198 c 0,43,44
 690 198 690 198 790 257 c 128,-1,45
 890 316 890 316 938 404 c 1,46,-1
 1174 324 l 1,47,48
 1102 160 1102 160 945 64 c 128,-1,49
 788 -32 788 -32 592 -32 c 0,50,51
 358 -32 358 -32 205 83 c 128,-1,52
 52 198 52 198 52 406 c 0,0,1
EndSplineSet
EndChar

StartChar: uni01A8
Encoding: 424 424 362
Width: 978
GlyphClass: 2
Flags: W
LayerCount: 2
Fore
SplineSet
54 300 m 0,0,1
 54 368 54 368 82 421 c 128,-1,2
 110 474 110 474 161 511 c 128,-1,3
 212 548 212 548 259 571 c 128,-1,4
 306 594 306 594 372 618 c 0,5,6
 386 620 386 620 415 630 c 128,-1,7
 444 640 444 640 458 644 c 128,-1,8
 472 648 472 648 495 657 c 128,-1,9
 518 666 518 666 531 673 c 128,-1,10
 544 680 544 680 562 689 c 128,-1,11
 580 698 580 698 589 707 c 128,-1,12
 598 716 598 716 609 728 c 128,-1,13
 620 740 620 740 623 753 c 128,-1,14
 626 766 626 766 626 782 c 0,15,16
 626 832 626 832 586 860 c 128,-1,17
 546 888 546 888 480 888 c 0,18,19
 342 888 342 888 230 752 c 1,20,-1
 54 858 l 1,21,22
 116 968 116 968 229 1038 c 128,-1,23
 342 1108 342 1108 486 1108 c 0,24,25
 658 1108 658 1108 775 1020 c 128,-1,26
 892 932 892 932 892 780 c 0,27,28
 892 656 892 656 808 585 c 128,-1,29
 724 514 724 514 586 470 c 0,30,31
 570 464 570 464 532 452 c 128,-1,32
 494 440 494 440 476 434 c 128,-1,33
 458 428 458 428 428 416 c 128,-1,34
 398 404 398 404 383 394 c 128,-1,35
 368 384 368 384 351 369 c 128,-1,36
 334 354 334 354 328 337 c 128,-1,37
 322 320 322 320 322 300 c 0,38,39
 322 248 322 248 363 218 c 128,-1,40
 404 188 404 188 472 188 c 0,41,42
 638 188 638 188 750 338 c 1,43,-1
 936 230 l 1,44,45
 872 116 872 116 750 42 c 128,-1,46
 628 -32 628 -32 472 -32 c 0,47,48
 264 -32 264 -32 159 63 c 128,-1,49
 54 158 54 158 54 300 c 0,0,1
EndSplineSet
EndChar

StartChar: uni01A9
Encoding: 425 425 363
Width: 1242
GlyphClass: 2
Flags: W
LayerCount: 2
Fore
SplineSet
142 0 m 1,0,-1
 142 176 l 1,1,-1
 652 738 l 1,2,-1
 142 1292 l 1,3,-1
 142 1470 l 1,4,-1
 1144 1470 l 1,5,-1
 1144 1234 l 1,6,-1
 526 1234 l 1,7,-1
 960 738 l 1,8,-1
 526 232 l 1,9,-1
 1158 232 l 1,10,-1
 1158 0 l 1,11,-1
 142 0 l 1,0,-1
EndSplineSet
EndChar

StartChar: uni01AA
Encoding: 426 426 364
Width: 896
GlyphClass: 2
Flags: W
LayerCount: 2
Fore
SplineSet
118 1186 m 0,0,1
 118 1134 118 1134 151 1105 c 128,-1,2
 184 1076 184 1076 226 1076 c 0,3,4
 298 1076 298 1076 346 1120 c 1,5,6
 346 1202 346 1202 316 1249 c 128,-1,7
 286 1296 286 1296 230 1296 c 0,8,9
 182 1296 182 1296 150 1265 c 128,-1,10
 118 1234 118 1234 118 1186 c 0,0,1
-124 1176 m 0,11,12
 -124 1322 -124 1322 -25 1412 c 128,-1,13
 74 1502 74 1502 238 1502 c 0,14,15
 410 1502 410 1502 504 1396 c 128,-1,16
 598 1290 598 1290 598 1102 c 2,17,-1
 598 -60 l 2,18,19
 598 -208 598 -208 724 -208 c 0,20,21
 754 -208 754 -208 874 -192 c 1,22,-1
 874 -420 l 1,23,24
 698 -438 698 -438 670 -438 c 0,25,26
 526 -438 526 -438 432 -354 c 128,-1,27
 338 -270 338 -270 338 -78 c 2,28,-1
 338 906 l 1,29,30
 296 866 296 866 186 866 c 0,31,32
 52 866 52 866 -36 953 c 128,-1,33
 -124 1040 -124 1040 -124 1176 c 0,11,12
EndSplineSet
EndChar

StartChar: uni01AB
Encoding: 427 427 365
Width: 742
GlyphClass: 2
Flags: W
LayerCount: 2
Fore
SplineSet
32 854 m 1,0,-1
 32 1076 l 1,1,-1
 192 1076 l 1,2,-1
 192 1388 l 1,3,-1
 452 1388 l 1,4,-1
 452 1076 l 1,5,-1
 684 1076 l 1,6,-1
 684 854 l 1,7,-1
 452 854 l 1,8,-1
 452 354 l 2,9,10
 452 222 452 222 566 222 c 0,11,12
 624 222 624 222 702 234 c 1,13,-1
 702 28 l 2,14,15
 702 -200 702 -200 605 -319 c 128,-1,16
 508 -438 508 -438 332 -438 c 0,17,18
 244 -438 244 -438 172 -424 c 1,19,-1
 172 -194 l 1,20,21
 260 -208 260 -208 302 -208 c 0,22,23
 364 -208 364 -208 406 -162 c 128,-1,24
 448 -116 448 -116 448 -14 c 1,25,-1
 450 10 l 1,26,27
 368 30 368 30 356 34 c 0,28,29
 192 106 192 106 192 336 c 2,30,-1
 192 854 l 1,31,-1
 32 854 l 1,0,-1
EndSplineSet
EndChar

StartChar: uni01AC
Encoding: 428 428 366
Width: 1264
GlyphClass: 2
Flags: W
LayerCount: 2
Fore
SplineSet
-76 1122 m 0,0,1
 -76 1302 -76 1302 43 1386 c 128,-1,2
 162 1470 162 1470 340 1470 c 2,3,-1
 1246 1470 l 1,4,-1
 1246 1236 l 1,5,-1
 830 1236 l 1,6,-1
 830 0 l 1,7,-1
 556 0 l 1,8,-1
 556 1236 l 1,9,-1
 340 1236 l 2,10,11
 254 1236 254 1236 209 1199 c 128,-1,12
 164 1162 164 1162 164 1102 c 0,13,14
 164 1054 164 1054 176 998 c 1,15,-1
 -62 998 l 1,16,17
 -76 1058 -76 1058 -76 1122 c 0,0,1
EndSplineSet
EndChar

StartChar: uni01AD
Encoding: 429 429 367
Width: 742
GlyphClass: 2
Flags: W
LayerCount: 2
Fore
SplineSet
32 854 m 1,0,-1
 32 1076 l 1,1,-1
 192 1076 l 1,2,-1
 192 1172 l 2,3,4
 192 1340 192 1340 296 1430 c 128,-1,5
 400 1520 400 1520 562 1520 c 0,6,7
 652 1520 652 1520 756 1510 c 1,8,-1
 756 1280 l 1,9,10
 704 1288 704 1288 612 1288 c 0,11,12
 538 1288 538 1288 495 1247 c 128,-1,13
 452 1206 452 1206 452 1138 c 2,14,-1
 452 1076 l 1,15,-1
 684 1076 l 1,16,-1
 684 854 l 1,17,-1
 452 854 l 1,18,-1
 452 354 l 2,19,20
 452 222 452 222 566 222 c 2,21,-1
 686 222 l 1,22,-1
 686 0 l 1,23,-1
 534 0 l 2,24,25
 192 0 192 0 192 336 c 2,26,-1
 192 854 l 1,27,-1
 32 854 l 1,0,-1
EndSplineSet
EndChar

StartChar: uni01AE
Encoding: 430 430 368
Width: 1142
GlyphClass: 2
Flags: W
LayerCount: 2
Fore
SplineSet
20 1236 m 1,0,-1
 20 1470 l 1,1,-1
 1124 1470 l 1,2,-1
 1124 1236 l 1,3,-1
 708 1236 l 1,4,-1
 708 0 l 2,5,6
 708 -208 708 -208 850 -208 c 0,7,8
 874 -208 874 -208 952 -196 c 1,9,-1
 952 -422 l 1,10,11
 836 -438 836 -438 794 -438 c 0,12,13
 730 -438 730 -438 673 -419 c 128,-1,14
 616 -400 616 -400 560 -354 c 128,-1,15
 504 -308 504 -308 470 -217 c 128,-1,16
 436 -126 436 -126 436 0 c 2,17,-1
 436 1236 l 1,18,-1
 20 1236 l 1,0,-1
EndSplineSet
EndChar

StartChar: uni01B1
Encoding: 433 433 371
Width: 1460
GlyphClass: 2
Flags: W
LayerCount: 2
Fore
SplineSet
72 616 m 0,0,1
 72 820 72 820 173 968 c 128,-1,2
 274 1116 274 1116 460 1186 c 1,3,-1
 460 1236 l 1,4,-1
 98 1236 l 1,5,-1
 98 1470 l 1,6,-1
 662 1470 l 1,7,-1
 662 1038 l 1,8,9
 506 996 506 996 432 881 c 128,-1,10
 358 766 358 766 358 616 c 0,11,12
 358 446 358 446 458 325 c 128,-1,13
 558 204 558 204 730 204 c 0,14,15
 898 204 898 204 1002 324 c 128,-1,16
 1106 444 1106 444 1106 616 c 0,17,18
 1106 760 1106 760 1032 877 c 128,-1,19
 958 994 958 994 802 1038 c 1,20,-1
 802 1470 l 1,21,-1
 1364 1470 l 1,22,-1
 1364 1236 l 1,23,-1
 1002 1236 l 1,24,-1
 1002 1186 l 1,25,26
 1188 1120 1188 1120 1290 970 c 128,-1,27
 1392 820 1392 820 1392 616 c 0,28,29
 1392 332 1392 332 1214 150 c 128,-1,30
 1036 -32 1036 -32 730 -32 c 0,31,32
 428 -32 428 -32 250 150 c 128,-1,33
 72 332 72 332 72 616 c 0,0,1
EndSplineSet
EndChar

StartChar: uni01B2
Encoding: 434 434 372
Width: 1424
GlyphClass: 2
Flags: W
LayerCount: 2
Fore
SplineSet
148 528 m 2,0,-1
 148 1470 l 1,1,-1
 420 1470 l 1,2,-1
 420 556 l 2,3,4
 420 352 420 352 480 276 c 128,-1,5
 540 200 540 200 660 200 c 0,6,7
 820 200 820 200 947 380 c 128,-1,8
 1074 560 1074 560 1074 836 c 0,9,10
 1074 1054 1074 1054 1018 1162 c 128,-1,11
 962 1270 962 1270 872 1270 c 0,12,13
 802 1270 802 1270 710 1240 c 1,14,-1
 710 1482 l 1,15,16
 808 1502 808 1502 912 1502 c 0,17,18
 1130 1502 1130 1502 1243 1331 c 128,-1,19
 1356 1160 1356 1160 1356 840 c 0,20,21
 1356 672 1356 672 1308 516 c 128,-1,22
 1260 360 1260 360 1172 238 c 128,-1,23
 1084 116 1084 116 951 42 c 128,-1,24
 818 -32 818 -32 660 -32 c 0,25,26
 394 -32 394 -32 271 105 c 128,-1,27
 148 242 148 242 148 528 c 2,0,-1
EndSplineSet
EndChar

StartChar: uni01B3
Encoding: 435 435 373
Width: 1276
GlyphClass: 2
Flags: W
LayerCount: 2
Fore
SplineSet
-4 1470 m 1,0,-1
 306 1470 l 1,1,-1
 528 1026 l 2,2,3
 556 974 556 974 636 804 c 1,4,-1
 644 804 l 1,5,6
 714 950 714 950 754 1030 c 2,7,-1
 878 1276 l 2,8,9
 988 1502 988 1502 1178 1502 c 0,10,11
 1242 1502 1242 1502 1324 1494 c 1,12,-1
 1324 1262 l 1,13,14
 1282 1270 1282 1270 1214 1270 c 0,15,16
 1166 1270 1166 1270 1088 1132 c 2,17,-1
 776 596 l 1,18,-1
 776 0 l 1,19,-1
 504 0 l 1,20,-1
 504 596 l 1,21,-1
 -4 1470 l 1,0,-1
EndSplineSet
EndChar

StartChar: uni01B4
Encoding: 436 436 374
Width: 1052
GlyphClass: 2
Flags: W
LayerCount: 2
Fore
SplineSet
12 1076 m 1,0,-1
 296 1076 l 1,1,-1
 466 548 l 2,2,3
 522 348 522 348 536 304 c 1,4,-1
 540 304 l 1,5,6
 574 434 574 434 606 546 c 2,7,-1
 716 916 l 2,8,9
 766 1102 766 1102 996 1102 c 0,10,11
 1018 1102 1018 1102 1148 1084 c 1,12,-1
 1148 850 l 1,13,14
 1094 868 1094 868 1048 868 c 0,15,16
 968 868 968 868 944 800 c 2,17,-1
 610 -114 l 2,18,19
 550 -284 550 -284 450 -357 c 128,-1,20
 350 -430 350 -430 204 -430 c 2,21,-1
 122 -430 l 1,22,-1
 122 -212 l 1,23,-1
 160 -212 l 2,24,25
 242 -212 242 -212 295 -175 c 128,-1,26
 348 -138 348 -138 378 -52 c 2,27,-1
 410 38 l 1,28,-1
 12 1076 l 1,0,-1
EndSplineSet
EndChar

StartChar: uni01B5
Encoding: 437 437 375
Width: 1202
GlyphClass: 2
Flags: W
LayerCount: 2
Fore
SplineSet
164 618 m 1,0,-1
 164 830 l 1,1,-1
 510 830 l 1,2,-1
 798 1236 l 1,3,-1
 116 1236 l 1,4,-1
 116 1470 l 1,5,-1
 1134 1470 l 1,6,-1
 1134 1268 l 1,7,-1
 824 830 l 1,8,-1
 1004 830 l 1,9,-1
 1004 618 l 1,10,-1
 666 618 l 1,11,-1
 392 232 l 1,12,-1
 1154 232 l 1,13,-1
 1154 0 l 1,14,-1
 54 0 l 1,15,-1
 54 198 l 1,16,-1
 354 618 l 1,17,-1
 164 618 l 1,0,-1
EndSplineSet
EndChar

StartChar: uni01B6
Encoding: 438 438 376
Width: 984
GlyphClass: 2
Flags: W
LayerCount: 2
Fore
SplineSet
44 0 m 1,0,-1
 44 172 l 1,1,-1
 254 440 l 1,2,-1
 118 440 l 1,3,-1
 118 654 l 1,4,-1
 422 654 l 1,5,-1
 578 854 l 1,6,-1
 86 854 l 1,7,-1
 86 1076 l 1,8,-1
 920 1076 l 1,9,-1
 920 912 l 1,10,-1
 716 654 l 1,11,-1
 858 654 l 1,12,-1
 858 440 l 1,13,-1
 550 440 l 1,14,-1
 382 222 l 1,15,-1
 942 222 l 1,16,-1
 942 0 l 1,17,-1
 44 0 l 1,0,-1
EndSplineSet
EndChar

StartChar: uni01B7
Encoding: 439 439 377
Width: 1398
GlyphClass: 2
Flags: W
LayerCount: 2
Fore
SplineSet
90 10 m 1,0,-1
 326 98 l 1,1,2
 360 -24 360 -24 451 -112 c 128,-1,3
 542 -200 542 -200 690 -200 c 0,4,5
 848 -200 848 -200 943 -95 c 128,-1,6
 1038 10 1038 10 1038 180 c 0,7,8
 1038 356 1038 356 926 466 c 128,-1,9
 814 576 814 576 630 576 c 2,10,-1
 412 576 l 1,11,-1
 412 784 l 1,12,-1
 816 1236 l 1,13,-1
 158 1236 l 1,14,-1
 158 1470 l 1,15,-1
 1228 1470 l 1,16,-1
 1228 1312 l 1,17,-1
 762 800 l 1,18,-1
 786 796 l 2,19,20
 1022 758 1022 758 1170 595 c 128,-1,21
 1318 432 1318 432 1318 180 c 0,22,23
 1318 -88 1318 -88 1145 -260 c 128,-1,24
 972 -432 972 -432 698 -432 c 0,25,26
 564 -432 564 -432 456 -394 c 128,-1,27
 348 -356 348 -356 277 -288 c 128,-1,28
 206 -220 206 -220 161 -147 c 128,-1,29
 116 -74 116 -74 90 10 c 1,0,-1
EndSplineSet
EndChar

StartChar: uni01B8
Encoding: 440 440 378
Width: 1398
GlyphClass: 2
Flags: W
LayerCount: 2
Fore
SplineSet
80 180 m 0,0,1
 80 432 80 432 231 598 c 128,-1,2
 382 764 382 764 614 796 c 2,3,-1
 638 800 l 1,4,-1
 172 1312 l 1,5,-1
 172 1470 l 1,6,-1
 1242 1470 l 1,7,-1
 1242 1236 l 1,8,-1
 582 1236 l 1,9,-1
 986 784 l 1,10,-1
 986 576 l 1,11,-1
 770 576 l 2,12,13
 586 576 586 576 474 466 c 128,-1,14
 362 356 362 356 362 180 c 0,15,16
 362 10 362 10 457 -95 c 128,-1,17
 552 -200 552 -200 708 -200 c 0,18,19
 856 -200 856 -200 947 -112 c 128,-1,20
 1038 -24 1038 -24 1074 98 c 1,21,-1
 1312 10 l 1,22,23
 1284 -74 1284 -74 1239 -147 c 128,-1,24
 1194 -220 1194 -220 1123 -288 c 128,-1,25
 1052 -356 1052 -356 943 -394 c 128,-1,26
 834 -432 834 -432 702 -432 c 0,27,28
 428 -432 428 -432 254 -260 c 128,-1,29
 80 -88 80 -88 80 180 c 0,0,1
EndSplineSet
EndChar

StartChar: uni01B9
Encoding: 441 441 379
Width: 1176
GlyphClass: 2
Flags: W
LayerCount: 2
Fore
SplineSet
74 68 m 0,0,1
 74 246 74 246 193 385 c 128,-1,2
 312 524 312 524 492 546 c 2,3,-1
 506 548 l 1,4,-1
 144 916 l 1,5,-1
 144 1076 l 1,6,-1
 1038 1076 l 1,7,-1
 1038 854 l 1,8,-1
 532 854 l 1,9,-1
 834 532 l 1,10,-1
 834 354 l 1,11,-1
 640 354 l 2,12,13
 496 354 496 354 420 272 c 128,-1,14
 344 190 344 190 344 68 c 0,15,16
 344 -52 344 -52 415 -134 c 128,-1,17
 486 -216 486 -216 604 -216 c 0,18,19
 714 -216 714 -216 782 -143 c 128,-1,20
 850 -70 850 -70 870 28 c 1,21,-1
 1102 -32 l 1,22,23
 1062 -202 1062 -202 931 -320 c 128,-1,24
 800 -438 800 -438 594 -438 c 0,25,26
 362 -438 362 -438 218 -292 c 128,-1,27
 74 -146 74 -146 74 68 c 0,0,1
EndSplineSet
EndChar

StartChar: uni01BA
Encoding: 442 442 380
Width: 892
GlyphClass: 2
Flags: W
LayerCount: 2
Fore
SplineSet
68 -116 m 0,0,1
 68 -40 68 -40 117 27 c 128,-1,2
 166 94 166 94 235 138 c 128,-1,3
 304 182 304 182 374 221 c 128,-1,4
 444 260 444 260 493 296 c 128,-1,5
 542 332 542 332 542 368 c 0,6,7
 542 414 542 414 476 443 c 128,-1,8
 410 472 410 472 300 472 c 2,9,-1
 230 472 l 1,10,-1
 230 608 l 1,11,-1
 494 854 l 1,12,-1
 74 854 l 1,13,-1
 74 1076 l 1,14,-1
 832 1076 l 1,15,-1
 832 904 l 1,16,-1
 522 620 l 1,17,-1
 562 618 l 2,18,19
 664 608 664 608 736 551 c 128,-1,20
 808 494 808 494 808 380 c 0,21,22
 808 306 808 306 760 243 c 128,-1,23
 712 180 712 180 643 136 c 128,-1,24
 574 92 574 92 503 53 c 128,-1,25
 432 14 432 14 384 -24 c 128,-1,26
 336 -62 336 -62 336 -98 c 0,27,28
 336 -190 336 -190 462 -190 c 0,29,30
 548 -190 548 -190 688 -158 c 1,31,-1
 688 -386 l 1,32,33
 518 -412 518 -412 422 -412 c 0,34,35
 264 -412 264 -412 166 -335 c 128,-1,36
 68 -258 68 -258 68 -116 c 0,0,1
EndSplineSet
EndChar

StartChar: uni01BB
Encoding: 443 443 381
Width: 1106
GlyphClass: 2
Flags: W
LayerCount: 2
Fore
SplineSet
186 598 m 1,0,-1
 186 812 l 1,1,-1
 608 812 l 1,2,3
 722 936 722 936 722 1080 c 0,4,5
 722 1178 722 1178 669 1228 c 128,-1,6
 616 1278 616 1278 548 1278 c 0,7,8
 544 1278 544 1278 542 1278 c 0,9,10
 452 1276 452 1276 396 1214 c 128,-1,11
 340 1152 340 1152 304 1028 c 1,12,-1
 76 1098 l 1,13,14
 116 1276 116 1276 233 1389 c 128,-1,15
 350 1502 350 1502 552 1502 c 0,16,17
 752 1502 752 1502 877 1385 c 128,-1,18
 1002 1268 1002 1268 1002 1070 c 0,19,20
 1002 940 1002 940 922 812 c 1,21,-1
 1064 812 l 1,22,-1
 1064 598 l 1,23,-1
 740 598 l 1,24,25
 726 584 726 584 685 544 c 128,-1,26
 644 504 644 504 627 487 c 128,-1,27
 610 470 610 470 575 432 c 128,-1,28
 540 394 540 394 519 368 c 128,-1,29
 498 342 498 342 472 302 c 128,-1,30
 446 262 446 262 424 222 c 1,31,-1
 996 222 l 1,32,-1
 996 0 l 1,33,-1
 94 0 l 1,34,35
 94 164 94 164 174 307 c 128,-1,36
 254 450 254 450 392 598 c 1,37,-1
 186 598 l 1,0,-1
EndSplineSet
EndChar

StartChar: uni01BC
Encoding: 444 444 382
Width: 1198
GlyphClass: 2
Flags: W
LayerCount: 2
Fore
SplineSet
84 284 m 1,0,-1
 306 362 l 1,1,2
 342 284 342 284 411 237 c 128,-1,3
 480 190 480 190 572 190 c 0,4,5
 684 190 684 190 753 263 c 128,-1,6
 822 336 822 336 822 456 c 0,7,8
 822 564 822 564 743 644 c 128,-1,9
 664 724 664 724 514 724 c 0,10,11
 380 724 380 724 234 686 c 1,12,-1
 308 1240 l 1,13,-1
 220 1240 l 1,14,-1
 220 1470 l 1,15,-1
 1032 1470 l 1,16,-1
 1032 1236 l 1,17,-1
 560 1236 l 1,18,-1
 522 940 l 1,19,20
 556 946 556 946 618 946 c 0,21,22
 834 946 834 946 970 811 c 128,-1,23
 1106 676 1106 676 1106 464 c 0,24,25
 1106 370 1106 370 1075 285 c 128,-1,26
 1044 200 1044 200 983 127 c 128,-1,27
 922 54 922 54 818 11 c 128,-1,28
 714 -32 714 -32 582 -32 c 0,29,30
 398 -32 398 -32 267 57 c 128,-1,31
 136 146 136 146 84 284 c 1,0,-1
EndSplineSet
EndChar

StartChar: uni01BD
Encoding: 445 445 383
Width: 976
GlyphClass: 2
Flags: W
LayerCount: 2
Fore
SplineSet
80 228 m 1,0,-1
 290 318 l 1,1,2
 314 260 314 260 361 224 c 128,-1,3
 408 188 408 188 464 188 c 0,4,5
 538 188 538 188 583 230 c 128,-1,6
 628 272 628 272 628 342 c 0,7,8
 628 402 628 402 576 453 c 128,-1,9
 524 504 524 504 430 504 c 0,10,11
 318 504 318 504 192 480 c 1,12,-1
 250 856 l 1,13,-1
 186 856 l 1,14,-1
 186 1076 l 1,15,-1
 816 1076 l 1,16,-1
 816 854 l 1,17,-1
 474 854 l 1,18,-1
 452 724 l 1,19,-1
 500 726 l 2,20,21
 676 726 676 726 786 619 c 128,-1,22
 896 512 896 512 896 354 c 0,23,24
 896 200 896 200 789 84 c 128,-1,25
 682 -32 682 -32 466 -32 c 0,26,27
 202 -32 202 -32 80 228 c 1,0,-1
EndSplineSet
EndChar

StartChar: uni01BE
Encoding: 446 446 384
Width: 898
GlyphClass: 2
Flags: W
LayerCount: 2
Fore
SplineSet
40 854 m 1,0,-1
 40 1076 l 1,1,-1
 192 1076 l 1,2,-1
 192 1384 l 1,3,-1
 452 1384 l 1,4,-1
 452 1076 l 1,5,-1
 680 1076 l 1,6,-1
 680 854 l 1,7,-1
 452 854 l 1,8,-1
 452 808 l 2,9,10
 452 746 452 746 491 702 c 128,-1,11
 530 658 530 658 585 627 c 128,-1,12
 640 596 640 596 695 560 c 128,-1,13
 750 524 750 524 790 460 c 128,-1,14
 830 396 830 396 830 306 c 0,15,16
 830 170 830 170 739 69 c 128,-1,17
 648 -32 648 -32 450 -32 c 0,18,19
 194 -32 194 -32 58 212 c 1,20,-1
 244 312 l 1,21,22
 286 250 286 250 330 220 c 128,-1,23
 374 190 374 190 440 190 c 0,24,25
 500 190 500 190 534 220 c 128,-1,26
 568 250 568 250 568 298 c 0,27,28
 568 338 568 338 540 369 c 128,-1,29
 512 400 512 400 471 421 c 128,-1,30
 430 442 430 442 380 472 c 128,-1,31
 330 502 330 502 289 537 c 128,-1,32
 248 572 248 572 220 636 c 128,-1,33
 192 700 192 700 192 784 c 2,34,-1
 192 854 l 1,35,-1
 40 854 l 1,0,-1
EndSplineSet
EndChar

StartChar: uni01BF
Encoding: 447 447 385
Width: 1150
GlyphClass: 2
Flags: W
LayerCount: 2
Fore
SplineSet
132 -430 m 1,0,-1
 132 1076 l 1,1,-1
 384 1076 l 1,2,-1
 384 992 l 1,3,4
 492 1108 492 1108 668 1108 c 0,5,6
 874 1108 874 1108 983 989 c 128,-1,7
 1092 870 1092 870 1092 682 c 0,8,9
 1092 118 1092 118 390 4 c 1,10,-1
 390 -430 l 1,11,-1
 132 -430 l 1,0,-1
390 220 m 1,12,13
 566 244 566 244 697 356 c 128,-1,14
 828 468 828 468 828 648 c 0,15,16
 828 770 828 770 775 828 c 128,-1,17
 722 886 722 886 636 886 c 0,18,19
 558 886 558 886 490 844 c 128,-1,20
 422 802 422 802 390 742 c 1,21,-1
 390 220 l 1,12,13
EndSplineSet
EndChar

StartChar: uni01C0
Encoding: 448 448 386
Width: 536
GlyphClass: 2
Flags: W
LayerCount: 2
Fore
SplineSet
150 -396 m 1,0,-1
 150 1626 l 1,1,-1
 386 1626 l 1,2,-1
 386 -396 l 1,3,-1
 150 -396 l 1,0,-1
EndSplineSet
EndChar

StartChar: uni01C1
Encoding: 449 449 387
Width: 936
GlyphClass: 2
Flags: W
LayerCount: 2
Fore
SplineSet
150 -396 m 1,0,-1
 150 1626 l 1,1,-1
 386 1626 l 1,2,-1
 386 -396 l 1,3,-1
 150 -396 l 1,0,-1
554 -396 m 1,4,-1
 554 1626 l 1,5,-1
 788 1626 l 1,6,-1
 788 -396 l 1,7,-1
 554 -396 l 1,4,-1
EndSplineSet
EndChar

StartChar: uni01C2
Encoding: 450 450 388
Width: 736
GlyphClass: 2
Flags: W
LayerCount: 2
Fore
SplineSet
28 816 m 1,0,-1
 28 996 l 1,1,-1
 252 996 l 1,2,-1
 252 1626 l 1,3,-1
 492 1626 l 1,4,-1
 492 996 l 1,5,-1
 710 996 l 1,6,-1
 710 816 l 1,7,-1
 492 816 l 1,8,-1
 492 576 l 1,9,-1
 710 576 l 1,10,-1
 710 392 l 1,11,-1
 492 392 l 1,12,-1
 492 -396 l 1,13,-1
 252 -396 l 1,14,-1
 252 392 l 1,15,-1
 28 392 l 1,16,-1
 28 576 l 1,17,-1
 252 576 l 1,18,-1
 252 816 l 1,19,-1
 28 816 l 1,0,-1
EndSplineSet
EndChar

StartChar: uni01DD
Encoding: 477 477 415
Width: 1118
GlyphClass: 2
Flags: W
LayerCount: 2
Fore
SplineSet
58 530 m 0,0,1
 58 578 58 578 64 628 c 1,2,-1
 794 628 l 1,3,4
 794 740 794 740 725 820 c 128,-1,5
 656 900 656 900 536 900 c 0,6,7
 452 900 452 900 388 856 c 128,-1,8
 324 812 324 812 292 748 c 1,9,-1
 74 828 l 1,10,11
 128 946 128 946 246 1027 c 128,-1,12
 364 1108 364 1108 542 1108 c 0,13,14
 770 1108 770 1108 915 951 c 128,-1,15
 1060 794 1060 794 1060 534 c 0,16,17
 1060 272 1060 272 915 120 c 128,-1,18
 770 -32 770 -32 556 -32 c 0,19,20
 346 -32 346 -32 202 124 c 128,-1,21
 58 280 58 280 58 530 c 0,0,1
322 448 m 1,22,23
 322 334 322 334 384 254 c 128,-1,24
 446 174 446 174 556 174 c 0,25,26
 662 174 662 174 726 254 c 128,-1,27
 790 334 790 334 794 448 c 1,28,-1
 322 448 l 1,22,23
EndSplineSet
EndChar

StartChar: uni01E4
Encoding: 484 484 422
Width: 1452
GlyphClass: 2
Flags: W
LayerCount: 2
Fore
SplineSet
72 736 m 0,0,1
 72 1060 72 1060 250 1281 c 128,-1,2
 428 1502 428 1502 746 1502 c 0,3,4
 858 1502 858 1502 955 1465 c 128,-1,5
 1052 1428 1052 1428 1116 1368 c 128,-1,6
 1180 1308 1180 1308 1220 1252 c 128,-1,7
 1260 1196 1260 1196 1286 1140 c 1,8,-1
 1052 1064 l 1,9,10
 980 1168 980 1168 928 1208 c 0,11,12
 848 1270 848 1270 746 1270 c 0,13,14
 564 1270 564 1270 458 1126 c 128,-1,15
 352 982 352 982 352 736 c 0,16,17
 352 494 352 494 458 347 c 128,-1,18
 564 200 564 200 726 200 c 0,19,20
 908 200 908 200 996 332 c 1,21,-1
 662 332 l 1,22,-1
 662 500 l 1,23,-1
 1058 500 l 1,24,25
 1060 536 1060 536 1060 554 c 2,26,-1
 1060 606 l 1,27,-1
 716 606 l 1,28,-1
 716 830 l 1,29,-1
 1324 830 l 1,30,-1
 1324 500 l 1,31,-1
 1438 500 l 1,32,-1
 1438 332 l 1,33,-1
 1324 332 l 1,34,-1
 1324 0 l 1,35,-1
 1138 0 l 1,36,-1
 1112 132 l 1,37,38
 994 -32 994 -32 724 -32 c 0,39,40
 448 -32 448 -32 260 175 c 128,-1,41
 72 382 72 382 72 736 c 0,0,1
EndSplineSet
EndChar

StartChar: uni01E5
Encoding: 485 485 423
Width: 1144
GlyphClass: 2
Flags: W
LayerCount: 2
Fore
SplineSet
68 598 m 256,0,1
 68 828 68 828 195 968 c 128,-1,2
 322 1108 322 1108 516 1108 c 0,3,4
 608 1108 608 1108 673 1063 c 128,-1,5
 738 1018 738 1018 762 972 c 1,6,-1
 762 1076 l 1,7,-1
 1022 1076 l 1,8,-1
 1022 212 l 2,9,10
 1022 104 1022 104 1016 36 c 1,11,-1
 1140 36 l 1,12,-1
 1140 -116 l 1,13,-1
 992 -116 l 1,14,15
 944 -274 944 -274 836 -356 c 128,-1,16
 728 -438 728 -438 532 -438 c 0,17,18
 260 -438 260 -438 104 -226 c 1,19,-1
 276 -106 l 1,20,21
 374 -230 374 -230 536 -230 c 0,22,23
 654 -230 654 -230 724 -116 c 1,24,-1
 394 -116 l 1,25,-1
 394 36 l 1,26,-1
 758 36 l 1,27,28
 764 80 764 80 764 142 c 2,29,-1
 764 218 l 1,30,31
 730 164 730 164 660 130 c 128,-1,32
 590 96 590 96 518 96 c 0,33,34
 326 96 326 96 197 232 c 128,-1,35
 68 368 68 368 68 598 c 256,0,1
334 598 m 0,36,37
 334 466 334 466 398 393 c 128,-1,38
 462 320 462 320 546 320 c 0,39,40
 636 320 636 320 697 396 c 128,-1,41
 758 472 758 472 758 604 c 0,42,43
 758 734 758 734 699 810 c 128,-1,44
 640 886 640 886 550 886 c 0,45,46
 456 886 456 886 395 805 c 128,-1,47
 334 724 334 724 334 598 c 0,36,37
EndSplineSet
EndChar

StartChar: uni01EF
Encoding: 495 495 433
Width: 1176
GlyphClass: 2
Flags: W
LayerCount: 2
Fore
SplineSet
174 1574 m 1,0,-1
 426 1574 l 1,1,-1
 586 1378 l 1,2,-1
 748 1574 l 1,3,-1
 1000 1574 l 1,4,-1
 696 1246 l 1,5,-1
 472 1246 l 1,6,-1
 174 1574 l 1,0,-1
76 -32 m 1,7,-1
 310 28 l 1,8,9
 330 -70 330 -70 398 -143 c 128,-1,10
 466 -216 466 -216 576 -216 c 0,11,12
 694 -216 694 -216 765 -134 c 128,-1,13
 836 -52 836 -52 836 70 c 0,14,15
 836 190 836 190 760 272 c 128,-1,16
 684 354 684 354 538 354 c 2,17,-1
 346 354 l 1,18,-1
 346 532 l 1,19,-1
 648 854 l 1,20,-1
 140 854 l 1,21,-1
 140 1076 l 1,22,-1
 1036 1076 l 1,23,-1
 1036 916 l 1,24,-1
 672 546 l 1,25,-1
 752 530 l 1,26,27
 902 490 902 490 1003 364 c 128,-1,28
 1104 238 1104 238 1104 70 c 0,29,30
 1104 -146 1104 -146 961 -292 c 128,-1,31
 818 -438 818 -438 584 -438 c 0,32,33
 378 -438 378 -438 247 -321 c 128,-1,34
 116 -204 116 -204 76 -32 c 1,7,-1
EndSplineSet
EndChar

StartChar: uni01F6
Encoding: 502 502 440
Width: 1984
GlyphClass: 2
Flags: W
LayerCount: 2
Fore
SplineSet
154 0 m 1,0,-1
 154 1470 l 1,1,-1
 426 1470 l 1,2,-1
 426 872 l 1,3,-1
 976 872 l 1,4,-1
 976 1470 l 1,5,-1
 1248 1470 l 1,6,-1
 1248 416 l 2,7,8
 1248 190 1248 190 1432 190 c 0,9,10
 1508 190 1508 190 1557 247 c 128,-1,11
 1606 304 1606 304 1606 390 c 2,12,-1
 1606 1076 l 1,13,-1
 1878 1076 l 1,14,-1
 1878 358 l 2,15,16
 1878 162 1878 162 1749 65 c 128,-1,17
 1620 -32 1620 -32 1432 -32 c 0,18,19
 1344 -32 1344 -32 1266 -12 c 128,-1,20
 1188 8 1188 8 1121 51 c 128,-1,21
 1054 94 1054 94 1015 173 c 128,-1,22
 976 252 976 252 976 360 c 2,23,-1
 976 640 l 1,24,-1
 426 640 l 1,25,-1
 426 0 l 1,26,-1
 154 0 l 1,0,-1
EndSplineSet
EndChar

StartChar: uni01F7
Encoding: 503 503 441
Width: 1290
GlyphClass: 2
Flags: W
LayerCount: 2
Fore
SplineSet
156 -426 m 1,0,-1
 156 1470 l 1,1,-1
 428 1470 l 1,2,-1
 428 1346 l 1,3,4
 598 1502 598 1502 786 1502 c 0,5,6
 1004 1502 1004 1502 1112 1366 c 128,-1,7
 1220 1230 1220 1230 1220 984 c 0,8,9
 1220 844 1220 844 1170 710 c 128,-1,10
 1120 576 1120 576 1040 471 c 128,-1,11
 960 366 960 366 853 272 c 128,-1,12
 746 178 746 178 641 114 c 128,-1,13
 536 50 536 50 428 2 c 1,14,-1
 428 -426 l 1,15,-1
 156 -426 l 1,0,-1
428 262 m 1,16,17
 628 368 628 368 784 561 c 128,-1,18
 940 754 940 754 940 972 c 0,19,20
 940 1120 940 1120 885 1195 c 128,-1,21
 830 1270 830 1270 726 1270 c 0,22,23
 648 1270 648 1270 567 1217 c 128,-1,24
 486 1164 486 1164 428 1082 c 1,25,-1
 428 262 l 1,16,17
EndSplineSet
EndChar

StartChar: Aringacute
Encoding: 506 506 444
Width: 1328
GlyphClass: 2
Flags: W
LayerCount: 2
Fore
SplineSet
-8 0 m 1,0,-1
 512 1456 l 1,1,2
 484 1472 484 1472 458 1496 c 0,3,4
 370 1574 370 1574 370 1692 c 0,5,6
 370 1806 370 1806 454 1888 c 0,7,8
 504 1936 504 1936 570 1954 c 1,9,-1
 734 2212 l 1,10,-1
 1042 2212 l 1,11,-1
 794 1944 l 1,12,13
 840 1924 840 1924 878 1886 c 0,14,15
 960 1804 960 1804 960 1692 c 0,16,17
 960 1574 960 1574 874 1496 c 0,18,19
 846 1470 846 1470 816 1452 c 1,20,-1
 1336 0 l 1,21,-1
 1048 0 l 1,22,-1
 936 346 l 1,23,-1
 392 346 l 1,24,-1
 282 0 l 1,25,-1
 -8 0 l 1,0,-1
462 564 m 1,26,-1
 866 564 l 1,27,-1
 758 912 l 2,28,29
 722 1032 722 1032 670 1206 c 1,30,-1
 660 1206 l 1,31,32
 644 1154 644 1154 614 1054 c 128,-1,33
 584 954 584 954 572 912 c 2,34,-1
 462 564 l 1,26,-1
550 1692 m 0,35,36
 550 1644 550 1644 583 1611 c 128,-1,37
 616 1578 616 1578 666 1578 c 0,38,39
 714 1578 714 1578 747 1610 c 128,-1,40
 780 1642 780 1642 780 1692 c 256,41,42
 780 1742 780 1742 748 1775 c 128,-1,43
 716 1808 716 1808 666 1808 c 256,44,45
 616 1808 616 1808 583 1775 c 128,-1,46
 550 1742 550 1742 550 1692 c 0,35,36
EndSplineSet
EndChar

StartChar: aringacute
Encoding: 507 507 445
Width: 1092
GlyphClass: 2
Flags: W
LayerCount: 2
Fore
SplineSet
58 288 m 0,0,1
 58 436 58 436 171 531 c 128,-1,2
 284 626 284 626 506 660 c 0,3,4
 682 688 682 688 726 702 c 1,5,-1
 726 758 l 2,6,7
 726 830 726 830 675 867 c 128,-1,8
 624 904 624 904 540 904 c 0,9,10
 372 904 372 904 244 766 c 1,11,-1
 88 900 l 1,12,13
 262 1108 262 1108 538 1108 c 0,14,15
 782 1108 782 1108 885 992 c 128,-1,16
 988 876 988 876 988 662 c 2,17,-1
 988 0 l 1,18,-1
 734 0 l 1,19,-1
 734 122 l 1,20,21
 700 58 700 58 620 13 c 128,-1,22
 540 -32 540 -32 438 -32 c 0,23,24
 262 -32 262 -32 160 57 c 128,-1,25
 58 146 58 146 58 288 c 0,0,1
258 1460 m 0,26,27
 258 1574 258 1574 342 1656 c 0,28,29
 392 1702 392 1702 456 1722 c 1,30,-1
 620 1980 l 1,31,-1
 930 1980 l 1,32,-1
 680 1712 l 1,33,34
 728 1692 728 1692 766 1654 c 0,35,36
 848 1572 848 1572 848 1460 c 0,37,38
 848 1342 848 1342 762 1263 c 128,-1,39
 676 1184 676 1184 554 1184 c 256,40,41
 432 1184 432 1184 345 1263 c 128,-1,42
 258 1342 258 1342 258 1460 c 0,26,27
326 310 m 0,43,44
 326 258 326 258 367 221 c 128,-1,45
 408 184 408 184 476 184 c 0,46,47
 580 184 580 184 653 254 c 128,-1,48
 726 324 726 324 726 436 c 2,49,-1
 726 520 l 1,50,51
 654 502 654 502 540 486 c 0,52,53
 326 452 326 452 326 310 c 0,43,44
436 1460 m 0,54,55
 436 1412 436 1412 469 1379 c 128,-1,56
 502 1346 502 1346 554 1346 c 0,57,58
 600 1346 600 1346 633 1378 c 128,-1,59
 666 1410 666 1410 666 1460 c 256,60,61
 666 1510 666 1510 634 1543 c 128,-1,62
 602 1576 602 1576 554 1576 c 0,63,64
 502 1576 502 1576 469 1543 c 128,-1,65
 436 1510 436 1510 436 1460 c 0,54,55
EndSplineSet
EndChar

StartChar: uni021C
Encoding: 540 540 478
Width: 1154
GlyphClass: 2
Flags: W
LayerCount: 2
Fore
SplineSet
68 -158 m 1,0,1
 220 -194 220 -194 388 -194 c 0,2,3
 568 -194 568 -194 679 -92 c 128,-1,4
 790 10 790 10 790 178 c 0,5,6
 790 362 790 362 705 445 c 128,-1,7
 620 528 620 528 502 528 c 0,8,9
 392 528 392 528 262 478 c 1,10,-1
 262 714 l 1,11,-1
 486 762 l 2,12,13
 608 788 608 788 687 860 c 128,-1,14
 766 932 766 932 766 1044 c 0,15,16
 766 1142 766 1142 702 1204 c 128,-1,17
 638 1266 638 1266 524 1266 c 0,18,19
 436 1266 436 1266 382 1226 c 128,-1,20
 328 1186 328 1186 284 1102 c 1,21,-1
 72 1204 l 1,22,23
 126 1344 126 1344 248 1423 c 128,-1,24
 370 1502 370 1502 528 1502 c 0,25,26
 782 1502 782 1502 917 1385 c 128,-1,27
 1052 1268 1052 1268 1052 1078 c 0,28,29
 1052 916 1052 916 976 810 c 128,-1,30
 900 704 900 704 796 658 c 1,31,-1
 796 656 l 1,32,33
 912 614 912 614 994 488 c 128,-1,34
 1076 362 1076 362 1076 170 c 0,35,36
 1076 -116 1076 -116 884 -274 c 128,-1,37
 692 -432 692 -432 388 -432 c 0,38,39
 242 -432 242 -432 68 -400 c 1,40,-1
 68 -158 l 1,0,1
EndSplineSet
EndChar

StartChar: uni021D
Encoding: 541 541 479
Width: 902
GlyphClass: 2
Flags: W
LayerCount: 2
Fore
SplineSet
52 -188 m 1,0,1
 178 -216 178 -216 306 -216 c 0,2,3
 426 -216 426 -216 498 -149 c 128,-1,4
 570 -82 570 -82 570 46 c 0,5,6
 570 162 570 162 511 229 c 128,-1,7
 452 296 452 296 370 296 c 0,8,9
 298 296 298 296 204 262 c 1,10,-1
 204 482 l 1,11,-1
 372 518 l 2,12,13
 458 536 458 536 507 592 c 128,-1,14
 556 648 556 648 556 724 c 0,15,16
 556 798 556 798 521 842 c 128,-1,17
 486 886 486 886 426 886 c 0,18,19
 308 886 308 886 264 752 c 1,20,-1
 64 828 l 1,21,22
 92 948 92 948 189 1028 c 128,-1,23
 286 1108 286 1108 444 1108 c 0,24,25
 614 1108 614 1108 717 1004 c 128,-1,26
 820 900 820 900 820 762 c 0,27,28
 820 530 820 530 628 422 c 1,29,30
 710 390 710 390 773 289 c 128,-1,31
 836 188 836 188 836 54 c 0,32,33
 836 -186 836 -186 698 -312 c 128,-1,34
 560 -438 560 -438 308 -438 c 0,35,36
 220 -438 220 -438 52 -416 c 1,37,-1
 52 -188 l 1,0,1
EndSplineSet
EndChar

StartChar: uni0220
Encoding: 544 544 482
Width: 1392
GlyphClass: 2
Flags: W
LayerCount: 2
Fore
SplineSet
154 0 m 1,0,-1
 154 1470 l 1,1,-1
 412 1470 l 1,2,-1
 412 1312 l 1,3,-1
 414 1312 l 1,4,5
 578 1502 578 1502 814 1502 c 0,6,7
 1244 1502 1244 1502 1244 972 c 2,8,-1
 1244 -430 l 1,9,-1
 972 -430 l 1,10,-1
 972 954 l 2,11,12
 972 1270 972 1270 744 1270 c 0,13,14
 614 1270 614 1270 520 1158 c 128,-1,15
 426 1046 426 1046 426 892 c 2,16,-1
 426 0 l 1,17,-1
 154 0 l 1,0,-1
EndSplineSet
EndChar

StartChar: uni0221
Encoding: 545 545 483
Width: 1472
GlyphClass: 2
Flags: W
LayerCount: 2
Fore
SplineSet
1062 -150 m 1,0,1
 1076 -196 1076 -196 1110 -225 c 128,-1,2
 1144 -254 1144 -254 1196 -254 c 0,3,4
 1238 -254 1238 -254 1264 -232 c 128,-1,5
 1290 -210 1290 -210 1290 -178 c 256,6,7
 1290 -146 1290 -146 1261 -120 c 128,-1,8
 1232 -94 1232 -94 1186 -94 c 0,9,10
 1118 -94 1118 -94 1062 -150 c 1,0,1
62 538 m 0,11,12
 62 806 62 806 191 957 c 128,-1,13
 320 1108 320 1108 522 1108 c 0,14,15
 610 1108 610 1108 677 1069 c 128,-1,16
 744 1030 744 1030 778 976 c 1,17,-1
 778 1518 l 1,18,-1
 1038 1518 l 1,19,-1
 1038 146 l 2,20,21
 1038 72 1038 72 1042 52 c 1,22,23
 1110 94 1110 94 1194 94 c 0,24,25
 1328 94 1328 94 1412 17 c 128,-1,26
 1496 -60 1496 -60 1496 -172 c 0,27,28
 1496 -294 1496 -294 1415 -366 c 128,-1,29
 1334 -438 1334 -438 1198 -438 c 0,30,31
 1064 -438 1064 -438 962 -342 c 1,32,33
 948 -368 948 -368 920 -444 c 1,34,-1
 704 -362 l 1,35,36
 766 -218 766 -218 814 -148 c 1,37,38
 788 -74 788 -74 780 62 c 1,39,-1
 780 120 l 1,40,41
 752 66 752 66 683 17 c 128,-1,42
 614 -32 614 -32 520 -32 c 0,43,44
 434 -32 434 -32 356 0 c 128,-1,45
 278 32 278 32 210 96 c 128,-1,46
 142 160 142 160 102 274 c 128,-1,47
 62 388 62 388 62 538 c 0,11,12
330 538 m 0,48,49
 330 370 330 370 392 280 c 128,-1,50
 454 190 454 190 556 190 c 256,51,52
 658 190 658 190 719 283 c 128,-1,53
 780 376 780 376 780 538 c 0,54,55
 780 694 780 694 721 790 c 128,-1,56
 662 886 662 886 556 886 c 256,57,58
 450 886 450 886 390 794 c 128,-1,59
 330 702 330 702 330 538 c 0,48,49
EndSplineSet
EndChar

StartChar: uni0222
Encoding: 546 546 484
Width: 1438
GlyphClass: 2
Flags: W
LayerCount: 2
Fore
SplineSet
72 492 m 0,0,1
 72 620 72 620 138 735 c 128,-1,2
 204 850 204 850 338 928 c 1,3,4
 242 980 242 980 184 1060 c 128,-1,5
 126 1140 126 1140 126 1276 c 0,6,7
 126 1396 126 1396 158 1470 c 1,8,-1
 426 1470 l 1,9,10
 408 1394 408 1394 408 1294 c 0,11,12
 408 1186 408 1186 493 1105 c 128,-1,13
 578 1024 578 1024 722 1024 c 0,14,15
 864 1024 864 1024 948 1106 c 128,-1,16
 1032 1188 1032 1188 1032 1294 c 0,17,18
 1032 1366 1032 1366 1014 1470 c 1,19,-1
 1282 1470 l 1,20,21
 1314 1394 1314 1394 1314 1276 c 0,22,23
 1314 1138 1314 1138 1256 1059 c 128,-1,24
 1198 980 1198 980 1102 928 c 1,25,26
 1236 850 1236 850 1303 735 c 128,-1,27
 1370 620 1370 620 1370 492 c 0,28,29
 1370 398 1370 398 1332 309 c 128,-1,30
 1294 220 1294 220 1220 141 c 128,-1,31
 1146 62 1146 62 1017 15 c 128,-1,32
 888 -32 888 -32 722 -32 c 256,33,34
 556 -32 556 -32 425 15 c 128,-1,35
 294 62 294 62 220 141 c 128,-1,36
 146 220 146 220 109 309 c 128,-1,37
 72 398 72 398 72 492 c 0,0,1
354 492 m 0,38,39
 354 356 354 356 456 278 c 128,-1,40
 558 200 558 200 722 200 c 0,41,42
 882 200 882 200 984 278 c 128,-1,43
 1086 356 1086 356 1086 492 c 0,44,45
 1086 624 1086 624 980 706 c 128,-1,46
 874 788 874 788 722 788 c 0,47,48
 566 788 566 788 460 707 c 128,-1,49
 354 626 354 626 354 492 c 0,38,39
EndSplineSet
EndChar

StartChar: uni0223
Encoding: 547 547 485
Width: 1116
GlyphClass: 2
Flags: W
LayerCount: 2
Fore
SplineSet
62 496 m 0,0,1
 62 648 62 648 122 761 c 128,-1,2
 182 874 182 874 288 930 c 1,3,4
 104 1038 104 1038 104 1286 c 0,5,6
 104 1386 104 1386 136 1480 c 1,7,-1
 392 1480 l 1,8,9
 372 1376 372 1376 372 1304 c 0,10,11
 372 1030 372 1030 558 1030 c 256,12,13
 744 1030 744 1030 744 1304 c 0,14,15
 744 1368 744 1368 722 1480 c 1,16,-1
 976 1480 l 1,17,18
 1010 1390 1010 1390 1010 1286 c 0,19,20
 1010 1032 1010 1032 830 930 c 1,21,22
 934 876 934 876 995 762 c 128,-1,23
 1056 648 1056 648 1056 496 c 0,24,25
 1056 420 1056 420 1040 349 c 128,-1,26
 1024 278 1024 278 988 207 c 128,-1,27
 952 136 952 136 897 84 c 128,-1,28
 842 32 842 32 754 0 c 128,-1,29
 666 -32 666 -32 558 -32 c 0,30,31
 426 -32 426 -32 325 15 c 128,-1,32
 224 62 224 62 170 142 c 128,-1,33
 116 222 116 222 89 311 c 128,-1,34
 62 400 62 400 62 496 c 0,0,1
330 496 m 256,35,36
 330 360 330 360 393 275 c 128,-1,37
 456 190 456 190 558 190 c 0,38,39
 662 190 662 190 725 274 c 128,-1,40
 788 358 788 358 788 496 c 0,41,42
 788 632 788 632 725 718 c 128,-1,43
 662 804 662 804 558 804 c 0,44,45
 456 804 456 804 393 718 c 128,-1,46
 330 632 330 632 330 496 c 256,35,36
EndSplineSet
EndChar

StartChar: uni0224
Encoding: 548 548 486
Width: 1202
GlyphClass: 2
Flags: W
LayerCount: 2
Fore
SplineSet
54 0 m 1,0,-1
 54 198 l 1,1,-1
 798 1236 l 1,2,-1
 116 1236 l 1,3,-1
 116 1470 l 1,4,-1
 1134 1470 l 1,5,-1
 1134 1268 l 1,6,-1
 392 232 l 1,7,-1
 910 232 l 2,8,9
 1258 232 1258 232 1258 -158 c 0,10,11
 1258 -298 1258 -298 1200 -430 c 1,12,-1
 954 -430 l 1,13,14
 1018 -306 1018 -306 1018 -196 c 0,15,16
 1018 -116 1018 -116 975 -58 c 128,-1,17
 932 0 932 0 838 0 c 2,18,-1
 54 0 l 1,0,-1
EndSplineSet
EndChar

StartChar: uni0225
Encoding: 549 549 487
Width: 966
GlyphClass: 2
Flags: W
LayerCount: 2
Fore
SplineSet
44 0 m 1,0,-1
 44 172 l 1,1,-1
 578 856 l 1,2,-1
 86 856 l 1,3,-1
 86 1080 l 1,4,-1
 920 1080 l 1,5,-1
 920 916 l 1,6,-1
 382 222 l 1,7,-1
 748 222 l 2,8,9
 1090 222 1090 222 1090 -154 c 0,10,11
 1090 -332 1090 -332 1046 -430 c 1,12,-1
 818 -430 l 1,13,14
 862 -346 862 -346 862 -200 c 0,15,16
 862 -104 862 -104 824 -52 c 128,-1,17
 786 0 786 0 688 0 c 2,18,-1
 44 0 l 1,0,-1
EndSplineSet
EndChar

StartChar: uni0234
Encoding: 564 564 502
Width: 826
GlyphClass: 2
Flags: W
LayerCount: 2
Fore
SplineSet
422 -148 m 1,0,1
 430 -192 430 -192 467 -223 c 128,-1,2
 504 -254 504 -254 554 -254 c 0,3,4
 598 -254 598 -254 622 -232 c 128,-1,5
 646 -210 646 -210 646 -178 c 256,6,7
 646 -146 646 -146 617 -120 c 128,-1,8
 588 -94 588 -94 544 -94 c 0,9,10
 478 -94 478 -94 422 -148 c 1,0,1
64 -362 m 1,11,12
 146 -186 146 -186 174 -148 c 1,13,14
 136 -54 136 -54 136 84 c 2,15,-1
 136 1518 l 1,16,-1
 398 1518 l 1,17,-1
 398 144 l 2,18,19
 398 68 398 68 400 52 c 1,20,21
 470 94 470 94 554 94 c 0,22,23
 686 94 686 94 769 18 c 128,-1,24
 852 -58 852 -58 852 -172 c 0,25,26
 852 -294 852 -294 772 -366 c 128,-1,27
 692 -438 692 -438 556 -438 c 0,28,29
 422 -438 422 -438 320 -342 c 1,30,31
 296 -382 296 -382 276 -444 c 1,32,-1
 64 -362 l 1,11,12
EndSplineSet
EndChar

StartChar: uni0235
Encoding: 565 565 503
Width: 1442
GlyphClass: 2
Flags: W
LayerCount: 2
Fore
SplineSet
1038 -148 m 1,0,1
 1048 -196 1048 -196 1085 -225 c 128,-1,2
 1122 -254 1122 -254 1170 -254 c 0,3,4
 1214 -254 1214 -254 1238 -233 c 128,-1,5
 1262 -212 1262 -212 1262 -178 c 0,6,7
 1262 -148 1262 -148 1235 -121 c 128,-1,8
 1208 -94 1208 -94 1162 -94 c 0,9,10
 1094 -94 1094 -94 1038 -148 c 1,0,1
120 0 m 1,11,-1
 120 1076 l 1,12,-1
 370 1076 l 1,13,-1
 370 956 l 1,14,-1
 372 956 l 1,15,16
 404 1014 404 1014 477 1061 c 128,-1,17
 550 1108 550 1108 660 1108 c 0,18,19
 1012 1108 1012 1108 1012 690 c 2,20,-1
 1012 136 l 2,21,22
 1010 106 1010 106 1010 86 c 0,23,24
 1010 64 1010 64 1012 52 c 1,25,26
 1078 94 1078 94 1168 94 c 0,27,28
 1300 94 1300 94 1384 18 c 128,-1,29
 1468 -58 1468 -58 1468 -172 c 0,30,31
 1468 -294 1468 -294 1388 -366 c 128,-1,32
 1308 -438 1308 -438 1170 -438 c 0,33,34
 1040 -438 1040 -438 936 -340 c 1,35,36
 904 -412 904 -412 892 -444 c 1,37,-1
 680 -362 l 1,38,39
 718 -254 718 -254 788 -148 c 1,40,41
 752 -54 752 -54 752 88 c 2,42,-1
 752 660 l 2,43,44
 752 886 752 886 600 886 c 0,45,46
 506 886 506 886 444 809 c 128,-1,47
 382 732 382 732 382 618 c 2,48,-1
 382 0 l 1,49,-1
 120 0 l 1,11,-1
EndSplineSet
EndChar

StartChar: uni0236
Encoding: 566 566 504
Width: 892
GlyphClass: 2
Flags: W
LayerCount: 2
Fore
SplineSet
476 -148 m 1,0,1
 484 -188 484 -188 521 -221 c 128,-1,2
 558 -254 558 -254 608 -254 c 0,3,4
 654 -254 654 -254 679 -232 c 128,-1,5
 704 -210 704 -210 704 -178 c 0,6,7
 704 -150 704 -150 675 -122 c 128,-1,8
 646 -94 646 -94 600 -94 c 0,9,10
 534 -94 534 -94 476 -148 c 1,0,1
32 854 m 1,11,-1
 32 1076 l 1,12,-1
 192 1076 l 1,13,-1
 192 1388 l 1,14,-1
 452 1388 l 1,15,-1
 452 1076 l 1,16,-1
 684 1076 l 1,17,-1
 684 854 l 1,18,-1
 452 854 l 1,19,-1
 452 52 l 1,20,21
 518 94 518 94 608 94 c 0,22,23
 742 94 742 94 824 18 c 128,-1,24
 906 -58 906 -58 906 -172 c 0,25,26
 906 -294 906 -294 826 -366 c 128,-1,27
 746 -438 746 -438 612 -438 c 0,28,29
 476 -438 476 -438 374 -342 c 1,30,31
 344 -390 344 -390 328 -444 c 1,32,-1
 118 -362 l 1,33,34
 178 -218 178 -218 228 -148 c 1,35,36
 192 -58 192 -58 192 88 c 2,37,-1
 192 854 l 1,38,-1
 32 854 l 1,11,-1
EndSplineSet
EndChar

StartChar: uni0237
Encoding: 567 567 505
Width: 544
GlyphClass: 2
Flags: W
LayerCount: 2
Fore
SplineSet
-24 -194 m 1,0,-1
 10 -194 l 2,1,2
 78 -194 78 -194 112 -147 c 128,-1,3
 146 -100 146 -100 146 4 c 2,4,-1
 146 1076 l 1,5,-1
 410 1076 l 1,6,-1
 410 -6 l 2,7,8
 410 -210 410 -210 318 -314 c 128,-1,9
 226 -418 226 -418 52 -418 c 2,10,-1
 -24 -418 l 1,11,-1
 -24 -194 l 1,0,-1
EndSplineSet
EndChar

StartChar: uni0238
Encoding: 568 568 506
Width: 1814
GlyphClass: 2
Flags: W
LayerCount: 2
Fore
SplineSet
62 538 m 0,0,1
 62 808 62 808 193 958 c 128,-1,2
 324 1108 324 1108 520 1108 c 0,3,4
 606 1108 606 1108 674 1069 c 128,-1,5
 742 1030 742 1030 776 976 c 1,6,-1
 776 1518 l 1,7,-1
 1038 1518 l 1,8,-1
 1038 978 l 1,9,10
 1144 1108 1144 1108 1296 1108 c 0,11,12
 1496 1108 1496 1108 1624 958 c 128,-1,13
 1752 808 1752 808 1752 538 c 0,14,15
 1752 386 1752 386 1710 271 c 128,-1,16
 1668 156 1668 156 1600 92 c 128,-1,17
 1532 28 1532 28 1455 -2 c 128,-1,18
 1378 -32 1378 -32 1298 -32 c 0,19,20
 1204 -32 1204 -32 1137 12 c 128,-1,21
 1070 56 1070 56 1038 118 c 1,22,-1
 1038 0 l 1,23,-1
 778 0 l 1,24,-1
 778 120 l 1,25,26
 744 56 744 56 672 12 c 128,-1,27
 600 -32 600 -32 516 -32 c 0,28,29
 434 -32 434 -32 359 -2 c 128,-1,30
 284 28 284 28 215 91 c 128,-1,31
 146 154 146 154 104 270 c 128,-1,32
 62 386 62 386 62 538 c 0,0,1
330 538 m 0,33,34
 330 368 330 368 393 279 c 128,-1,35
 456 190 456 190 556 190 c 0,36,37
 662 190 662 190 721 281 c 128,-1,38
 780 372 780 372 780 526 c 2,39,-1
 780 536 l 2,40,41
 780 690 780 690 721 788 c 128,-1,42
 662 886 662 886 556 886 c 0,43,44
 452 886 452 886 391 795 c 128,-1,45
 330 704 330 704 330 538 c 0,33,34
1036 524 m 2,46,47
 1036 376 1036 376 1098 283 c 128,-1,48
 1160 190 1160 190 1258 190 c 0,49,50
 1358 190 1358 190 1421 279 c 128,-1,51
 1484 368 1484 368 1484 538 c 0,52,53
 1484 700 1484 700 1424 793 c 128,-1,54
 1364 886 1364 886 1260 886 c 0,55,56
 1154 886 1154 886 1095 787 c 128,-1,57
 1036 688 1036 688 1036 534 c 2,58,-1
 1036 524 l 2,46,47
EndSplineSet
EndChar

StartChar: uni0239
Encoding: 569 569 507
Width: 1814
GlyphClass: 2
Flags: W
LayerCount: 2
Fore
SplineSet
62 538 m 0,0,1
 62 804 62 804 190 956 c 128,-1,2
 318 1108 318 1108 520 1108 c 0,3,4
 684 1108 684 1108 778 968 c 1,5,-1
 778 1076 l 1,6,-1
 1038 1076 l 1,7,-1
 1038 970 l 1,8,9
 1128 1108 1128 1108 1298 1108 c 0,10,11
 1500 1108 1500 1108 1627 956 c 128,-1,12
 1754 804 1754 804 1754 538 c 0,13,14
 1754 388 1754 388 1714 274 c 128,-1,15
 1674 160 1674 160 1607 96 c 128,-1,16
 1540 32 1540 32 1462 0 c 128,-1,17
 1384 -32 1384 -32 1298 -32 c 0,18,19
 1200 -32 1200 -32 1134 13 c 128,-1,20
 1068 58 1068 58 1038 116 c 1,21,-1
 1038 -430 l 1,22,-1
 776 -430 l 1,23,-1
 776 116 l 1,24,25
 738 56 738 56 671 12 c 128,-1,26
 604 -32 604 -32 516 -32 c 0,27,28
 432 -32 432 -32 355 0 c 128,-1,29
 278 32 278 32 210 95 c 128,-1,30
 142 158 142 158 102 273 c 128,-1,31
 62 388 62 388 62 538 c 0,0,1
328 538 m 0,32,33
 328 372 328 372 390 281 c 128,-1,34
 452 190 452 190 552 190 c 0,35,36
 662 190 662 190 722 282 c 128,-1,37
 782 374 782 374 782 538 c 2,38,-1
 782 550 l 2,39,40
 782 700 782 700 721 793 c 128,-1,41
 660 886 660 886 554 886 c 256,42,43
 448 886 448 886 388 790 c 128,-1,44
 328 694 328 694 328 538 c 0,32,33
1034 542 m 2,45,46
 1034 380 1034 380 1096 285 c 128,-1,47
 1158 190 1158 190 1262 190 c 0,48,49
 1362 190 1362 190 1424 281 c 128,-1,50
 1486 372 1486 372 1486 538 c 0,51,52
 1486 698 1486 698 1427 792 c 128,-1,53
 1368 886 1368 886 1262 886 c 0,54,55
 1162 886 1162 886 1098 793 c 128,-1,56
 1034 700 1034 700 1034 554 c 2,57,-1
 1034 542 l 2,45,46
EndSplineSet
EndChar

StartChar: uni023A
Encoding: 570 570 508
Width: 1328
GlyphClass: 2
Flags: W
LayerCount: 2
Fore
SplineSet
462 564 m 1,0,-1
 498 564 l 1,1,-1
 746 948 l 1,2,3
 716 1048 716 1048 670 1206 c 1,4,-1
 660 1206 l 1,5,6
 644 1154 644 1154 614 1053 c 128,-1,7
 584 952 584 952 572 912 c 2,8,-1
 462 564 l 1,0,-1
686 564 m 1,9,-1
 868 564 l 1,10,-1
 808 754 l 1,11,-1
 686 564 l 1,9,-1
-8 0 m 1,12,-1
 518 1470 l 1,13,-1
 812 1470 l 1,14,-1
 908 1200 l 1,15,-1
 1146 1570 l 1,16,-1
 1332 1570 l 1,17,-1
 974 1014 l 1,18,-1
 1336 0 l 1,19,-1
 1048 0 l 1,20,-1
 936 346 l 1,21,-1
 546 346 l 1,22,-1
 200 -192 l 1,23,-1
 12 -192 l 1,24,-1
 136 0 l 1,25,-1
 -8 0 l 1,12,-1
EndSplineSet
EndChar

StartChar: uni023B
Encoding: 571 571 509
Width: 1334
GlyphClass: 2
Flags: W
LayerCount: 2
Fore
SplineSet
72 736 m 0,0,1
 72 1078 72 1078 251 1290 c 128,-1,2
 430 1502 430 1502 730 1502 c 0,3,4
 822 1502 822 1502 920 1472 c 1,5,-1
 956 1574 l 1,6,-1
 1156 1574 l 1,7,-1
 1082 1378 l 1,8,9
 1136 1336 1136 1336 1187 1269 c 128,-1,10
 1238 1202 1238 1202 1262 1138 c 1,11,-1
 1028 1062 l 1,12,13
 1012 1092 1012 1092 986 1122 c 1,14,-1
 648 212 l 1,15,16
 690 200 690 200 728 200 c 0,17,18
 844 200 844 200 931 273 c 128,-1,19
 1018 346 1018 346 1054 442 c 1,20,-1
 1298 366 l 1,21,22
 1276 314 1276 314 1249 267 c 128,-1,23
 1222 220 1222 220 1172 163 c 128,-1,24
 1122 106 1122 106 1062 65 c 128,-1,25
 1002 24 1002 24 916 -4 c 128,-1,26
 830 -32 830 -32 730 -32 c 0,27,28
 644 -32 644 -32 564 -12 c 1,29,-1
 532 -108 l 1,30,-1
 332 -108 l 1,31,-1
 392 56 l 1,32,33
 238 156 238 156 155 330 c 128,-1,34
 72 504 72 504 72 736 c 0,0,1
486 308 m 1,35,-1
 838 1248 l 1,36,37
 782 1270 782 1270 728 1270 c 0,38,39
 550 1270 550 1270 451 1118 c 128,-1,40
 352 966 352 966 352 736 c 0,41,42
 352 456 352 456 486 308 c 1,35,-1
EndSplineSet
EndChar

StartChar: uni023C
Encoding: 572 572 510
Width: 1038
GlyphClass: 2
Flags: W
LayerCount: 2
Fore
SplineSet
62 538 m 0,0,1
 62 788 62 788 196 948 c 128,-1,2
 330 1108 330 1108 570 1108 c 0,3,4
 632 1108 632 1108 690 1092 c 1,5,-1
 732 1208 l 1,6,-1
 914 1208 l 1,7,-1
 840 1008 l 1,8,9
 884 976 884 976 925 910 c 128,-1,10
 966 844 966 844 980 778 c 1,11,-1
 774 722 l 1,12,13
 760 752 760 752 748 768 c 1,14,-1
 536 192 l 1,15,16
 546 190 546 190 564 190 c 0,17,18
 712 190 712 190 784 372 c 1,19,-1
 1004 310 l 1,20,21
 976 190 976 190 859 79 c 128,-1,22
 742 -32 742 -32 562 -32 c 0,23,24
 496 -32 496 -32 454 -24 c 1,25,-1
 424 -110 l 1,26,-1
 242 -110 l 1,27,-1
 298 38 l 1,28,29
 178 114 178 114 120 250 c 128,-1,30
 62 386 62 386 62 538 c 0,0,1
394 298 m 1,31,-1
 610 876 l 1,32,33
 586 886 586 886 564 886 c 0,34,35
 452 886 452 886 391 787 c 128,-1,36
 330 688 330 688 330 538 c 0,37,38
 330 394 330 394 394 298 c 1,31,-1
EndSplineSet
EndChar

StartChar: uni023D
Encoding: 573 573 511
Width: 1102
GlyphClass: 2
Flags: W
LayerCount: 2
Fore
SplineSet
6 716 m 1,0,-1
 6 932 l 1,1,-1
 154 932 l 1,2,-1
 154 1470 l 1,3,-1
 426 1470 l 1,4,-1
 426 932 l 1,5,-1
 780 932 l 1,6,-1
 780 716 l 1,7,-1
 426 716 l 1,8,-1
 426 232 l 1,9,-1
 1080 232 l 1,10,-1
 1080 0 l 1,11,-1
 154 0 l 1,12,-1
 154 716 l 1,13,-1
 6 716 l 1,0,-1
EndSplineSet
EndChar

StartChar: uni023E
Encoding: 574 574 512
Width: 1142
GlyphClass: 2
Flags: W
LayerCount: 2
Fore
SplineSet
706 1236 m 1,0,-1
 706 1038 l 1,1,-1
 816 1236 l 1,2,-1
 706 1236 l 1,0,-1
20 1236 m 1,3,-1
 20 1470 l 1,4,-1
 944 1470 l 1,5,-1
 1002 1574 l 1,6,-1
 1184 1574 l 1,7,-1
 1122 1462 l 1,8,-1
 1122 1236 l 1,9,-1
 998 1236 l 1,10,-1
 706 706 l 1,11,-1
 706 0 l 1,12,-1
 436 0 l 1,13,-1
 436 218 l 1,14,-1
 260 -102 l 1,15,-1
 78 -102 l 1,16,-1
 436 548 l 1,17,-1
 436 1236 l 1,18,-1
 20 1236 l 1,3,-1
EndSplineSet
EndChar

StartChar: uni023F
Encoding: 575 575 513
Width: 978
GlyphClass: 2
Flags: W
LayerCount: 2
Fore
SplineSet
42 228 m 1,0,-1
 224 338 l 1,1,2
 336 178 336 178 508 178 c 0,3,4
 578 178 578 178 626 210 c 128,-1,5
 674 242 674 242 674 290 c 0,6,7
 674 322 674 322 657 347 c 128,-1,8
 640 372 640 372 603 391 c 128,-1,9
 566 410 566 410 537 422 c 128,-1,10
 508 434 508 434 449 453 c 128,-1,11
 390 472 390 472 364 482 c 0,12,13
 232 532 232 532 160 598 c 128,-1,14
 88 664 88 664 88 788 c 0,15,16
 88 936 88 936 212 1022 c 128,-1,17
 336 1108 336 1108 502 1108 c 0,18,19
 648 1108 648 1108 764 1038 c 128,-1,20
 880 968 880 968 940 858 c 1,21,-1
 768 754 l 1,22,23
 710 826 710 826 650 862 c 128,-1,24
 590 898 590 898 500 898 c 0,25,26
 432 898 432 898 392 866 c 128,-1,27
 352 834 352 834 352 786 c 0,28,29
 352 736 352 736 404 699 c 128,-1,30
 456 662 456 662 534 640 c 0,31,32
 614 618 614 618 674 594 c 128,-1,33
 734 570 734 570 802 529 c 128,-1,34
 870 488 870 488 906 428 c 128,-1,35
 942 368 942 368 942 290 c 0,36,37
 942 150 942 150 827 59 c 128,-1,38
 712 -32 712 -32 508 -32 c 0,39,40
 418 -32 418 -32 346 -8 c 1,41,42
 348 -20 348 -20 359 -53 c 128,-1,43
 370 -86 370 -86 375 -100 c 128,-1,44
 380 -114 380 -114 392 -140 c 128,-1,45
 404 -166 404 -166 413 -178 c 128,-1,46
 422 -190 422 -190 439 -208 c 128,-1,47
 456 -226 456 -226 475 -234 c 128,-1,48
 494 -242 494 -242 521 -248 c 128,-1,49
 548 -254 548 -254 580 -254 c 0,50,51
 654 -254 654 -254 710 -242 c 1,52,-1
 710 -424 l 1,53,54
 608 -438 608 -438 570 -438 c 0,55,56
 462 -438 462 -438 383 -401 c 128,-1,57
 304 -364 304 -364 259 -295 c 128,-1,58
 214 -226 214 -226 191 -166 c 128,-1,59
 168 -106 168 -106 150 -24 c 0,60,61
 112 146 112 146 42 228 c 1,0,-1
EndSplineSet
EndChar

StartChar: uni0240
Encoding: 576 576 514
Width: 984
GlyphClass: 2
Flags: W
LayerCount: 2
Fore
SplineSet
44 0 m 1,0,-1
 44 172 l 1,1,-1
 578 854 l 1,2,-1
 86 854 l 1,3,-1
 86 1076 l 1,4,-1
 920 1076 l 1,5,-1
 920 912 l 1,6,-1
 340 172 l 1,7,8
 402 154 402 154 456 107 c 128,-1,9
 510 60 510 60 549 6 c 128,-1,10
 588 -48 588 -48 626 -98 c 128,-1,11
 664 -148 664 -148 713 -182 c 128,-1,12
 762 -216 762 -216 816 -216 c 0,13,14
 902 -216 902 -216 946 -204 c 1,15,-1
 946 -422 l 1,16,17
 880 -438 880 -438 800 -438 c 0,18,19
 708 -438 708 -438 634 -396 c 128,-1,20
 560 -354 560 -354 511 -293 c 128,-1,21
 462 -232 462 -232 415 -169 c 128,-1,22
 368 -106 368 -106 310 -58 c 128,-1,23
 252 -10 252 -10 184 0 c 1,24,-1
 44 0 l 1,0,-1
EndSplineSet
EndChar

StartChar: uni0241
Encoding: 577 577 515
Width: 1186
GlyphClass: 2
Flags: W
LayerCount: 2
Fore
SplineSet
110 1128 m 1,0,1
 150 1292 150 1292 282 1397 c 128,-1,2
 414 1502 414 1502 604 1502 c 0,3,4
 804 1502 804 1502 934 1386 c 128,-1,5
 1064 1270 1064 1270 1064 1080 c 0,6,7
 1064 994 1064 994 1030 921 c 128,-1,8
 996 848 996 848 946 797 c 128,-1,9
 896 746 896 746 847 699 c 128,-1,10
 798 652 798 652 763 592 c 128,-1,11
 728 532 728 532 728 460 c 2,12,-1
 728 0 l 1,13,-1
 458 0 l 1,14,-1
 458 484 l 2,15,16
 458 570 458 570 492 642 c 128,-1,17
 526 714 526 714 573 764 c 128,-1,18
 620 814 620 814 668 861 c 128,-1,19
 716 908 716 908 750 966 c 128,-1,20
 784 1024 784 1024 784 1092 c 0,21,22
 784 1172 784 1172 733 1221 c 128,-1,23
 682 1270 682 1270 608 1270 c 0,24,25
 522 1270 522 1270 456 1215 c 128,-1,26
 390 1160 390 1160 356 1056 c 1,27,-1
 110 1128 l 1,0,1
EndSplineSet
EndChar

StartChar: uni0250
Encoding: 592 592 516
Width: 1092
GlyphClass: 2
Flags: W
LayerCount: 2
Fore
SplineSet
368 556 m 1,0,1
 466 578 466 578 554 592 c 0,2,3
 662 610 662 610 716 651 c 128,-1,4
 770 692 770 692 770 766 c 0,5,6
 770 820 770 820 728 856 c 128,-1,7
 686 892 686 892 618 892 c 0,8,9
 516 892 516 892 442 822 c 128,-1,10
 368 752 368 752 368 652 c 2,11,-1
 368 556 l 1,0,1
106 414 m 2,12,-1
 106 1076 l 1,13,-1
 362 1076 l 1,14,-1
 362 954 l 1,15,16
 392 1014 392 1014 470 1061 c 128,-1,17
 548 1108 548 1108 656 1108 c 0,18,19
 830 1108 830 1108 933 1020 c 128,-1,20
 1036 932 1036 932 1036 788 c 0,21,22
 1036 630 1036 630 912 537 c 128,-1,23
 788 444 788 444 560 412 c 0,24,25
 432 394 432 394 368 376 c 1,26,-1
 368 312 l 2,27,28
 368 246 368 246 423 209 c 128,-1,29
 478 172 478 172 556 172 c 0,30,31
 722 172 722 172 850 310 c 1,32,-1
 1008 176 l 1,33,34
 924 74 924 74 806 21 c 128,-1,35
 688 -32 688 -32 556 -32 c 0,36,37
 316 -32 316 -32 211 84 c 128,-1,38
 106 200 106 200 106 414 c 2,12,-1
EndSplineSet
EndChar

StartChar: uni0251
Encoding: 593 593 517
Width: 1154
GlyphClass: 2
Flags: W
LayerCount: 2
Fore
SplineSet
330 538 m 0,0,1
 330 368 330 368 392 279 c 128,-1,2
 454 190 454 190 554 190 c 0,3,4
 638 190 638 190 705 274 c 128,-1,5
 772 358 772 358 772 538 c 0,6,7
 772 694 772 694 714 790 c 128,-1,8
 656 886 656 886 552 886 c 256,9,10
 448 886 448 886 389 794 c 128,-1,11
 330 702 330 702 330 538 c 0,0,1
62 538 m 0,12,13
 62 806 62 806 188 957 c 128,-1,14
 314 1108 314 1108 516 1108 c 0,15,16
 676 1108 676 1108 768 976 c 1,17,-1
 768 1076 l 1,18,-1
 1030 1076 l 1,19,-1
 1030 0 l 1,20,-1
 774 0 l 1,21,-1
 774 122 l 1,22,23
 742 58 742 58 671 13 c 128,-1,24
 600 -32 600 -32 514 -32 c 0,25,26
 430 -32 430 -32 352 0 c 128,-1,27
 274 32 274 32 207 96 c 128,-1,28
 140 160 140 160 101 274 c 128,-1,29
 62 388 62 388 62 538 c 0,12,13
EndSplineSet
EndChar

StartChar: uni0252
Encoding: 594 594 518
Width: 1154
GlyphClass: 2
Flags: W
LayerCount: 2
Fore
SplineSet
126 0 m 1,0,-1
 126 1076 l 1,1,-1
 386 1076 l 1,2,-1
 386 978 l 1,3,4
 492 1108 492 1108 640 1108 c 0,5,6
 840 1108 840 1108 967 956 c 128,-1,7
 1094 804 1094 804 1094 538 c 0,8,9
 1094 388 1094 388 1053 273 c 128,-1,10
 1012 158 1012 158 944 94 c 128,-1,11
 876 30 876 30 800 -1 c 128,-1,12
 724 -32 724 -32 644 -32 c 0,13,14
 554 -32 554 -32 483 16 c 128,-1,15
 412 64 412 64 382 122 c 1,16,-1
 382 0 l 1,17,-1
 126 0 l 1,0,-1
382 538 m 0,18,19
 382 376 382 376 443 283 c 128,-1,20
 504 190 504 190 602 190 c 0,21,22
 704 190 704 190 764 280 c 128,-1,23
 824 370 824 370 824 538 c 0,24,25
 824 702 824 702 765 794 c 128,-1,26
 706 886 706 886 602 886 c 256,27,28
 498 886 498 886 440 790 c 128,-1,29
 382 694 382 694 382 538 c 0,18,19
EndSplineSet
EndChar

StartChar: uni0253
Encoding: 595 595 519
Width: 1166
GlyphClass: 2
Flags: W
LayerCount: 2
Fore
SplineSet
386 540 m 0,0,1
 386 376 386 376 447 283 c 128,-1,2
 508 190 508 190 614 190 c 0,3,4
 716 190 716 190 777 281 c 128,-1,5
 838 372 838 372 838 540 c 0,6,7
 838 700 838 700 778 793 c 128,-1,8
 718 886 718 886 612 886 c 256,9,10
 506 886 506 886 446 793 c 128,-1,11
 386 700 386 700 386 540 c 0,0,1
130 0 m 1,12,-1
 130 1206 l 2,13,14
 130 1380 130 1380 234 1472 c 128,-1,15
 338 1564 338 1564 502 1564 c 0,16,17
 588 1564 588 1564 700 1552 c 1,18,-1
 698 1320 l 1,19,20
 592 1332 592 1332 550 1332 c 0,21,22
 478 1332 478 1332 433 1286 c 128,-1,23
 388 1240 388 1240 388 1158 c 2,24,-1
 388 978 l 1,25,26
 490 1108 490 1108 650 1108 c 0,27,28
 850 1108 850 1108 978 956 c 128,-1,29
 1106 804 1106 804 1106 540 c 0,30,31
 1106 258 1106 258 970 113 c 128,-1,32
 834 -32 834 -32 652 -32 c 0,33,34
 558 -32 558 -32 488 15 c 128,-1,35
 418 62 418 62 382 122 c 1,36,-1
 382 0 l 1,37,-1
 130 0 l 1,12,-1
EndSplineSet
EndChar

StartChar: uni0254
Encoding: 596 596 520
Width: 1038
GlyphClass: 2
Flags: W
LayerCount: 2
Fore
SplineSet
32 310 m 1,0,-1
 256 372 l 1,1,2
 276 302 276 302 333 246 c 128,-1,3
 390 190 390 190 472 190 c 0,4,5
 574 190 574 190 641 280 c 128,-1,6
 708 370 708 370 708 536 c 0,7,8
 708 686 708 686 647 786 c 128,-1,9
 586 886 586 886 472 886 c 0,10,11
 398 886 398 886 350 837 c 128,-1,12
 302 788 302 788 282 718 c 1,13,-1
 60 778 l 1,14,15
 88 906 88 906 199 1007 c 128,-1,16
 310 1108 310 1108 476 1108 c 0,17,18
 698 1108 698 1108 838 954 c 128,-1,19
 978 800 978 800 978 536 c 0,20,21
 978 278 978 278 840 123 c 128,-1,22
 702 -32 702 -32 476 -32 c 0,23,24
 312 -32 312 -32 189 72 c 128,-1,25
 66 176 66 176 32 310 c 1,0,-1
EndSplineSet
EndChar

StartChar: uni0255
Encoding: 597 597 521
Width: 1040
GlyphClass: 2
Flags: W
LayerCount: 2
Fore
SplineSet
538 178 m 1,0,1
 594 146 594 146 652 146 c 0,2,3
 712 146 712 146 747 168 c 128,-1,4
 782 190 782 190 782 222 c 0,5,6
 782 252 782 252 757 270 c 128,-1,7
 732 288 732 288 694 288 c 0,8,9
 592 288 592 288 538 178 c 1,0,1
62 556 m 0,10,11
 62 788 62 788 195 948 c 128,-1,12
 328 1108 328 1108 566 1108 c 0,13,14
 736 1108 736 1108 843 1004 c 128,-1,15
 950 900 950 900 978 778 c 1,16,-1
 760 718 l 1,17,18
 708 886 708 886 566 886 c 0,19,20
 454 886 454 886 392 786 c 128,-1,21
 330 686 330 686 330 538 c 0,22,23
 330 398 330 398 388 302 c 1,24,25
 436 368 436 368 519 419 c 128,-1,26
 602 470 602 470 704 470 c 0,27,28
 826 470 826 470 909 403 c 128,-1,29
 992 336 992 336 992 224 c 0,30,31
 992 102 992 102 900 35 c 128,-1,32
 808 -32 808 -32 646 -32 c 0,33,34
 550 -32 550 -32 462 -14 c 1,35,36
 440 -74 440 -74 432 -128 c 1,37,-1
 210 -78 l 1,38,39
 224 0 224 0 258 74 c 1,40,41
 62 234 62 234 62 556 c 0,10,11
EndSplineSet
EndChar

StartChar: uni0256
Encoding: 598 598 522
Width: 1156
GlyphClass: 2
Flags: W
LayerCount: 2
Fore
SplineSet
62 538 m 0,0,1
 62 808 62 808 194 958 c 128,-1,2
 326 1108 326 1108 522 1108 c 0,3,4
 608 1108 608 1108 676 1069 c 128,-1,5
 744 1030 744 1030 778 976 c 1,6,-1
 778 1518 l 1,7,-1
 1038 1518 l 1,8,-1
 1038 -54 l 2,9,10
 1038 -208 1038 -208 1166 -208 c 0,11,12
 1232 -208 1232 -208 1318 -192 c 1,13,-1
 1318 -420 l 1,14,15
 1182 -438 1182 -438 1114 -438 c 0,16,17
 970 -438 970 -438 877 -353 c 128,-1,18
 784 -268 784 -268 784 -72 c 2,19,-1
 784 120 l 1,20,21
 748 56 748 56 676 12 c 128,-1,22
 604 -32 604 -32 520 -32 c 0,23,24
 434 -32 434 -32 356 0 c 128,-1,25
 278 32 278 32 210 96 c 128,-1,26
 142 160 142 160 102 274 c 128,-1,27
 62 388 62 388 62 538 c 0,0,1
330 538 m 0,28,29
 330 374 330 374 391 282 c 128,-1,30
 452 190 452 190 558 190 c 0,31,32
 660 190 660 190 720 284 c 128,-1,33
 780 378 780 378 780 538 c 0,34,35
 780 694 780 694 721 790 c 128,-1,36
 662 886 662 886 556 886 c 0,37,38
 452 886 452 886 391 795 c 128,-1,39
 330 704 330 704 330 538 c 0,28,29
EndSplineSet
EndChar

StartChar: uni0257
Encoding: 599 599 523
Width: 1156
GlyphClass: 2
Flags: W
LayerCount: 2
Fore
SplineSet
62 538 m 0,0,1
 62 806 62 806 192 957 c 128,-1,2
 322 1108 322 1108 522 1108 c 0,3,4
 610 1108 610 1108 678 1069 c 128,-1,5
 746 1030 746 1030 778 976 c 1,6,-1
 778 1218 l 2,7,8
 778 1386 778 1386 882 1475 c 128,-1,9
 986 1564 986 1564 1146 1564 c 0,10,11
 1228 1564 1228 1564 1334 1556 c 1,12,-1
 1334 1324 l 1,13,14
 1270 1332 1270 1332 1194 1332 c 0,15,16
 1126 1332 1126 1332 1082 1288 c 128,-1,17
 1038 1244 1038 1244 1038 1166 c 2,18,-1
 1038 0 l 1,19,-1
 786 0 l 1,20,-1
 786 124 l 1,21,22
 754 62 754 62 681 15 c 128,-1,23
 608 -32 608 -32 520 -32 c 0,24,25
 434 -32 434 -32 356 0 c 128,-1,26
 278 32 278 32 210 96 c 128,-1,27
 142 160 142 160 102 274 c 128,-1,28
 62 388 62 388 62 538 c 0,0,1
330 538 m 0,29,30
 330 368 330 368 391 279 c 128,-1,31
 452 190 452 190 558 190 c 0,32,33
 658 190 658 190 719 281 c 128,-1,34
 780 372 780 372 780 538 c 0,35,36
 780 694 780 694 721 790 c 128,-1,37
 662 886 662 886 556 886 c 0,38,39
 448 886 448 886 389 793 c 128,-1,40
 330 700 330 700 330 538 c 0,29,30
EndSplineSet
EndChar

StartChar: uni0258
Encoding: 600 600 524
Width: 1118
GlyphClass: 2
Flags: W
LayerCount: 2
Fore
SplineSet
64 448 m 1,0,1
 58 496 58 496 58 548 c 0,2,3
 58 800 58 800 202 954 c 128,-1,4
 346 1108 346 1108 556 1108 c 0,5,6
 770 1108 770 1108 915 956 c 128,-1,7
 1060 804 1060 804 1060 542 c 0,8,9
 1060 278 1060 278 914 123 c 128,-1,10
 768 -32 768 -32 542 -32 c 0,11,12
 366 -32 366 -32 247 49 c 128,-1,13
 128 130 128 130 74 248 c 1,14,-1
 292 326 l 1,15,16
 326 262 326 262 389 219 c 128,-1,17
 452 176 452 176 536 176 c 0,18,19
 654 176 654 176 722 255 c 128,-1,20
 790 334 790 334 790 448 c 1,21,-1
 64 448 l 1,0,1
326 628 m 1,22,-1
 790 628 l 1,23,24
 788 742 788 742 726 822 c 128,-1,25
 664 902 664 902 556 902 c 0,26,27
 446 902 446 902 386 823 c 128,-1,28
 326 744 326 744 326 628 c 1,22,-1
EndSplineSet
EndChar

StartChar: uni025A
Encoding: 602 602 526
Width: 1320
GlyphClass: 2
Flags: W
LayerCount: 2
Fore
SplineSet
60 460 m 1,0,-1
 762 764 l 1,1,2
 686 900 686 900 544 900 c 0,3,4
 378 900 378 900 290 748 c 1,5,-1
 74 828 l 1,6,7
 128 948 128 948 248 1028 c 128,-1,8
 368 1108 368 1108 548 1108 c 0,9,10
 692 1108 692 1108 802 1042 c 128,-1,11
 912 976 912 976 974 868 c 1,12,-1
 1138 940 l 1,13,14
 1160 868 1160 868 1204 823 c 128,-1,15
 1248 778 1248 778 1300 778 c 0,16,17
 1362 778 1362 778 1396 790 c 1,18,-1
 1396 584 l 1,19,20
 1340 566 1340 566 1278 566 c 0,21,22
 1214 566 1214 566 1161 595 c 128,-1,23
 1108 624 1108 624 1084 670 c 1,24,-1
 1048 654 l 1,25,26
 1058 594 1058 594 1058 536 c 0,27,28
 1058 284 1058 284 919 126 c 128,-1,29
 780 -32 780 -32 554 -32 c 0,30,31
 436 -32 436 -32 340 15 c 128,-1,32
 244 62 244 62 187 137 c 128,-1,33
 130 212 130 212 98 295 c 128,-1,34
 66 378 66 378 60 460 c 1,0,-1
340 350 m 1,35,36
 358 268 358 268 418 221 c 128,-1,37
 478 174 478 174 554 174 c 0,38,39
 638 174 638 174 696 229 c 128,-1,40
 754 284 754 284 770 378 c 1,41,42
 794 442 794 442 794 510 c 0,43,44
 794 528 794 528 792 546 c 1,45,-1
 340 350 l 1,35,36
EndSplineSet
EndChar

StartChar: uni025B
Encoding: 603 603 527
Width: 1008
GlyphClass: 2
Flags: W
LayerCount: 2
Fore
SplineSet
62 314 m 0,0,1
 62 404 62 404 109 469 c 128,-1,2
 156 534 156 534 224 568 c 1,3,-1
 226 568 l 1,4,5
 100 654 100 654 100 794 c 256,6,7
 100 934 100 934 216 1021 c 128,-1,8
 332 1108 332 1108 520 1108 c 0,9,10
 814 1108 814 1108 956 838 c 1,11,-1
 742 752 l 1,12,13
 706 810 706 810 648 848 c 128,-1,14
 590 886 590 886 524 886 c 0,15,16
 368 886 368 886 368 774 c 0,17,18
 368 722 368 722 413 686 c 128,-1,19
 458 650 458 650 542 650 c 2,20,-1
 676 650 l 1,21,-1
 676 454 l 1,22,-1
 542 454 l 2,23,24
 430 454 430 454 380 415 c 128,-1,25
 330 376 330 376 330 318 c 0,26,27
 330 254 330 254 392 222 c 128,-1,28
 454 190 454 190 528 190 c 0,29,30
 604 190 604 190 671 226 c 128,-1,31
 738 262 738 262 772 318 c 1,32,-1
 976 228 l 1,33,34
 920 114 920 114 801 41 c 128,-1,35
 682 -32 682 -32 524 -32 c 0,36,37
 326 -32 326 -32 194 60 c 128,-1,38
 62 152 62 152 62 314 c 0,0,1
EndSplineSet
EndChar

StartChar: uni025C
Encoding: 604 604 528
Width: 1008
GlyphClass: 2
Flags: W
LayerCount: 2
Fore
SplineSet
32 228 m 1,0,-1
 236 318 l 1,1,2
 270 262 270 262 337 226 c 128,-1,3
 404 190 404 190 480 190 c 0,4,5
 554 190 554 190 616 222 c 128,-1,6
 678 254 678 254 678 318 c 0,7,8
 678 376 678 376 628 415 c 128,-1,9
 578 454 578 454 466 454 c 2,10,-1
 332 454 l 1,11,-1
 332 650 l 1,12,-1
 466 650 l 2,13,14
 550 650 550 650 595 686 c 128,-1,15
 640 722 640 722 640 774 c 0,16,17
 640 886 640 886 484 886 c 0,18,19
 418 886 418 886 360 848 c 128,-1,20
 302 810 302 810 266 752 c 1,21,-1
 52 838 l 1,22,23
 194 1108 194 1108 488 1108 c 0,24,25
 676 1108 676 1108 792 1021 c 128,-1,26
 908 934 908 934 908 794 c 256,27,28
 908 654 908 654 782 568 c 1,29,-1
 784 568 l 1,30,31
 852 534 852 534 899 469 c 128,-1,32
 946 404 946 404 946 314 c 0,33,34
 946 152 946 152 814 60 c 128,-1,35
 682 -32 682 -32 484 -32 c 0,36,37
 326 -32 326 -32 207 41 c 128,-1,38
 88 114 88 114 32 228 c 1,0,-1
EndSplineSet
EndChar

StartChar: uni025D
Encoding: 605 605 529
Width: 1206
GlyphClass: 2
Flags: W
LayerCount: 2
Fore
SplineSet
32 228 m 1,0,-1
 236 318 l 1,1,2
 266 268 266 268 333 229 c 128,-1,3
 400 190 400 190 480 190 c 0,4,5
 570 190 570 190 624 226 c 128,-1,6
 678 262 678 262 678 322 c 0,7,8
 678 380 678 380 625 417 c 128,-1,9
 572 454 572 454 464 454 c 2,10,-1
 332 454 l 1,11,-1
 332 650 l 1,12,-1
 464 650 l 2,13,14
 548 650 548 650 594 686 c 128,-1,15
 640 722 640 722 640 774 c 0,16,17
 640 886 640 886 486 886 c 0,18,19
 348 886 348 886 264 752 c 1,20,-1
 52 838 l 1,21,22
 200 1108 200 1108 488 1108 c 0,23,24
 728 1108 728 1108 846 972 c 1,25,-1
 1000 1062 l 1,26,27
 1022 990 1022 990 1071 941 c 128,-1,28
 1120 892 1120 892 1172 892 c 0,29,30
 1230 892 1230 892 1270 906 c 1,31,-1
 1270 698 l 1,32,33
 1214 680 1214 680 1152 680 c 0,34,35
 1088 680 1088 680 1031 711 c 128,-1,36
 974 742 974 742 950 786 c 1,37,-1
 904 760 l 1,38,39
 898 720 898 720 896 714 c 0,40,41
 872 620 872 620 784 570 c 1,42,-1
 786 568 l 1,43,44
 850 536 850 536 898 473 c 128,-1,45
 946 410 946 410 946 320 c 0,46,47
 946 154 946 154 817 61 c 128,-1,48
 688 -32 688 -32 482 -32 c 0,49,50
 324 -32 324 -32 204 42 c 128,-1,51
 84 116 84 116 32 228 c 1,0,-1
EndSplineSet
EndChar

StartChar: uni025E
Encoding: 606 606 530
Width: 1112
GlyphClass: 2
Flags: W
LayerCount: 2
Fore
SplineSet
62 538 m 0,0,1
 62 654 62 654 90 752 c 128,-1,2
 118 850 118 850 179 932 c 128,-1,3
 240 1014 240 1014 346 1061 c 128,-1,4
 452 1108 452 1108 594 1108 c 0,5,6
 764 1108 764 1108 890 1029 c 128,-1,7
 1016 950 1016 950 1016 796 c 0,8,9
 1016 646 1016 646 902 570 c 1,10,-1
 904 570 l 1,11,12
 1056 492 1056 492 1056 320 c 0,13,14
 1056 224 1056 224 1016 154 c 128,-1,15
 976 84 976 84 907 45 c 128,-1,16
 838 6 838 6 760 -13 c 128,-1,17
 682 -32 682 -32 594 -32 c 0,18,19
 452 -32 452 -32 347 13 c 128,-1,20
 242 58 242 58 181 139 c 128,-1,21
 120 220 120 220 91 319 c 128,-1,22
 62 418 62 418 62 538 c 0,0,1
330 538 m 0,23,24
 330 348 330 348 408 269 c 128,-1,25
 486 190 486 190 598 190 c 0,26,27
 786 190 786 190 786 320 c 0,28,29
 786 372 786 372 734 412 c 128,-1,30
 682 452 682 452 592 452 c 2,31,-1
 512 452 l 1,32,-1
 512 656 l 1,33,-1
 592 656 l 2,34,35
 664 656 664 656 705 690 c 128,-1,36
 746 724 746 724 746 776 c 0,37,38
 746 830 746 830 704 859 c 128,-1,39
 662 888 662 888 596 888 c 0,40,41
 492 888 492 888 411 805 c 128,-1,42
 330 722 330 722 330 538 c 0,23,24
EndSplineSet
EndChar

StartChar: uni025F
Encoding: 607 607 531
Width: 548
GlyphClass: 2
Flags: W
LayerCount: 2
Fore
SplineSet
-38 488 m 1,0,-1
 -38 702 l 1,1,-1
 148 702 l 1,2,-1
 148 1076 l 1,3,-1
 410 1076 l 1,4,-1
 410 702 l 1,5,-1
 590 702 l 1,6,-1
 590 488 l 1,7,-1
 410 488 l 1,8,-1
 410 -6 l 2,9,10
 410 -210 410 -210 319 -314 c 128,-1,11
 228 -418 228 -418 54 -418 c 2,12,-1
 -22 -418 l 1,13,-1
 -22 -194 l 1,14,-1
 10 -194 l 2,15,16
 80 -194 80 -194 114 -147 c 128,-1,17
 148 -100 148 -100 148 4 c 2,18,-1
 148 488 l 1,19,-1
 -38 488 l 1,0,-1
EndSplineSet
EndChar

StartChar: uni0260
Encoding: 608 608 532
Width: 1164
GlyphClass: 2
Flags: W
LayerCount: 2
Fore
SplineSet
68 558 m 256,0,1
 68 810 68 810 195 959 c 128,-1,2
 322 1108 322 1108 516 1108 c 0,3,4
 680 1108 680 1108 762 968 c 1,5,-1
 762 1220 l 2,6,7
 762 1386 762 1386 868 1475 c 128,-1,8
 974 1564 974 1564 1134 1564 c 0,9,10
 1224 1564 1224 1564 1328 1556 c 1,11,-1
 1328 1326 l 1,12,13
 1276 1332 1276 1332 1184 1332 c 0,14,15
 1116 1332 1116 1332 1069 1288 c 128,-1,16
 1022 1244 1022 1244 1022 1168 c 2,17,-1
 1022 156 l 2,18,19
 1022 -132 1022 -132 907 -285 c 128,-1,20
 792 -438 792 -438 530 -438 c 0,21,22
 262 -438 262 -438 104 -226 c 1,23,-1
 276 -106 l 1,24,25
 382 -230 382 -230 534 -230 c 0,26,27
 640 -230 640 -230 699 -152 c 128,-1,28
 758 -74 758 -74 762 46 c 2,29,-1
 764 132 l 1,30,31
 728 78 728 78 662 44 c 128,-1,32
 596 10 596 10 524 10 c 0,33,34
 322 10 322 10 195 158 c 128,-1,35
 68 306 68 306 68 558 c 256,0,1
334 560 m 0,36,37
 334 396 334 396 395 315 c 128,-1,38
 456 234 456 234 550 234 c 0,39,40
 648 234 648 234 704 318 c 128,-1,41
 760 402 760 402 760 560 c 0,42,43
 760 710 760 710 704 798 c 128,-1,44
 648 886 648 886 550 886 c 256,45,46
 452 886 452 886 393 803 c 128,-1,47
 334 720 334 720 334 560 c 0,36,37
EndSplineSet
EndChar

StartChar: uni0262
Encoding: 610 610 534
Width: 1102
GlyphClass: 2
Flags: W
LayerCount: 2
Fore
SplineSet
62 534 m 0,0,1
 62 796 62 796 198 952 c 128,-1,2
 334 1108 334 1108 576 1108 c 0,3,4
 872 1108 872 1108 1004 824 c 1,5,-1
 788 734 l 1,6,7
 760 792 760 792 706 839 c 128,-1,8
 652 886 652 886 576 886 c 0,9,10
 460 886 460 886 395 794 c 128,-1,11
 330 702 330 702 330 534 c 0,12,13
 330 370 330 370 397 281 c 128,-1,14
 464 192 464 192 576 192 c 0,15,16
 654 192 654 192 707 238 c 128,-1,17
 760 284 760 284 772 368 c 1,18,-1
 774 420 l 1,19,-1
 538 420 l 1,20,-1
 538 620 l 1,21,-1
 1018 620 l 1,22,-1
 1018 0 l 1,23,-1
 824 0 l 1,24,-1
 814 80 l 1,25,26
 784 34 784 34 712 1 c 128,-1,27
 640 -32 640 -32 560 -32 c 0,28,29
 346 -32 346 -32 204 115 c 128,-1,30
 62 262 62 262 62 534 c 0,0,1
EndSplineSet
EndChar

StartChar: uni0263
Encoding: 611 611 535
Width: 1056
GlyphClass: 2
Flags: W
LayerCount: 2
Fore
SplineSet
16 1076 m 1,0,-1
 300 1076 l 1,1,-1
 526 240 l 1,2,-1
 528 240 l 1,3,-1
 554 316 l 1,4,-1
 758 1076 l 1,5,-1
 1042 1076 l 1,6,-1
 706 124 l 1,7,8
 766 74 766 74 805 3 c 128,-1,9
 844 -68 844 -68 844 -138 c 0,10,11
 844 -268 844 -268 756 -353 c 128,-1,12
 668 -438 668 -438 528 -438 c 0,13,14
 392 -438 392 -438 303 -356 c 128,-1,15
 214 -274 214 -274 214 -138 c 0,16,17
 214 0 214 0 346 120 c 1,18,-1
 16 1076 l 1,0,-1
430 -138 m 0,19,20
 430 -186 430 -186 457 -221 c 128,-1,21
 484 -256 484 -256 528 -256 c 0,22,23
 574 -256 574 -256 602 -220 c 128,-1,24
 630 -184 630 -184 630 -138 c 0,25,26
 630 -98 630 -98 602 -49 c 128,-1,27
 574 0 574 0 528 32 c 1,28,29
 430 -34 430 -34 430 -138 c 0,19,20
EndSplineSet
Substitution2: "'sups' Superscript lookup 5 subtable" uni02E0
Substitution2: "'aalt' Access All Alternates lookup 0 subtable" uni02E0
EndChar

StartChar: uni0264
Encoding: 612 612 536
Width: 976
GlyphClass: 2
Flags: W
LayerCount: 2
Fore
SplineSet
492 608 m 1,0,1
 382 468 382 468 382 346 c 0,2,3
 382 280 382 280 410 235 c 128,-1,4
 438 190 438 190 492 190 c 0,5,6
 540 190 540 190 569 235 c 128,-1,7
 598 280 598 280 598 346 c 0,8,9
 598 476 598 476 492 608 c 1,0,1
22 868 m 1,10,-1
 22 1086 l 1,11,12
 104 1108 104 1108 176 1108 c 0,13,14
 346 1108 346 1108 492 976 c 1,15,16
 630 1108 630 1108 808 1108 c 0,17,18
 888 1108 888 1108 958 1088 c 1,19,-1
 958 864 l 1,20,21
 884 884 884 884 814 884 c 0,22,23
 732 884 732 884 648 804 c 1,24,25
 720 710 720 710 754 657 c 128,-1,26
 788 604 788 604 819 519 c 128,-1,27
 850 434 850 434 850 342 c 0,28,29
 850 174 850 174 756 71 c 128,-1,30
 662 -32 662 -32 492 -32 c 0,31,32
 314 -32 314 -32 224 73 c 128,-1,33
 134 178 134 178 134 342 c 0,34,35
 134 472 134 472 188 579 c 128,-1,36
 242 686 242 686 336 804 c 1,37,38
 248 884 248 884 162 884 c 0,39,40
 136 884 136 884 114 881 c 128,-1,41
 92 878 92 878 65 874 c 128,-1,42
 38 870 38 870 22 868 c 1,10,-1
EndSplineSet
EndChar

StartChar: uni0265
Encoding: 613 613 537
Width: 1126
GlyphClass: 2
Flags: W
LayerCount: 2
Fore
SplineSet
106 386 m 2,0,-1
 106 1076 l 1,1,-1
 368 1076 l 1,2,-1
 368 414 l 2,3,4
 368 190 368 190 524 190 c 0,5,6
 614 190 614 190 676 274 c 128,-1,7
 738 358 738 358 738 466 c 2,8,-1
 738 1076 l 1,9,-1
 996 1076 l 1,10,-1
 996 -430 l 1,11,-1
 738 -430 l 1,12,-1
 738 90 l 1,13,-1
 736 90 l 1,14,15
 640 -32 640 -32 470 -32 c 0,16,17
 418 -32 418 -32 370 -21 c 128,-1,18
 322 -10 322 -10 272 19 c 128,-1,19
 222 48 222 48 187 93 c 128,-1,20
 152 138 152 138 129 213 c 128,-1,21
 106 288 106 288 106 386 c 2,0,-1
EndSplineSet
EndChar

StartChar: uni0266
Encoding: 614 614 538
Width: 1126
GlyphClass: 2
Flags: W
LayerCount: 2
Fore
SplineSet
132 0 m 1,0,-1
 132 1216 l 2,1,2
 132 1386 132 1386 236 1475 c 128,-1,3
 340 1564 340 1564 500 1564 c 0,4,5
 598 1564 598 1564 704 1556 c 1,6,-1
 704 1326 l 1,7,8
 646 1332 646 1332 552 1332 c 0,9,10
 482 1332 482 1332 435 1287 c 128,-1,11
 388 1242 388 1242 388 1168 c 2,12,-1
 388 986 l 1,13,-1
 390 986 l 1,14,15
 502 1108 502 1108 658 1108 c 0,16,17
 808 1108 808 1108 914 1011 c 128,-1,18
 1020 914 1020 914 1020 690 c 2,19,-1
 1020 0 l 1,20,-1
 760 0 l 1,21,-1
 760 662 l 2,22,23
 760 886 760 886 608 886 c 0,24,25
 514 886 514 886 451 804 c 128,-1,26
 388 722 388 722 388 610 c 2,27,-1
 388 0 l 1,28,-1
 132 0 l 1,0,-1
EndSplineSet
Substitution2: "'sups' Superscript lookup 5 subtable" uni02B1
Substitution2: "'aalt' Access All Alternates lookup 0 subtable" uni02B1
EndChar

StartChar: uni0267
Encoding: 615 615 539
Width: 1128
GlyphClass: 2
Flags: W
LayerCount: 2
Fore
SplineSet
132 0 m 1,0,-1
 132 1216 l 2,1,2
 132 1386 132 1386 236 1475 c 128,-1,3
 340 1564 340 1564 500 1564 c 0,4,5
 598 1564 598 1564 704 1556 c 1,6,-1
 704 1326 l 1,7,8
 650 1332 650 1332 552 1332 c 0,9,10
 482 1332 482 1332 435 1286 c 128,-1,11
 388 1240 388 1240 388 1164 c 2,12,-1
 388 986 l 1,13,-1
 390 986 l 1,14,15
 502 1108 502 1108 658 1108 c 0,16,17
 724 1108 724 1108 782 1090 c 128,-1,18
 840 1072 840 1072 897 1029 c 128,-1,19
 954 986 954 986 987 899 c 128,-1,20
 1020 812 1020 812 1020 690 c 2,21,-1
 1020 -32 l 2,22,23
 1020 -240 1020 -240 927 -338 c 128,-1,24
 834 -436 834 -436 644 -436 c 0,25,26
 556 -436 556 -436 456 -424 c 1,27,-1
 456 -200 l 1,28,29
 556 -214 556 -214 594 -214 c 0,30,31
 682 -214 682 -214 721 -173 c 128,-1,32
 760 -132 760 -132 760 -14 c 2,33,-1
 760 662 l 2,34,35
 760 886 760 886 608 886 c 0,36,37
 514 886 514 886 451 804 c 128,-1,38
 388 722 388 722 388 610 c 2,39,-1
 388 0 l 1,40,-1
 132 0 l 1,0,-1
EndSplineSet
EndChar

StartChar: uni0268
Encoding: 616 616 540
Width: 534
GlyphClass: 2
Flags: W
LayerCount: 2
Fore
SplineSet
132 1212 m 1,0,-1
 132 1490 l 1,1,-1
 404 1490 l 1,2,-1
 404 1212 l 1,3,-1
 132 1212 l 1,0,-1
-16 486 m 1,4,-1
 -16 702 l 1,5,-1
 138 702 l 1,6,-1
 138 1076 l 1,7,-1
 398 1076 l 1,8,-1
 398 702 l 1,9,-1
 552 702 l 1,10,-1
 552 486 l 1,11,-1
 398 486 l 1,12,-1
 398 0 l 1,13,-1
 138 0 l 1,14,-1
 138 486 l 1,15,-1
 -16 486 l 1,4,-1
EndSplineSet
EndChar

